0
SECTION
2
HEADER
9
$INSUNITS
70
4
0
ENDSEC
0
SECTION
2
TABLES
0
TABLE
2
LTYPE
0
LTYPE
72
65
70
64
2
CONTINUOUS
3
______
73
0
40
0
0
ENDTAB
0
TABLE
2
LAYER
0
ENDTAB
0
ENDSEC
0
SECTION
2
ENTITIES
0
LINE
8
0
10
90.25
20
-109.5
11
90.25
21
4.5
0
ARC
8
0
10
90.5
20
4.5
40
0.25
50
90
51
180
0
LINE
8
0
10
90.5
20
4.75
11
166.5
21
4.75
0
ARC
8
0
10
166.5
20
4.5
40
0.25
50
360
51
90
0
LINE
8
0
10
166.75
20
4.5
11
166.75
21
-109.5
0
ARC
8
0
10
166.5
20
-109.5
40
0.25
50
270
51
0
0
LINE
8
0
10
166.5
20
-109.75
11
90.5
21
-109.75
0
ARC
8
0
10
90.5
20
-109.5
40
0.25
50
180
51
270
0
LINE
8
0
10
101.5
20
-109
11
117.5
21
-109
0
LINE
8
0
10
118.5
20
-108
11
118.5
21
-92
0
LINE
8
0
10
117.5
20
-91
11
101.5
21
-91
0
LINE
8
0
10
100.5
20
-92
11
100.5
21
-108
0
LINE
8
0
10
92
20
-90
11
108
21
-90
0
LINE
8
0
10
109
20
-89
11
109
21
-73
0
LINE
8
0
10
108
20
-72
11
92
21
-72
0
LINE
8
0
10
91
20
-73
11
91
21
-89
0
LINE
8
0
10
92
20
-71
11
108
21
-71
0
LINE
8
0
10
109
20
-70
11
109
21
-54
0
LINE
8
0
10
108
20
-53
11
92
21
-53
0
LINE
8
0
10
91
20
-54
11
91
21
-70
0
LINE
8
0
10
92
20
-52
11
108
21
-52
0
LINE
8
0
10
109
20
-51
11
109
21
-35
0
LINE
8
0
10
108
20
-34
11
92
21
-34
0
LINE
8
0
10
91
20
-35
11
91
21
-51
0
LINE
8
0
10
92
20
-33
11
108
21
-33
0
LINE
8
0
10
109
20
-32
11
109
21
-16
0
LINE
8
0
10
108
20
-15
11
92
21
-15
0
LINE
8
0
10
91
20
-16
11
91
21
-32
0
LINE
8
0
10
92
20
-14
11
108
21
-14
0
LINE
8
0
10
109
20
-13
11
109
21
3
0
LINE
8
0
10
108
20
4
11
92
21
4
0
LINE
8
0
10
91
20
3
11
91
21
-13
0
LINE
8
0
10
111
20
-90
11
127
21
-90
0
LINE
8
0
10
128
20
-89
11
128
21
-73
0
LINE
8
0
10
127
20
-72
11
111
21
-72
0
LINE
8
0
10
110
20
-73
11
110
21
-89
0
LINE
8
0
10
111
20
-71
11
127
21
-71
0
LINE
8
0
10
128
20
-70
11
128
21
-54
0
LINE
8
0
10
127
20
-53
11
111
21
-53
0
LINE
8
0
10
110
20
-54
11
110
21
-70
0
LINE
8
0
10
111
20
-52
11
127
21
-52
0
LINE
8
0
10
128
20
-51
11
128
21
-35
0
LINE
8
0
10
127
20
-34
11
111
21
-34
0
LINE
8
0
10
110
20
-35
11
110
21
-51
0
LINE
8
0
10
111
20
-33
11
127
21
-33
0
LINE
8
0
10
128
20
-32
11
128
21
-16
0
LINE
8
0
10
127
20
-15
11
111
21
-15
0
LINE
8
0
10
110
20
-16
11
110
21
-32
0
LINE
8
0
10
111
20
-14
11
127
21
-14
0
LINE
8
0
10
128
20
-13
11
128
21
3
0
LINE
8
0
10
127
20
4
11
111
21
4
0
LINE
8
0
10
110
20
3
11
110
21
-13
0
LINE
8
0
10
130
20
-109
11
146
21
-109
0
LINE
8
0
10
147
20
-108
11
147
21
-92
0
LINE
8
0
10
146
20
-91
11
130
21
-91
0
LINE
8
0
10
129
20
-92
11
129
21
-108
0
LINE
8
0
10
130
20
-90
11
146
21
-90
0
LINE
8
0
10
147
20
-89
11
147
21
-73
0
LINE
8
0
10
146
20
-72
11
130
21
-72
0
LINE
8
0
10
129
20
-73
11
129
21
-89
0
LINE
8
0
10
130
20
-71
11
146
21
-71
0
LINE
8
0
10
147
20
-70
11
147
21
-54
0
LINE
8
0
10
146
20
-53
11
130
21
-53
0
LINE
8
0
10
129
20
-54
11
129
21
-70
0
LINE
8
0
10
130
20
-52
11
146
21
-52
0
LINE
8
0
10
147
20
-51
11
147
21
-35
0
LINE
8
0
10
146
20
-34
11
130
21
-34
0
LINE
8
0
10
129
20
-35
11
129
21
-51
0
LINE
8
0
10
130
20
-33
11
146
21
-33
0
LINE
8
0
10
147
20
-32
11
147
21
-16
0
LINE
8
0
10
146
20
-15
11
130
21
-15
0
LINE
8
0
10
129
20
-16
11
129
21
-32
0
LINE
8
0
10
130
20
-14
11
146
21
-14
0
LINE
8
0
10
147
20
-13
11
147
21
3
0
LINE
8
0
10
146
20
4
11
130
21
4
0
LINE
8
0
10
129
20
3
11
129
21
-13
0
LINE
8
0
10
149
20
-99.5
11
165
21
-99.5
0
LINE
8
0
10
166
20
-98.5
11
166
21
-82.5
0
LINE
8
0
10
165
20
-81.5
11
149
21
-81.5
0
LINE
8
0
10
148
20
-82.5
11
148
21
-98.5
0
LINE
8
0
10
149
20
-61.5
11
165
21
-61.5
0
LINE
8
0
10
166
20
-60.5
11
166
21
-44.5
0
LINE
8
0
10
165
20
-43.5
11
149
21
-43.5
0
LINE
8
0
10
148
20
-44.5
11
148
21
-60.5
0
LINE
8
0
10
149
20
-33
11
165
21
-33
0
LINE
8
0
10
166
20
-32
11
166
21
-16
0
LINE
8
0
10
165
20
-15
11
149
21
-15
0
LINE
8
0
10
148
20
-16
11
148
21
-32
0
LINE
8
0
10
149
20
-14
11
165
21
-14
0
LINE
8
0
10
166
20
-13
11
166
21
3
0
LINE
8
0
10
165
20
4
11
149
21
4
0
LINE
8
0
10
148
20
3
11
148
21
-13
0
ARC
8
0
10
117.5
20
-108
40
1
50
270
51
0
0
ARC
8
0
10
117.5
20
-92
40
1
50
0
51
90
0
ARC
8
0
10
101.5
20
-92
40
1
50
90
51
180
0
ARC
8
0
10
101.5
20
-108
40
1
50
180
51
270
0
ARC
8
0
10
108
20
-89
40
1
50
270
51
0
0
ARC
8
0
10
108
20
-73
40
1
50
0
51
90
0
ARC
8
0
10
92
20
-73
40
1
50
90
51
180
0
ARC
8
0
10
92
20
-89
40
1
50
180
51
270
0
ARC
8
0
10
108
20
-70
40
1
50
270
51
0
0
ARC
8
0
10
108
20
-54
40
1
50
0
51
90
0
ARC
8
0
10
92
20
-54
40
1
50
90
51
180
0
ARC
8
0
10
92
20
-70
40
1
50
180
51
270
0
ARC
8
0
10
108
20
-51
40
1
50
270
51
0
0
ARC
8
0
10
108
20
-35
40
1
50
0
51
90
0
ARC
8
0
10
92
20
-35
40
1
50
90
51
180
0
ARC
8
0
10
92
20
-51
40
1
50
180
51
270
0
ARC
8
0
10
108
20
-32
40
1
50
270
51
0
0
ARC
8
0
10
108
20
-16
40
1
50
0
51
90
0
ARC
8
0
10
92
20
-16
40
1
50
90
51
180
0
ARC
8
0
10
92
20
-32
40
1
50
180
51
270
0
ARC
8
0
10
108
20
-13
40
1
50
270
51
0
0
ARC
8
0
10
108
20
3
40
1
50
0
51
90
0
ARC
8
0
10
92
20
3
40
1
50
90
51
180
0
ARC
8
0
10
92
20
-13
40
1
50
180
51
270
0
ARC
8
0
10
127
20
-89
40
1
50
270
51
0
0
ARC
8
0
10
127
20
-73
40
1
50
0
51
90
0
ARC
8
0
10
111
20
-73
40
1
50
90
51
180
0
ARC
8
0
10
111
20
-89
40
1
50
180
51
270
0
ARC
8
0
10
127
20
-70
40
1
50
270
51
0
0
ARC
8
0
10
127
20
-54
40
1
50
0
51
90
0
ARC
8
0
10
111
20
-54
40
1
50
90
51
180
0
ARC
8
0
10
111
20
-70
40
1
50
180
51
270
0
ARC
8
0
10
127
20
-51
40
1
50
270
51
0
0
ARC
8
0
10
127
20
-35
40
1
50
0
51
90
0
ARC
8
0
10
111
20
-35
40
1
50
90
51
180
0
ARC
8
0
10
111
20
-51
40
1
50
180
51
270
0
ARC
8
0
10
127
20
-32
40
1
50
270
51
0
0
ARC
8
0
10
127
20
-16
40
1
50
0
51
90
0
ARC
8
0
10
111
20
-16
40
1
50
90
51
180
0
ARC
8
0
10
111
20
-32
40
1
50
180
51
270
0
ARC
8
0
10
127
20
-13
40
1
50
270
51
0
0
ARC
8
0
10
127
20
3
40
1
50
0
51
90
0
ARC
8
0
10
111
20
3
40
1
50
90
51
180
0
ARC
8
0
10
111
20
-13
40
1
50
180
51
270
0
ARC
8
0
10
146
20
-108
40
1
50
270
51
0
0
ARC
8
0
10
146
20
-92
40
1
50
0
51
90
0
ARC
8
0
10
130
20
-92
40
1
50
90
51
180
0
ARC
8
0
10
130
20
-108
40
1
50
180
51
270
0
ARC
8
0
10
146
20
-89
40
1
50
270
51
0
0
ARC
8
0
10
146
20
-73
40
1
50
0
51
90
0
ARC
8
0
10
130
20
-73
40
1
50
90
51
180
0
ARC
8
0
10
130
20
-89
40
1
50
180
51
270
0
ARC
8
0
10
146
20
-70
40
1
50
270
51
0
0
ARC
8
0
10
146
20
-54
40
1
50
0
51
90
0
ARC
8
0
10
130
20
-54
40
1
50
90
51
180
0
ARC
8
0
10
130
20
-70
40
1
50
180
51
270
0
ARC
8
0
10
146
20
-51
40
1
50
270
51
0
0
ARC
8
0
10
146
20
-35
40
1
50
0
51
90
0
ARC
8
0
10
130
20
-35
40
1
50
90
51
180
0
ARC
8
0
10
130
20
-51
40
1
50
180
51
270
0
ARC
8
0
10
146
20
-32
40
1
50
270
51
0
0
ARC
8
0
10
146
20
-16
40
1
50
0
51
90
0
ARC
8
0
10
130
20
-16
40
1
50
90
51
180
0
ARC
8
0
10
130
20
-32
40
1
50
180
51
270
0
ARC
8
0
10
146
20
-13
40
1
50
270
51
0
0
ARC
8
0
10
146
20
3
40
1
50
0
51
90
0
ARC
8
0
10
130
20
3
40
1
50
90
51
180
0
ARC
8
0
10
130
20
-13
40
1
50
180
51
270
0
ARC
8
0
10
165
20
-98.5
40
1
50
270
51
0
0
ARC
8
0
10
165
20
-82.5
40
1
50
0
51
90
0
ARC
8
0
10
149
20
-82.5
40
1
50
90
51
180
0
ARC
8
0
10
149
20
-98.5
40
1
50
180
51
270
0
ARC
8
0
10
165
20
-60.5
40
1
50
270
51
0
0
ARC
8
0
10
165
20
-44.5
40
1
50
0
51
90
0
ARC
8
0
10
149
20
-44.5
40
1
50
90
51
180
0
ARC
8
0
10
149
20
-60.5
40
1
50
180
51
270
0
ARC
8
0
10
165
20
-32
40
1
50
270
51
0
0
ARC
8
0
10
165
20
-16
40
1
50
0
51
90
0
ARC
8
0
10
149
20
-16
40
1
50
90
51
180
0
ARC
8
0
10
149
20
-32
40
1
50
180
51
270
0
ARC
8
0
10
165
20
-13
40
1
50
270
51
0
0
ARC
8
0
10
165
20
3
40
1
50
0
51
90
0
ARC
8
0
10
149
20
3
40
1
50
90
51
180
0
ARC
8
0
10
149
20
-13
40
1
50
180
51
270
0
CIRCLE
8
0
10
109.5
20
-33.5
40
1.1
0
CIRCLE
8
0
10
147.5
20
-14.5
40
1.1
0
CIRCLE
8
0
10
147.5
20
-90.5
40
1.1
0
CIRCLE
8
0
10
109.5
20
-90.5
40
1.1
0
CIRCLE
8
0
10
128.5
20
-52.5
40
1.1
0
LINE
8
0
10
102.5
20
-107
11
116.5
21
-107
0
LINE
8
0
10
116.5
20
-107
11
116.5
21
-93
0
LINE
8
0
10
116.5
20
-93
11
102.5
21
-93
0
LINE
8
0
10
102.5
20
-93
11
102.5
21
-107
0
LINE
8
0
10
93
20
-88
11
107
21
-88
0
LINE
8
0
10
107
20
-88
11
107
21
-74
0
LINE
8
0
10
107
20
-74
11
93
21
-74
0
LINE
8
0
10
93
20
-74
11
93
21
-88
0
LINE
8
0
10
93
20
-69
11
107
21
-69
0
LINE
8
0
10
107
20
-69
11
107
21
-55
0
LINE
8
0
10
107
20
-55
11
93
21
-55
0
LINE
8
0
10
93
20
-55
11
93
21
-69
0
LINE
8
0
10
93
20
-50
11
107
21
-50
0
LINE
8
0
10
107
20
-50
11
107
21
-36
0
LINE
8
0
10
107
20
-36
11
93
21
-36
0
LINE
8
0
10
93
20
-36
11
93
21
-50
0
LINE
8
0
10
93
20
-31
11
107
21
-31
0
LINE
8
0
10
107
20
-31
11
107
21
-17
0
LINE
8
0
10
107
20
-17
11
93
21
-17
0
LINE
8
0
10
93
20
-17
11
93
21
-31
0
LINE
8
0
10
93
20
-12
11
107
21
-12
0
LINE
8
0
10
107
20
-12
11
107
21
2
0
LINE
8
0
10
107
20
2
11
93
21
2
0
LINE
8
0
10
93
20
2
11
93
21
-12
0
LINE
8
0
10
112
20
-88
11
126
21
-88
0
LINE
8
0
10
126
20
-88
11
126
21
-74
0
LINE
8
0
10
126
20
-74
11
112
21
-74
0
LINE
8
0
10
112
20
-74
11
112
21
-88
0
LINE
8
0
10
112
20
-69
11
126
21
-69
0
LINE
8
0
10
126
20
-69
11
126
21
-55
0
LINE
8
0
10
126
20
-55
11
112
21
-55
0
LINE
8
0
10
112
20
-55
11
112
21
-69
0
LINE
8
0
10
112
20
-50
11
126
21
-50
0
LINE
8
0
10
126
20
-50
11
126
21
-36
0
LINE
8
0
10
126
20
-36
11
112
21
-36
0
LINE
8
0
10
112
20
-36
11
112
21
-50
0
LINE
8
0
10
112
20
-31
11
126
21
-31
0
LINE
8
0
10
126
20
-31
11
126
21
-17
0
LINE
8
0
10
126
20
-17
11
112
21
-17
0
LINE
8
0
10
112
20
-17
11
112
21
-31
0
LINE
8
0
10
112
20
-12
11
126
21
-12
0
LINE
8
0
10
126
20
-12
11
126
21
2
0
LINE
8
0
10
126
20
2
11
112
21
2
0
LINE
8
0
10
112
20
2
11
112
21
-12
0
LINE
8
0
10
131
20
-107
11
145
21
-107
0
LINE
8
0
10
145
20
-107
11
145
21
-93
0
LINE
8
0
10
145
20
-93
11
131
21
-93
0
LINE
8
0
10
131
20
-93
11
131
21
-107
0
LINE
8
0
10
131
20
-88
11
145
21
-88
0
LINE
8
0
10
145
20
-88
11
145
21
-74
0
LINE
8
0
10
145
20
-74
11
131
21
-74
0
LINE
8
0
10
131
20
-74
11
131
21
-88
0
LINE
8
0
10
131
20
-69
11
145
21
-69
0
LINE
8
0
10
145
20
-69
11
145
21
-55
0
LINE
8
0
10
145
20
-55
11
131
21
-55
0
LINE
8
0
10
131
20
-55
11
131
21
-69
0
LINE
8
0
10
131
20
-50
11
145
21
-50
0
LINE
8
0
10
145
20
-50
11
145
21
-36
0
LINE
8
0
10
145
20
-36
11
131
21
-36
0
LINE
8
0
10
131
20
-36
11
131
21
-50
0
LINE
8
0
10
131
20
-31
11
145
21
-31
0
LINE
8
0
10
145
20
-31
11
145
21
-17
0
LINE
8
0
10
145
20
-17
11
131
21
-17
0
LINE
8
0
10
131
20
-17
11
131
21
-31
0
LINE
8
0
10
131
20
-12
11
145
21
-12
0
LINE
8
0
10
145
20
-12
11
145
21
2
0
LINE
8
0
10
145
20
2
11
131
21
2
0
LINE
8
0
10
131
20
2
11
131
21
-12
0
LINE
8
0
10
150
20
-97.5
11
164
21
-97.5
0
LINE
8
0
10
164
20
-97.5
11
164
21
-83.5
0
LINE
8
0
10
164
20
-83.5
11
150
21
-83.5
0
LINE
8
0
10
150
20
-83.5
11
150
21
-97.5
0
LINE
8
0
10
150
20
-59.5
11
164
21
-59.5
0
LINE
8
0
10
164
20
-59.5
11
164
21
-45.5
0
LINE
8
0
10
164
20
-45.5
11
150
21
-45.5
0
LINE
8
0
10
150
20
-45.5
11
150
21
-59.5
0
LINE
8
0
10
150
20
-31
11
164
21
-31
0
LINE
8
0
10
164
20
-31
11
164
21
-17
0
LINE
8
0
10
164
20
-17
11
150
21
-17
0
LINE
8
0
10
150
20
-17
11
150
21
-31
0
LINE
8
0
10
150
20
-12
11
164
21
-12
0
LINE
8
0
10
164
20
-12
11
164
21
2
0
LINE
8
0
10
164
20
2
11
150
21
2
0
LINE
8
0
10
150
20
2
11
150
21
-12
0
CIRCLE
8
0
10
109.5
20
-33.5
40
2.05
0
CIRCLE
8
0
10
147.5
20
-14.5
40
2.05
0
CIRCLE
8
0
10
147.5
20
-90.5
40
2.05
0
CIRCLE
8
0
10
109.5
20
-90.5
40
2.05
0
CIRCLE
8
0
10
128.5
20
-52.5
40
2.05
0
LINE
8
0
10
88.8
20
-109.5
11
88.8
21
4.5
0
ARC
8
0
10
90.5
20
4.5
40
1.7
50
90
51
450
0
LINE
8
0
10
90.5
20
6.2
11
166.5
21
6.2
0
ARC
8
0
10
166.5
20
4.5
40
1.7
50
0
51
360
0
LINE
8
0
10
168.2
20
-109.5
11
168.2
21
4.5
0
ARC
8
0
10
166.5
20
-109.5
40
1.7
50
270
51
630
0
LINE
8
0
10
90.5
20
-111.2
11
166.5
21
-111.2
0
ARC
8
0
10
90.5
20
-109.5
40
1.7
50
180
51
540
0
LINE
8
0
10
90
20
-109.5
11
90
21
4.5
0
ARC
8
0
10
90.5
20
4.5
40
0.5
50
90
51
180
0
LINE
8
0
10
90.5
20
5
11
166.5
21
5
0
ARC
8
0
10
166.5
20
4.5
40
0.5
50
0
51
90
0
LINE
8
0
10
167
20
4.5
11
167
21
-109.5
0
ARC
8
0
10
166.5
20
-109.5
40
0.5
50
270
51
360
0
LINE
8
0
10
166.5
20
-110
11
90.5
21
-110
0
ARC
8
0
10
90.5
20
-109.5
40
0.5
50
180
51
270
0
ENDSEC
0
EOF