%TF.GenerationSoftware,KiCad,Pcbnew,8.0.6*%
%TF.CreationDate,2026-10-01T17:56:34-07:00*%
%TF.ProjectId,numpad,6e756d70-6164-42e6-9b69-6361645f7063,v1.0.0*%
%TF.SameCoordinates,Original*%
%TF.FileFunction,Paste,Bot*%
%TF.FilePolarity,Positive*%
%FSLAX46Y46*%
G04 Gerber Fmt 4.6, Leading zero omitted, Abs format (unit mm)*
G04 Created by KiCad (PCBNEW 8.0.6) date 2026-10-01 17:56:34*
%MOMM*%
%LPD*%
G01*
G04 APERTURE LIST*
G04 Aperture macros list*
%AMRoundRect*
0 Rectangle with rounded corners*
0 $1 Rounding radius*
0 $2 $3 $4 $5 $6 $7 $8 $9 X,Y pos of 4 corners*
0 Add a 4 corners polygon primitive as box body*
4,1,4,$2,$3,$4,$5,$6,$7,$8,$9,$2,$3,0*
0 Add four circle primitives for the rounded corners*
1,1,$1+$1,$2,$3*
1,1,$1+$1,$4,$5*
1,1,$1+$1,$6,$7*
1,1,$1+$1,$8,$9*
0 Add four rect primitives between the rounded corners*
20,1,$1+$1,$2,$3,$4,$5,0*
20,1,$1+$1,$4,$5,$6,$7,0*
20,1,$1+$1,$6,$7,$8,$9,0*
20,1,$1+$1,$8,$9,$2,$3,0*%
G04 Aperture macros list end*
%ADD10RoundRect,0.250000X-1.050000X-1.000000X1.050000X-1.000000X1.050000X1.000000X-1.050000X1.000000X0*%
%ADD11R,1.200000X0.900000*%
%ADD12R,1.550000X1.000000*%
%ADD13R,0.800000X1.000000*%
%ADD14R,1.500000X0.700000*%
G04 APERTURE END LIST*
D10*
%TO.C,S14*%
X129950000Y-66700000D03*
X144250000Y-67750000D03*
%TD*%
D11*
%TO.C,D14*%
X145100000Y-62400000D03*
X145100000Y-59100000D03*
%TD*%
%TO.C,D8*%
X126100000Y-62400000D03*
X126100000Y-59100000D03*
%TD*%
%TO.C,D13*%
X145100000Y-81400000D03*
X145100000Y-78100000D03*
%TD*%
%TO.C,D11*%
X126100000Y-5400000D03*
X126100000Y-2100000D03*
%TD*%
D10*
%TO.C,S13*%
X129950000Y-85700000D03*
X144250000Y-86750000D03*
%TD*%
%TO.C,S10*%
X110950000Y-28700000D03*
X125250000Y-29750000D03*
%TD*%
D11*
%TO.C,D6*%
X107100000Y-5400000D03*
X107100000Y-2100000D03*
%TD*%
D10*
%TO.C,S20*%
X148950000Y-28700000D03*
X163250000Y-29750000D03*
%TD*%
D11*
%TO.C,D12*%
X145100000Y-100400000D03*
X145100000Y-97100000D03*
%TD*%
D10*
%TO.C,S4*%
X91950000Y-47700000D03*
X106250000Y-48750000D03*
%TD*%
D12*
%TO.C,RST1*%
X129875000Y5100000D03*
X129875000Y3400000D03*
X135125000Y5100000D03*
X135125000Y3400000D03*
%TD*%
D11*
%TO.C,D21*%
X164100000Y-5400000D03*
X164100000Y-2100000D03*
%TD*%
D10*
%TO.C,S3*%
X91950000Y-66700000D03*
X106250000Y-67750000D03*
%TD*%
%TO.C,S1*%
X101450000Y-104700000D03*
X115750000Y-105750000D03*
%TD*%
%TO.C,S21*%
X148950000Y-9700000D03*
X163250000Y-10750000D03*
%TD*%
D11*
%TO.C,D17*%
X145100000Y-5400000D03*
X145100000Y-2100000D03*
%TD*%
%TO.C,D4*%
X107100000Y-43400000D03*
X107100000Y-40100000D03*
%TD*%
%TO.C,D15*%
X145100000Y-43400000D03*
X145100000Y-40100000D03*
%TD*%
D10*
%TO.C,S8*%
X110950000Y-66700000D03*
X125250000Y-67750000D03*
%TD*%
%TO.C,S16*%
X129950000Y-28700000D03*
X144250000Y-29750000D03*
%TD*%
D11*
%TO.C,D9*%
X126100000Y-43400000D03*
X126100000Y-40100000D03*
%TD*%
D10*
%TO.C,S5*%
X91950000Y-28700000D03*
X106250000Y-29750000D03*
%TD*%
%TO.C,S15*%
X129950000Y-47700000D03*
X144250000Y-48750000D03*
%TD*%
D11*
%TO.C,D1*%
X116600000Y-100400000D03*
X116600000Y-97100000D03*
%TD*%
%TO.C,D7*%
X126100000Y-81400000D03*
X126100000Y-78100000D03*
%TD*%
D10*
%TO.C,S18*%
X148950000Y-95200000D03*
X163250000Y-96250000D03*
%TD*%
%TO.C,S9*%
X110950000Y-47700000D03*
X125250000Y-48750000D03*
%TD*%
D11*
%TO.C,D16*%
X145100000Y-24400000D03*
X145100000Y-21100000D03*
%TD*%
%TO.C,D10*%
X126100000Y-24400000D03*
X126100000Y-21100000D03*
%TD*%
D10*
%TO.C,S12*%
X129950000Y-104700000D03*
X144250000Y-105750000D03*
%TD*%
D11*
%TO.C,D3*%
X107100000Y-62400000D03*
X107100000Y-59100000D03*
%TD*%
%TO.C,D20*%
X164100000Y-24400000D03*
X164100000Y-21100000D03*
%TD*%
%TO.C,D19*%
X164100000Y-52900000D03*
X164100000Y-49600000D03*
%TD*%
D10*
%TO.C,S2*%
X91950000Y-85700000D03*
X106250000Y-86750000D03*
%TD*%
D13*
%TO.C,PWR1*%
X91385000Y-39650000D03*
X91385000Y-32350000D03*
X89175000Y-39650000D03*
X89175000Y-32350000D03*
D14*
X92035000Y-38250000D03*
X92035000Y-35250000D03*
X92035000Y-33750000D03*
%TD*%
D11*
%TO.C,D18*%
X164100000Y-90900000D03*
X164100000Y-87600000D03*
%TD*%
D10*
%TO.C,S6*%
X91950000Y-9700000D03*
X106250000Y-10750000D03*
%TD*%
D11*
%TO.C,D5*%
X107100000Y-24400000D03*
X107100000Y-21100000D03*
%TD*%
D10*
%TO.C,S19*%
X148950000Y-57200000D03*
X163250000Y-58250000D03*
%TD*%
%TO.C,S17*%
X129950000Y-9700000D03*
X144250000Y-10750000D03*
%TD*%
D11*
%TO.C,D2*%
X107100000Y-81400000D03*
X107100000Y-78100000D03*
%TD*%
D10*
%TO.C,S7*%
X110950000Y-85700000D03*
X125250000Y-86750000D03*
%TD*%
%TO.C,S11*%
X110950000Y-9700000D03*
X125250000Y-10750000D03*
%TD*%
M02*
