%TF.GenerationSoftware,KiCad,Pcbnew,8.0.6*%
%TF.CreationDate,2026-10-01T17:56:34-07:00*%
%TF.ProjectId,numpad,6e756d70-6164-42e6-9b69-6361645f7063,v1.0.0*%
%TF.SameCoordinates,Original*%
%TF.FileFunction,Legend,Bot*%
%TF.FilePolarity,Positive*%
%FSLAX46Y46*%
G04 Gerber Fmt 4.6, Leading zero omitted, Abs format (unit mm)*
G04 Created by KiCad (PCBNEW 8.0.6) date 2026-10-01 17:56:34*
%MOMM*%
%LPD*%
G01*
G04 APERTURE LIST*
%ADD10C,0.150000*%
%ADD11C,0.100000*%
%ADD12C,0.120000*%
G04 APERTURE END LIST*
D10*
X160880953Y-28954819D02*
X160976191Y-29145295D01*
X160452382Y-29954819D02*
X160452382Y-28954819D01*
X160452382Y-28954819D02*
X159880954Y-29954819D01*
X159880954Y-29954819D02*
X159880954Y-28954819D01*
X159261906Y-29954819D02*
X159357144Y-29907200D01*
X159357144Y-29907200D02*
X159404763Y-29859580D01*
X159404763Y-29859580D02*
X159452382Y-29764342D01*
X159452382Y-29764342D02*
X159452382Y-29478628D01*
X159452382Y-29478628D02*
X159404763Y-29383390D01*
X159404763Y-29383390D02*
X159357144Y-29335771D01*
X159357144Y-29335771D02*
X159261906Y-29288152D01*
X159261906Y-29288152D02*
X159119049Y-29288152D01*
X159119049Y-29288152D02*
X159023811Y-29335771D01*
X159023811Y-29335771D02*
X158976192Y-29383390D01*
X158976192Y-29383390D02*
X158928573Y-29478628D01*
X158928573Y-29478628D02*
X158928573Y-29764342D01*
X158928573Y-29764342D02*
X158976192Y-29859580D01*
X158976192Y-29859580D02*
X159023811Y-29907200D01*
X159023811Y-29907200D02*
X159119049Y-29954819D01*
X159119049Y-29954819D02*
X159261906Y-29954819D01*
X158642858Y-29288152D02*
X158261906Y-29288152D01*
X158500001Y-28954819D02*
X158500001Y-29811961D01*
X158500001Y-29811961D02*
X158452382Y-29907200D01*
X158452382Y-29907200D02*
X158357144Y-29954819D01*
X158357144Y-29954819D02*
X158261906Y-29954819D01*
X156738096Y-29954819D02*
X156738096Y-29431009D01*
X156738096Y-29431009D02*
X156785715Y-29335771D01*
X156785715Y-29335771D02*
X156880953Y-29288152D01*
X156880953Y-29288152D02*
X157071429Y-29288152D01*
X157071429Y-29288152D02*
X157166667Y-29335771D01*
X156738096Y-29907200D02*
X156833334Y-29954819D01*
X156833334Y-29954819D02*
X157071429Y-29954819D01*
X157071429Y-29954819D02*
X157166667Y-29907200D01*
X157166667Y-29907200D02*
X157214286Y-29811961D01*
X157214286Y-29811961D02*
X157214286Y-29716723D01*
X157214286Y-29716723D02*
X157166667Y-29621485D01*
X157166667Y-29621485D02*
X157071429Y-29573866D01*
X157071429Y-29573866D02*
X156833334Y-29573866D01*
X156833334Y-29573866D02*
X156738096Y-29526247D01*
X156261905Y-29954819D02*
X156261905Y-28954819D01*
X156261905Y-29335771D02*
X156166667Y-29288152D01*
X156166667Y-29288152D02*
X155976191Y-29288152D01*
X155976191Y-29288152D02*
X155880953Y-29335771D01*
X155880953Y-29335771D02*
X155833334Y-29383390D01*
X155833334Y-29383390D02*
X155785715Y-29478628D01*
X155785715Y-29478628D02*
X155785715Y-29764342D01*
X155785715Y-29764342D02*
X155833334Y-29859580D01*
X155833334Y-29859580D02*
X155880953Y-29907200D01*
X155880953Y-29907200D02*
X155976191Y-29954819D01*
X155976191Y-29954819D02*
X156166667Y-29954819D01*
X156166667Y-29954819D02*
X156261905Y-29907200D01*
X155214286Y-29954819D02*
X155309524Y-29907200D01*
X155309524Y-29907200D02*
X155357143Y-29859580D01*
X155357143Y-29859580D02*
X155404762Y-29764342D01*
X155404762Y-29764342D02*
X155404762Y-29478628D01*
X155404762Y-29478628D02*
X155357143Y-29383390D01*
X155357143Y-29383390D02*
X155309524Y-29335771D01*
X155309524Y-29335771D02*
X155214286Y-29288152D01*
X155214286Y-29288152D02*
X155071429Y-29288152D01*
X155071429Y-29288152D02*
X154976191Y-29335771D01*
X154976191Y-29335771D02*
X154928572Y-29383390D01*
X154928572Y-29383390D02*
X154880953Y-29478628D01*
X154880953Y-29478628D02*
X154880953Y-29764342D01*
X154880953Y-29764342D02*
X154928572Y-29859580D01*
X154928572Y-29859580D02*
X154976191Y-29907200D01*
X154976191Y-29907200D02*
X155071429Y-29954819D01*
X155071429Y-29954819D02*
X155214286Y-29954819D01*
X154023810Y-29288152D02*
X154023810Y-29954819D01*
X154452381Y-29288152D02*
X154452381Y-29811961D01*
X154452381Y-29811961D02*
X154404762Y-29907200D01*
X154404762Y-29907200D02*
X154309524Y-29954819D01*
X154309524Y-29954819D02*
X154166667Y-29954819D01*
X154166667Y-29954819D02*
X154071429Y-29907200D01*
X154071429Y-29907200D02*
X154023810Y-29859580D01*
X153690476Y-29288152D02*
X153309524Y-29288152D01*
X153547619Y-28954819D02*
X153547619Y-29811961D01*
X153547619Y-29811961D02*
X153500000Y-29907200D01*
X153500000Y-29907200D02*
X153404762Y-29954819D01*
X153404762Y-29954819D02*
X153309524Y-29954819D01*
X152214285Y-29954819D02*
X152214285Y-29288152D01*
X152214285Y-29383390D02*
X152166666Y-29335771D01*
X152166666Y-29335771D02*
X152071428Y-29288152D01*
X152071428Y-29288152D02*
X151928571Y-29288152D01*
X151928571Y-29288152D02*
X151833333Y-29335771D01*
X151833333Y-29335771D02*
X151785714Y-29431009D01*
X151785714Y-29431009D02*
X151785714Y-29954819D01*
X151785714Y-29431009D02*
X151738095Y-29335771D01*
X151738095Y-29335771D02*
X151642857Y-29288152D01*
X151642857Y-29288152D02*
X151500000Y-29288152D01*
X151500000Y-29288152D02*
X151404761Y-29335771D01*
X151404761Y-29335771D02*
X151357142Y-29431009D01*
X151357142Y-29431009D02*
X151357142Y-29954819D01*
X150738095Y-29954819D02*
X150833333Y-29907200D01*
X150833333Y-29907200D02*
X150880952Y-29859580D01*
X150880952Y-29859580D02*
X150928571Y-29764342D01*
X150928571Y-29764342D02*
X150928571Y-29478628D01*
X150928571Y-29478628D02*
X150880952Y-29383390D01*
X150880952Y-29383390D02*
X150833333Y-29335771D01*
X150833333Y-29335771D02*
X150738095Y-29288152D01*
X150738095Y-29288152D02*
X150595238Y-29288152D01*
X150595238Y-29288152D02*
X150500000Y-29335771D01*
X150500000Y-29335771D02*
X150452381Y-29383390D01*
X150452381Y-29383390D02*
X150404762Y-29478628D01*
X150404762Y-29478628D02*
X150404762Y-29764342D01*
X150404762Y-29764342D02*
X150452381Y-29859580D01*
X150452381Y-29859580D02*
X150500000Y-29907200D01*
X150500000Y-29907200D02*
X150595238Y-29954819D01*
X150595238Y-29954819D02*
X150738095Y-29954819D01*
X149976190Y-29288152D02*
X149976190Y-29954819D01*
X149976190Y-29383390D02*
X149928571Y-29335771D01*
X149928571Y-29335771D02*
X149833333Y-29288152D01*
X149833333Y-29288152D02*
X149690476Y-29288152D01*
X149690476Y-29288152D02*
X149595238Y-29335771D01*
X149595238Y-29335771D02*
X149547619Y-29431009D01*
X149547619Y-29431009D02*
X149547619Y-29954819D01*
X148690476Y-29907200D02*
X148785714Y-29954819D01*
X148785714Y-29954819D02*
X148976190Y-29954819D01*
X148976190Y-29954819D02*
X149071428Y-29907200D01*
X149071428Y-29907200D02*
X149119047Y-29811961D01*
X149119047Y-29811961D02*
X149119047Y-29431009D01*
X149119047Y-29431009D02*
X149071428Y-29335771D01*
X149071428Y-29335771D02*
X148976190Y-29288152D01*
X148976190Y-29288152D02*
X148785714Y-29288152D01*
X148785714Y-29288152D02*
X148690476Y-29335771D01*
X148690476Y-29335771D02*
X148642857Y-29431009D01*
X148642857Y-29431009D02*
X148642857Y-29526247D01*
X148642857Y-29526247D02*
X149119047Y-29621485D01*
X148309523Y-29288152D02*
X148071428Y-29954819D01*
X147833333Y-29288152D02*
X148071428Y-29954819D01*
X148071428Y-29954819D02*
X148166666Y-30192914D01*
X148166666Y-30192914D02*
X148214285Y-30240533D01*
X148214285Y-30240533D02*
X148309523Y-30288152D01*
X147404761Y-28954819D02*
X147499999Y-29145295D01*
X146309523Y-29288152D02*
X146071428Y-29954819D01*
X146071428Y-29954819D02*
X145833333Y-29288152D01*
X145261904Y-28954819D02*
X145166666Y-28954819D01*
X145166666Y-28954819D02*
X145071428Y-29002438D01*
X145071428Y-29002438D02*
X145023809Y-29050057D01*
X145023809Y-29050057D02*
X144976190Y-29145295D01*
X144976190Y-29145295D02*
X144928571Y-29335771D01*
X144928571Y-29335771D02*
X144928571Y-29573866D01*
X144928571Y-29573866D02*
X144976190Y-29764342D01*
X144976190Y-29764342D02*
X145023809Y-29859580D01*
X145023809Y-29859580D02*
X145071428Y-29907200D01*
X145071428Y-29907200D02*
X145166666Y-29954819D01*
X145166666Y-29954819D02*
X145261904Y-29954819D01*
X145261904Y-29954819D02*
X145357142Y-29907200D01*
X145357142Y-29907200D02*
X145404761Y-29859580D01*
X145404761Y-29859580D02*
X145452380Y-29764342D01*
X145452380Y-29764342D02*
X145499999Y-29573866D01*
X145499999Y-29573866D02*
X145499999Y-29335771D01*
X145499999Y-29335771D02*
X145452380Y-29145295D01*
X145452380Y-29145295D02*
X145404761Y-29050057D01*
X145404761Y-29050057D02*
X145357142Y-29002438D01*
X145357142Y-29002438D02*
X145261904Y-28954819D01*
X144499999Y-29859580D02*
X144452380Y-29907200D01*
X144452380Y-29907200D02*
X144499999Y-29954819D01*
X144499999Y-29954819D02*
X144547618Y-29907200D01*
X144547618Y-29907200D02*
X144499999Y-29859580D01*
X144499999Y-29859580D02*
X144499999Y-29954819D01*
X143500000Y-29954819D02*
X144071428Y-29954819D01*
X143785714Y-29954819D02*
X143785714Y-28954819D01*
X143785714Y-28954819D02*
X143880952Y-29097676D01*
X143880952Y-29097676D02*
X143976190Y-29192914D01*
X143976190Y-29192914D02*
X144071428Y-29240533D01*
X142309523Y-29954819D02*
X142309523Y-28954819D01*
X142309523Y-29335771D02*
X142214285Y-29288152D01*
X142214285Y-29288152D02*
X142023809Y-29288152D01*
X142023809Y-29288152D02*
X141928571Y-29335771D01*
X141928571Y-29335771D02*
X141880952Y-29383390D01*
X141880952Y-29383390D02*
X141833333Y-29478628D01*
X141833333Y-29478628D02*
X141833333Y-29764342D01*
X141833333Y-29764342D02*
X141880952Y-29859580D01*
X141880952Y-29859580D02*
X141928571Y-29907200D01*
X141928571Y-29907200D02*
X142023809Y-29954819D01*
X142023809Y-29954819D02*
X142214285Y-29954819D01*
X142214285Y-29954819D02*
X142309523Y-29907200D01*
X141499999Y-29288152D02*
X141261904Y-29954819D01*
X141023809Y-29288152D02*
X141261904Y-29954819D01*
X141261904Y-29954819D02*
X141357142Y-30192914D01*
X141357142Y-30192914D02*
X141404761Y-30240533D01*
X141404761Y-30240533D02*
X141499999Y-30288152D01*
X139452380Y-29907200D02*
X139547618Y-29954819D01*
X139547618Y-29954819D02*
X139738094Y-29954819D01*
X139738094Y-29954819D02*
X139833332Y-29907200D01*
X139833332Y-29907200D02*
X139880951Y-29859580D01*
X139880951Y-29859580D02*
X139928570Y-29764342D01*
X139928570Y-29764342D02*
X139928570Y-29478628D01*
X139928570Y-29478628D02*
X139880951Y-29383390D01*
X139880951Y-29383390D02*
X139833332Y-29335771D01*
X139833332Y-29335771D02*
X139738094Y-29288152D01*
X139738094Y-29288152D02*
X139547618Y-29288152D01*
X139547618Y-29288152D02*
X139452380Y-29335771D01*
X138642856Y-29907200D02*
X138738094Y-29954819D01*
X138738094Y-29954819D02*
X138928570Y-29954819D01*
X138928570Y-29954819D02*
X139023808Y-29907200D01*
X139023808Y-29907200D02*
X139071427Y-29811961D01*
X139071427Y-29811961D02*
X139071427Y-29431009D01*
X139071427Y-29431009D02*
X139023808Y-29335771D01*
X139023808Y-29335771D02*
X138928570Y-29288152D01*
X138928570Y-29288152D02*
X138738094Y-29288152D01*
X138738094Y-29288152D02*
X138642856Y-29335771D01*
X138642856Y-29335771D02*
X138595237Y-29431009D01*
X138595237Y-29431009D02*
X138595237Y-29526247D01*
X138595237Y-29526247D02*
X139071427Y-29621485D01*
X138023808Y-29954819D02*
X138119046Y-29907200D01*
X138119046Y-29907200D02*
X138166665Y-29859580D01*
X138166665Y-29859580D02*
X138214284Y-29764342D01*
X138214284Y-29764342D02*
X138214284Y-29478628D01*
X138214284Y-29478628D02*
X138166665Y-29383390D01*
X138166665Y-29383390D02*
X138119046Y-29335771D01*
X138119046Y-29335771D02*
X138023808Y-29288152D01*
X138023808Y-29288152D02*
X137880951Y-29288152D01*
X137880951Y-29288152D02*
X137785713Y-29335771D01*
X137785713Y-29335771D02*
X137738094Y-29383390D01*
X137738094Y-29383390D02*
X137690475Y-29478628D01*
X137690475Y-29478628D02*
X137690475Y-29764342D01*
X137690475Y-29764342D02*
X137738094Y-29859580D01*
X137738094Y-29859580D02*
X137785713Y-29907200D01*
X137785713Y-29907200D02*
X137880951Y-29954819D01*
X137880951Y-29954819D02*
X138023808Y-29954819D01*
X137119046Y-29954819D02*
X137214284Y-29907200D01*
X137214284Y-29907200D02*
X137261903Y-29811961D01*
X137261903Y-29811961D02*
X137261903Y-28954819D01*
X136595236Y-29954819D02*
X136690474Y-29907200D01*
X136690474Y-29907200D02*
X136738093Y-29859580D01*
X136738093Y-29859580D02*
X136785712Y-29764342D01*
X136785712Y-29764342D02*
X136785712Y-29478628D01*
X136785712Y-29478628D02*
X136738093Y-29383390D01*
X136738093Y-29383390D02*
X136690474Y-29335771D01*
X136690474Y-29335771D02*
X136595236Y-29288152D01*
X136595236Y-29288152D02*
X136452379Y-29288152D01*
X136452379Y-29288152D02*
X136357141Y-29335771D01*
X136357141Y-29335771D02*
X136309522Y-29383390D01*
X136309522Y-29383390D02*
X136261903Y-29478628D01*
X136261903Y-29478628D02*
X136261903Y-29764342D01*
X136261903Y-29764342D02*
X136309522Y-29859580D01*
X136309522Y-29859580D02*
X136357141Y-29907200D01*
X136357141Y-29907200D02*
X136452379Y-29954819D01*
X136452379Y-29954819D02*
X136595236Y-29954819D01*
X135833331Y-29954819D02*
X135833331Y-29288152D01*
X135833331Y-28954819D02*
X135880950Y-29002438D01*
X135880950Y-29002438D02*
X135833331Y-29050057D01*
X135833331Y-29050057D02*
X135785712Y-29002438D01*
X135785712Y-29002438D02*
X135833331Y-28954819D01*
X135833331Y-28954819D02*
X135833331Y-29050057D01*
X134928570Y-29954819D02*
X134928570Y-28954819D01*
X134928570Y-29907200D02*
X135023808Y-29954819D01*
X135023808Y-29954819D02*
X135214284Y-29954819D01*
X135214284Y-29954819D02*
X135309522Y-29907200D01*
X135309522Y-29907200D02*
X135357141Y-29859580D01*
X135357141Y-29859580D02*
X135404760Y-29764342D01*
X135404760Y-29764342D02*
X135404760Y-29478628D01*
X135404760Y-29478628D02*
X135357141Y-29383390D01*
X135357141Y-29383390D02*
X135309522Y-29335771D01*
X135309522Y-29335771D02*
X135214284Y-29288152D01*
X135214284Y-29288152D02*
X135023808Y-29288152D01*
X135023808Y-29288152D02*
X134928570Y-29335771D01*
X134071427Y-29907200D02*
X134166665Y-29954819D01*
X134166665Y-29954819D02*
X134357141Y-29954819D01*
X134357141Y-29954819D02*
X134452379Y-29907200D01*
X134452379Y-29907200D02*
X134499998Y-29811961D01*
X134499998Y-29811961D02*
X134499998Y-29431009D01*
X134499998Y-29431009D02*
X134452379Y-29335771D01*
X134452379Y-29335771D02*
X134357141Y-29288152D01*
X134357141Y-29288152D02*
X134166665Y-29288152D01*
X134166665Y-29288152D02*
X134071427Y-29335771D01*
X134071427Y-29335771D02*
X134023808Y-29431009D01*
X134023808Y-29431009D02*
X134023808Y-29526247D01*
X134023808Y-29526247D02*
X134499998Y-29621485D01*
X152119048Y-66454819D02*
X152119048Y-67169104D01*
X152119048Y-67169104D02*
X152166667Y-67311961D01*
X152166667Y-67311961D02*
X152261905Y-67407200D01*
X152261905Y-67407200D02*
X152404762Y-67454819D01*
X152404762Y-67454819D02*
X152500000Y-67454819D01*
X151166667Y-67454819D02*
X151642857Y-67454819D01*
X151642857Y-67454819D02*
X151642857Y-66454819D01*
X150261905Y-67359580D02*
X150309524Y-67407200D01*
X150309524Y-67407200D02*
X150452381Y-67454819D01*
X150452381Y-67454819D02*
X150547619Y-67454819D01*
X150547619Y-67454819D02*
X150690476Y-67407200D01*
X150690476Y-67407200D02*
X150785714Y-67311961D01*
X150785714Y-67311961D02*
X150833333Y-67216723D01*
X150833333Y-67216723D02*
X150880952Y-67026247D01*
X150880952Y-67026247D02*
X150880952Y-66883390D01*
X150880952Y-66883390D02*
X150833333Y-66692914D01*
X150833333Y-66692914D02*
X150785714Y-66597676D01*
X150785714Y-66597676D02*
X150690476Y-66502438D01*
X150690476Y-66502438D02*
X150547619Y-66454819D01*
X150547619Y-66454819D02*
X150452381Y-66454819D01*
X150452381Y-66454819D02*
X150309524Y-66502438D01*
X150309524Y-66502438D02*
X150261905Y-66550057D01*
X149547619Y-66454819D02*
X149547619Y-67169104D01*
X149547619Y-67169104D02*
X149595238Y-67311961D01*
X149595238Y-67311961D02*
X149690476Y-67407200D01*
X149690476Y-67407200D02*
X149833333Y-67454819D01*
X149833333Y-67454819D02*
X149928571Y-67454819D01*
X148595238Y-67454819D02*
X149071428Y-67454819D01*
X149071428Y-67454819D02*
X149071428Y-66454819D01*
X147690476Y-67359580D02*
X147738095Y-67407200D01*
X147738095Y-67407200D02*
X147880952Y-67454819D01*
X147880952Y-67454819D02*
X147976190Y-67454819D01*
X147976190Y-67454819D02*
X148119047Y-67407200D01*
X148119047Y-67407200D02*
X148214285Y-67311961D01*
X148214285Y-67311961D02*
X148261904Y-67216723D01*
X148261904Y-67216723D02*
X148309523Y-67026247D01*
X148309523Y-67026247D02*
X148309523Y-66883390D01*
X148309523Y-66883390D02*
X148261904Y-66692914D01*
X148261904Y-66692914D02*
X148214285Y-66597676D01*
X148214285Y-66597676D02*
X148119047Y-66502438D01*
X148119047Y-66502438D02*
X147976190Y-66454819D01*
X147976190Y-66454819D02*
X147880952Y-66454819D01*
X147880952Y-66454819D02*
X147738095Y-66502438D01*
X147738095Y-66502438D02*
X147690476Y-66550057D01*
X146976190Y-66454819D02*
X146976190Y-67169104D01*
X146976190Y-67169104D02*
X147023809Y-67311961D01*
X147023809Y-67311961D02*
X147119047Y-67407200D01*
X147119047Y-67407200D02*
X147261904Y-67454819D01*
X147261904Y-67454819D02*
X147357142Y-67454819D01*
X146023809Y-67454819D02*
X146499999Y-67454819D01*
X146499999Y-67454819D02*
X146499999Y-66454819D01*
X145119047Y-67359580D02*
X145166666Y-67407200D01*
X145166666Y-67407200D02*
X145309523Y-67454819D01*
X145309523Y-67454819D02*
X145404761Y-67454819D01*
X145404761Y-67454819D02*
X145547618Y-67407200D01*
X145547618Y-67407200D02*
X145642856Y-67311961D01*
X145642856Y-67311961D02*
X145690475Y-67216723D01*
X145690475Y-67216723D02*
X145738094Y-67026247D01*
X145738094Y-67026247D02*
X145738094Y-66883390D01*
X145738094Y-66883390D02*
X145690475Y-66692914D01*
X145690475Y-66692914D02*
X145642856Y-66597676D01*
X145642856Y-66597676D02*
X145547618Y-66502438D01*
X145547618Y-66502438D02*
X145404761Y-66454819D01*
X145404761Y-66454819D02*
X145309523Y-66454819D01*
X145309523Y-66454819D02*
X145166666Y-66502438D01*
X145166666Y-66502438D02*
X145119047Y-66550057D01*
X144404761Y-66454819D02*
X144404761Y-67169104D01*
X144404761Y-67169104D02*
X144452380Y-67311961D01*
X144452380Y-67311961D02*
X144547618Y-67407200D01*
X144547618Y-67407200D02*
X144690475Y-67454819D01*
X144690475Y-67454819D02*
X144785713Y-67454819D01*
X143452380Y-67454819D02*
X143928570Y-67454819D01*
X143928570Y-67454819D02*
X143928570Y-66454819D01*
X142547618Y-67359580D02*
X142595237Y-67407200D01*
X142595237Y-67407200D02*
X142738094Y-67454819D01*
X142738094Y-67454819D02*
X142833332Y-67454819D01*
X142833332Y-67454819D02*
X142976189Y-67407200D01*
X142976189Y-67407200D02*
X143071427Y-67311961D01*
X143071427Y-67311961D02*
X143119046Y-67216723D01*
X143119046Y-67216723D02*
X143166665Y-67026247D01*
X143166665Y-67026247D02*
X143166665Y-66883390D01*
X143166665Y-66883390D02*
X143119046Y-66692914D01*
X143119046Y-66692914D02*
X143071427Y-66597676D01*
X143071427Y-66597676D02*
X142976189Y-66502438D01*
X142976189Y-66502438D02*
X142833332Y-66454819D01*
X142833332Y-66454819D02*
X142738094Y-66454819D01*
X142738094Y-66454819D02*
X142595237Y-66502438D01*
X142595237Y-66502438D02*
X142547618Y-66550057D01*
X90919047Y-40454819D02*
X90728571Y-40454819D01*
X90728571Y-40454819D02*
X90633333Y-40502438D01*
X90633333Y-40502438D02*
X90538095Y-40597676D01*
X90538095Y-40597676D02*
X90490476Y-40788152D01*
X90490476Y-40788152D02*
X90490476Y-41121485D01*
X90490476Y-41121485D02*
X90538095Y-41311961D01*
X90538095Y-41311961D02*
X90633333Y-41407200D01*
X90633333Y-41407200D02*
X90728571Y-41454819D01*
X90728571Y-41454819D02*
X90919047Y-41454819D01*
X90919047Y-41454819D02*
X91014285Y-41407200D01*
X91014285Y-41407200D02*
X91109523Y-41311961D01*
X91109523Y-41311961D02*
X91157142Y-41121485D01*
X91157142Y-41121485D02*
X91157142Y-40788152D01*
X91157142Y-40788152D02*
X91109523Y-40597676D01*
X91109523Y-40597676D02*
X91014285Y-40502438D01*
X91014285Y-40502438D02*
X90919047Y-40454819D01*
X90061904Y-41454819D02*
X90061904Y-40454819D01*
X90061904Y-40454819D02*
X89490476Y-41454819D01*
X89490476Y-41454819D02*
X89490476Y-40454819D01*
X91252380Y-30454819D02*
X91061904Y-30454819D01*
X91061904Y-30454819D02*
X90966666Y-30502438D01*
X90966666Y-30502438D02*
X90871428Y-30597676D01*
X90871428Y-30597676D02*
X90823809Y-30788152D01*
X90823809Y-30788152D02*
X90823809Y-31121485D01*
X90823809Y-31121485D02*
X90871428Y-31311961D01*
X90871428Y-31311961D02*
X90966666Y-31407200D01*
X90966666Y-31407200D02*
X91061904Y-31454819D01*
X91061904Y-31454819D02*
X91252380Y-31454819D01*
X91252380Y-31454819D02*
X91347618Y-31407200D01*
X91347618Y-31407200D02*
X91442856Y-31311961D01*
X91442856Y-31311961D02*
X91490475Y-31121485D01*
X91490475Y-31121485D02*
X91490475Y-30788152D01*
X91490475Y-30788152D02*
X91442856Y-30597676D01*
X91442856Y-30597676D02*
X91347618Y-30502438D01*
X91347618Y-30502438D02*
X91252380Y-30454819D01*
X90061904Y-30931009D02*
X90395237Y-30931009D01*
X90395237Y-31454819D02*
X90395237Y-30454819D01*
X90395237Y-30454819D02*
X89919047Y-30454819D01*
X89204761Y-30931009D02*
X89538094Y-30931009D01*
X89538094Y-31454819D02*
X89538094Y-30454819D01*
X89538094Y-30454819D02*
X89061904Y-30454819D01*
D11*
%TO.C,D14*%
X144700000Y-60500000D02*
X145500000Y-60500000D01*
X145100000Y-60500000D02*
X145100000Y-60000000D01*
X145100000Y-61100000D02*
X144550000Y-61100000D01*
X145100000Y-61100000D02*
X144700000Y-60500000D01*
X145100000Y-61100000D02*
X145650000Y-61100000D01*
X145100000Y-61500000D02*
X145100000Y-61100000D01*
X145500000Y-60500000D02*
X145100000Y-61100000D01*
%TO.C,D8*%
X125700000Y-60500000D02*
X126500000Y-60500000D01*
X126100000Y-60500000D02*
X126100000Y-60000000D01*
X126100000Y-61100000D02*
X125550000Y-61100000D01*
X126100000Y-61100000D02*
X125700000Y-60500000D01*
X126100000Y-61100000D02*
X126650000Y-61100000D01*
X126100000Y-61500000D02*
X126100000Y-61100000D01*
X126500000Y-60500000D02*
X126100000Y-61100000D01*
%TO.C,D13*%
X144700000Y-79500000D02*
X145500000Y-79500000D01*
X145100000Y-79500000D02*
X145100000Y-79000000D01*
X145100000Y-80100000D02*
X144550000Y-80100000D01*
X145100000Y-80100000D02*
X144700000Y-79500000D01*
X145100000Y-80100000D02*
X145650000Y-80100000D01*
X145100000Y-80500000D02*
X145100000Y-80100000D01*
X145500000Y-79500000D02*
X145100000Y-80100000D01*
%TO.C,D11*%
X125700000Y-3500000D02*
X126500000Y-3500000D01*
X126100000Y-3500000D02*
X126100000Y-3000000D01*
X126100000Y-4100000D02*
X125550000Y-4100000D01*
X126100000Y-4100000D02*
X125700000Y-3500000D01*
X126100000Y-4100000D02*
X126650000Y-4100000D01*
X126100000Y-4500000D02*
X126100000Y-4100000D01*
X126500000Y-3500000D02*
X126100000Y-4100000D01*
%TO.C,D6*%
X106700000Y-3500000D02*
X107500000Y-3500000D01*
X107100000Y-3500000D02*
X107100000Y-3000000D01*
X107100000Y-4100000D02*
X106550000Y-4100000D01*
X107100000Y-4100000D02*
X106700000Y-3500000D01*
X107100000Y-4100000D02*
X107650000Y-4100000D01*
X107100000Y-4500000D02*
X107100000Y-4100000D01*
X107500000Y-3500000D02*
X107100000Y-4100000D01*
%TO.C,D12*%
X144700000Y-98500000D02*
X145500000Y-98500000D01*
X145100000Y-98500000D02*
X145100000Y-98000000D01*
X145100000Y-99100000D02*
X144550000Y-99100000D01*
X145100000Y-99100000D02*
X144700000Y-98500000D01*
X145100000Y-99100000D02*
X145650000Y-99100000D01*
X145100000Y-99500000D02*
X145100000Y-99100000D01*
X145500000Y-98500000D02*
X145100000Y-99100000D01*
%TO.C,RST1*%
X130150000Y5750000D02*
X130150000Y6000000D01*
X130150000Y2750000D02*
X130150000Y2500000D01*
X130400000Y6000000D02*
X130150000Y6000000D01*
X130400000Y2500000D02*
X130150000Y2500000D01*
X134600000Y6000000D02*
X134850000Y6000000D01*
X134600000Y2500000D02*
X134850000Y2500000D01*
X134850000Y5750000D02*
X134850000Y6000000D01*
X134850000Y2750000D02*
X134850000Y2500000D01*
%TO.C,D21*%
X163700000Y-3500000D02*
X164500000Y-3500000D01*
X164100000Y-3500000D02*
X164100000Y-3000000D01*
X164100000Y-4100000D02*
X163550000Y-4100000D01*
X164100000Y-4100000D02*
X163700000Y-3500000D01*
X164100000Y-4100000D02*
X164650000Y-4100000D01*
X164100000Y-4500000D02*
X164100000Y-4100000D01*
X164500000Y-3500000D02*
X164100000Y-4100000D01*
%TO.C,D17*%
X144700000Y-3500000D02*
X145500000Y-3500000D01*
X145100000Y-3500000D02*
X145100000Y-3000000D01*
X145100000Y-4100000D02*
X144550000Y-4100000D01*
X145100000Y-4100000D02*
X144700000Y-3500000D01*
X145100000Y-4100000D02*
X145650000Y-4100000D01*
X145100000Y-4500000D02*
X145100000Y-4100000D01*
X145500000Y-3500000D02*
X145100000Y-4100000D01*
%TO.C,D4*%
X106700000Y-41500000D02*
X107500000Y-41500000D01*
X107100000Y-41500000D02*
X107100000Y-41000000D01*
X107100000Y-42100000D02*
X106550000Y-42100000D01*
X107100000Y-42100000D02*
X106700000Y-41500000D01*
X107100000Y-42100000D02*
X107650000Y-42100000D01*
X107100000Y-42500000D02*
X107100000Y-42100000D01*
X107500000Y-41500000D02*
X107100000Y-42100000D01*
%TO.C,D15*%
X144700000Y-41500000D02*
X145500000Y-41500000D01*
X145100000Y-41500000D02*
X145100000Y-41000000D01*
X145100000Y-42100000D02*
X144550000Y-42100000D01*
X145100000Y-42100000D02*
X144700000Y-41500000D01*
X145100000Y-42100000D02*
X145650000Y-42100000D01*
X145100000Y-42500000D02*
X145100000Y-42100000D01*
X145500000Y-41500000D02*
X145100000Y-42100000D01*
%TO.C,D9*%
X125700000Y-41500000D02*
X126500000Y-41500000D01*
X126100000Y-41500000D02*
X126100000Y-41000000D01*
X126100000Y-42100000D02*
X125550000Y-42100000D01*
X126100000Y-42100000D02*
X125700000Y-41500000D01*
X126100000Y-42100000D02*
X126650000Y-42100000D01*
X126100000Y-42500000D02*
X126100000Y-42100000D01*
X126500000Y-41500000D02*
X126100000Y-42100000D01*
%TO.C,D1*%
X116200000Y-98500000D02*
X117000000Y-98500000D01*
X116600000Y-98500000D02*
X116600000Y-98000000D01*
X116600000Y-99100000D02*
X116050000Y-99100000D01*
X116600000Y-99100000D02*
X116200000Y-98500000D01*
X116600000Y-99100000D02*
X117150000Y-99100000D01*
X116600000Y-99500000D02*
X116600000Y-99100000D01*
X117000000Y-98500000D02*
X116600000Y-99100000D01*
%TO.C,D7*%
X125700000Y-79500000D02*
X126500000Y-79500000D01*
X126100000Y-79500000D02*
X126100000Y-79000000D01*
X126100000Y-80100000D02*
X125550000Y-80100000D01*
X126100000Y-80100000D02*
X125700000Y-79500000D01*
X126100000Y-80100000D02*
X126650000Y-80100000D01*
X126100000Y-80500000D02*
X126100000Y-80100000D01*
X126500000Y-79500000D02*
X126100000Y-80100000D01*
%TO.C,D16*%
X144700000Y-22500000D02*
X145500000Y-22500000D01*
X145100000Y-22500000D02*
X145100000Y-22000000D01*
X145100000Y-23100000D02*
X144550000Y-23100000D01*
X145100000Y-23100000D02*
X144700000Y-22500000D01*
X145100000Y-23100000D02*
X145650000Y-23100000D01*
X145100000Y-23500000D02*
X145100000Y-23100000D01*
X145500000Y-22500000D02*
X145100000Y-23100000D01*
%TO.C,D10*%
X125700000Y-22500000D02*
X126500000Y-22500000D01*
X126100000Y-22500000D02*
X126100000Y-22000000D01*
X126100000Y-23100000D02*
X125550000Y-23100000D01*
X126100000Y-23100000D02*
X125700000Y-22500000D01*
X126100000Y-23100000D02*
X126650000Y-23100000D01*
X126100000Y-23500000D02*
X126100000Y-23100000D01*
X126500000Y-22500000D02*
X126100000Y-23100000D01*
%TO.C,D3*%
X106700000Y-60500000D02*
X107500000Y-60500000D01*
X107100000Y-60500000D02*
X107100000Y-60000000D01*
X107100000Y-61100000D02*
X106550000Y-61100000D01*
X107100000Y-61100000D02*
X106700000Y-60500000D01*
X107100000Y-61100000D02*
X107650000Y-61100000D01*
X107100000Y-61500000D02*
X107100000Y-61100000D01*
X107500000Y-60500000D02*
X107100000Y-61100000D01*
%TO.C,D20*%
X163700000Y-22500000D02*
X164500000Y-22500000D01*
X164100000Y-22500000D02*
X164100000Y-22000000D01*
X164100000Y-23100000D02*
X163550000Y-23100000D01*
X164100000Y-23100000D02*
X163700000Y-22500000D01*
X164100000Y-23100000D02*
X164650000Y-23100000D01*
X164100000Y-23500000D02*
X164100000Y-23100000D01*
X164500000Y-22500000D02*
X164100000Y-23100000D01*
%TO.C,D19*%
X163700000Y-51000000D02*
X164500000Y-51000000D01*
X164100000Y-51000000D02*
X164100000Y-50500000D01*
X164100000Y-51600000D02*
X163550000Y-51600000D01*
X164100000Y-51600000D02*
X163700000Y-51000000D01*
X164100000Y-51600000D02*
X164650000Y-51600000D01*
X164100000Y-52000000D02*
X164100000Y-51600000D01*
X164500000Y-51000000D02*
X164100000Y-51600000D01*
D12*
%TO.C,JST1*%
X127040000Y-29440000D02*
X128040000Y-29440000D01*
X127040000Y-30360000D02*
X127040000Y-29440000D01*
X127040000Y-34560000D02*
X127040000Y-35560000D01*
X127040000Y-35560000D02*
X128040000Y-35560000D01*
X134860000Y-29440000D02*
X133860000Y-29440000D01*
X134860000Y-30360000D02*
X134860000Y-29440000D01*
X134860000Y-34640000D02*
X134860000Y-35560000D01*
X134860000Y-35560000D02*
X133860000Y-35560000D01*
D11*
X135400000Y-33500000D02*
X136400000Y-33500000D01*
X135900000Y-31000000D02*
X135900000Y-32000000D01*
X135900000Y-34000000D02*
X135900000Y-33000000D01*
D12*
%TO.C,PWR1*%
X88875000Y-38850000D02*
X88875000Y-33150000D01*
X89885000Y-32550000D02*
X90675000Y-32550000D01*
X90675000Y-39450000D02*
X89885000Y-39450000D01*
X91725000Y-34600000D02*
X91725000Y-34400000D01*
X91725000Y-37600000D02*
X91725000Y-35900000D01*
D11*
%TO.C,D18*%
X163700000Y-89000000D02*
X164500000Y-89000000D01*
X164100000Y-89000000D02*
X164100000Y-88500000D01*
X164100000Y-89600000D02*
X163550000Y-89600000D01*
X164100000Y-89600000D02*
X163700000Y-89000000D01*
X164100000Y-89600000D02*
X164650000Y-89600000D01*
X164100000Y-90000000D02*
X164100000Y-89600000D01*
X164500000Y-89000000D02*
X164100000Y-89600000D01*
%TO.C,D5*%
X106700000Y-22500000D02*
X107500000Y-22500000D01*
X107100000Y-22500000D02*
X107100000Y-22000000D01*
X107100000Y-23100000D02*
X106550000Y-23100000D01*
X107100000Y-23100000D02*
X106700000Y-22500000D01*
X107100000Y-23100000D02*
X107650000Y-23100000D01*
X107100000Y-23500000D02*
X107100000Y-23100000D01*
X107500000Y-22500000D02*
X107100000Y-23100000D01*
%TO.C,D2*%
X106700000Y-79500000D02*
X107500000Y-79500000D01*
X107100000Y-79500000D02*
X107100000Y-79000000D01*
X107100000Y-80100000D02*
X106550000Y-80100000D01*
X107100000Y-80100000D02*
X106700000Y-79500000D01*
X107100000Y-80100000D02*
X107650000Y-80100000D01*
X107100000Y-80500000D02*
X107100000Y-80100000D01*
X107500000Y-79500000D02*
X107100000Y-80100000D01*
%TD*%
M02*
