M48
; DRILL file {KiCad 8.0.6} date 2026-10-01T17:56:35-0700
; FORMAT={-:-/ absolute / metric / decimal}
; #@! TF.CreationDate,2026-10-01T17:56:35-07:00
; #@! TF.GenerationSoftware,Kicad,Pcbnew,8.0.6
; #@! TF.FileFunction,MixedPlating,1,2
FMAT,2
METRIC
; #@! TA.AperFunction,Plated,PTH,ViaDrill
T1C0.300
; #@! TA.AperFunction,Plated,PTH,ComponentDrill
T2C0.750
; #@! TA.AperFunction,Plated,PTH,ComponentDrill
T3C1.000
; #@! TA.AperFunction,Plated,PTH,ComponentDrill
T4C3.000
; #@! TA.AperFunction,Plated,PTH,ComponentDrill
T5C5.100
; #@! TA.AperFunction,NonPlated,NPTH,ComponentDrill
T6C0.750
; #@! TA.AperFunction,NonPlated,NPTH,ComponentDrill
T7C0.900
; #@! TA.AperFunction,NonPlated,NPTH,ComponentDrill
T8C2.200
%
G90
G05
T1
X116.679Y-71.648
X117.404Y-38.853
X123.688Y-94.327
X125.53Y-58.126
T2
X128.5Y-31.5
X128.5Y-33.5
T3
X92.6Y0.12
X92.6Y-15.12
X95.14Y0.12
X95.14Y-15.12
X97.68Y0.12
X97.68Y-15.12
X100.22Y0.12
X100.22Y-15.12
X102.76Y0.12
X102.76Y-15.12
X105.3Y0.12
X105.3Y-15.12
X107.84Y0.12
X107.84Y-15.12
X110.38Y0.12
X110.38Y-15.12
X112.92Y0.12
X112.92Y-15.12
X115.46Y0.12
X115.46Y-15.12
X118.0Y0.12
X118.0Y-15.12
X120.54Y0.12
X120.54Y-15.12
T4
X95.6Y-9.7
X95.6Y-28.7
X95.6Y-47.7
X95.6Y-66.7
X95.6Y-85.7
X102.6Y-10.75
X102.6Y-29.75
X102.6Y-48.75
X102.6Y-67.75
X102.6Y-86.75
X105.1Y-104.7
X112.1Y-105.75
X114.6Y-9.7
X114.6Y-28.7
X114.6Y-47.7
X114.6Y-66.7
X114.6Y-85.7
X121.6Y-10.75
X121.6Y-29.75
X121.6Y-48.75
X121.6Y-67.75
X121.6Y-86.75
X133.6Y-9.7
X133.6Y-28.7
X133.6Y-47.7
X133.6Y-66.7
X133.6Y-85.7
X133.6Y-104.7
X140.6Y-10.75
X140.6Y-29.75
X140.6Y-48.75
X140.6Y-67.75
X140.6Y-86.75
X140.6Y-105.75
X152.6Y-9.7
X152.6Y-28.7
X152.6Y-57.2
X152.6Y-95.2
X159.6Y-10.75
X159.6Y-29.75
X159.6Y-58.25
X159.6Y-96.25
T5
X100.0Y-5.0
X100.0Y-24.0
X100.0Y-43.0
X100.0Y-62.0
X100.0Y-81.0
X109.5Y-100.0
X119.0Y-5.0
X119.0Y-24.0
X119.0Y-43.0
X119.0Y-62.0
X119.0Y-81.0
X138.0Y-5.0
X138.0Y-24.0
X138.0Y-43.0
X138.0Y-62.0
X138.0Y-81.0
X138.0Y-100.0
X157.0Y-5.0
X157.0Y-24.0
X157.0Y-52.5
X157.0Y-90.5
T6
X132.5Y5.625
X132.5Y2.875
T7
X90.275Y-34.5
X90.275Y-37.5
T8
X109.5Y-33.5
X109.5Y-90.5
X128.5Y-52.5
X147.5Y-14.5
X147.5Y-90.5
M30
