%TF.GenerationSoftware,KiCad,Pcbnew,8.0.6*%
%TF.CreationDate,2026-10-01T17:56:34-07:00*%
%TF.ProjectId,numpad,6e756d70-6164-42e6-9b69-6361645f7063,v1.0.0*%
%TF.SameCoordinates,Original*%
%TF.FileFunction,Copper,L1,Top*%
%TF.FilePolarity,Positive*%
%FSLAX46Y46*%
G04 Gerber Fmt 4.6, Leading zero omitted, Abs format (unit mm)*
G04 Created by KiCad (PCBNEW 8.0.6) date 2026-10-01 17:56:34*
%MOMM*%
%LPD*%
G01*
G04 APERTURE LIST*
G04 Aperture macros list*
%AMRoundRect*
0 Rectangle with rounded corners*
0 $1 Rounding radius*
0 $2 $3 $4 $5 $6 $7 $8 $9 X,Y pos of 4 corners*
0 Add a 4 corners polygon primitive as box body*
4,1,4,$2,$3,$4,$5,$6,$7,$8,$9,$2,$3,0*
0 Add four circle primitives for the rounded corners*
1,1,$1+$1,$2,$3*
1,1,$1+$1,$4,$5*
1,1,$1+$1,$6,$7*
1,1,$1+$1,$8,$9*
0 Add four rect primitives between the rounded corners*
20,1,$1+$1,$2,$3,$4,$5,0*
20,1,$1+$1,$4,$5,$6,$7,0*
20,1,$1+$1,$6,$7,$8,$9,0*
20,1,$1+$1,$8,$9,$2,$3,0*%
G04 Aperture macros list end*
%TA.AperFunction,ComponentPad*%
%ADD10C,1.700000*%
%TD*%
%TA.AperFunction,ComponentPad*%
%ADD11C,5.600000*%
%TD*%
%TA.AperFunction,ComponentPad*%
%ADD12C,3.500000*%
%TD*%
%TA.AperFunction,ComponentPad*%
%ADD13RoundRect,0.240000X0.635000X-0.360000X0.635000X0.360000X-0.635000X0.360000X-0.635000X-0.360000X0*%
%TD*%
%TA.AperFunction,ComponentPad*%
%ADD14O,1.750000X1.200000*%
%TD*%
%TA.AperFunction,ViaPad*%
%ADD15C,0.600000*%
%TD*%
%TA.AperFunction,Conductor*%
%ADD16C,0.200000*%
%TD*%
G04 APERTURE END LIST*
D10*
%TO.P,MCU1,1*%
%TO.N,RAW*%
X92600000Y120000D03*
%TO.P,MCU1,2*%
%TO.N,GND*%
X95140000Y120000D03*
%TO.P,MCU1,3*%
%TO.N,RST*%
X97680000Y120000D03*
%TO.P,MCU1,4*%
%TO.N,VCC*%
X100220000Y120000D03*
%TO.P,MCU1,5*%
%TO.N,C1*%
X102760000Y120000D03*
%TO.P,MCU1,6*%
%TO.N,C2*%
X105300000Y120000D03*
%TO.P,MCU1,7*%
%TO.N,C3*%
X107840000Y120000D03*
%TO.P,MCU1,8*%
%TO.N,C4*%
X110380000Y120000D03*
%TO.P,MCU1,9*%
%TO.N,R1*%
X112920000Y120000D03*
%TO.P,MCU1,10*%
%TO.N,R2*%
X115460000Y120000D03*
%TO.P,MCU1,11*%
%TO.N,R3*%
X118000000Y120000D03*
%TO.P,MCU1,12*%
%TO.N,R4*%
X120540000Y120000D03*
%TO.P,MCU1,13*%
%TO.N,P9*%
X120540000Y-15120000D03*
%TO.P,MCU1,14*%
%TO.N,R6*%
X118000000Y-15120000D03*
%TO.P,MCU1,15*%
%TO.N,R5*%
X115460000Y-15120000D03*
%TO.P,MCU1,16*%
%TO.N,P6*%
X112920000Y-15120000D03*
%TO.P,MCU1,17*%
%TO.N,P5*%
X110380000Y-15120000D03*
%TO.P,MCU1,18*%
%TO.N,P4*%
X107840000Y-15120000D03*
%TO.P,MCU1,19*%
%TO.N,P3*%
X105300000Y-15120000D03*
%TO.P,MCU1,20*%
%TO.N,P2*%
X102760000Y-15120000D03*
%TO.P,MCU1,21*%
%TO.N,GND*%
X100220000Y-15120000D03*
%TO.P,MCU1,22*%
X97680000Y-15120000D03*
%TO.P,MCU1,23*%
%TO.N,P0*%
X95140000Y-15120000D03*
%TO.P,MCU1,24*%
%TO.N,P1*%
X92600000Y-15120000D03*
%TD*%
D11*
%TO.P,S14,*%
%TO.N,*%
X138000000Y-62000000D03*
D12*
%TO.P,S14,1*%
%TO.N,C3*%
X133600000Y-66700000D03*
%TO.P,S14,2*%
%TO.N,c3_r4*%
X140600000Y-67750000D03*
%TD*%
D11*
%TO.P,S13,*%
%TO.N,*%
X138000000Y-81000000D03*
D12*
%TO.P,S13,1*%
%TO.N,C3*%
X133600000Y-85700000D03*
%TO.P,S13,2*%
%TO.N,c3_r5*%
X140600000Y-86750000D03*
%TD*%
D11*
%TO.P,S10,*%
%TO.N,*%
X119000000Y-24000000D03*
D12*
%TO.P,S10,1*%
%TO.N,C2*%
X114600000Y-28700000D03*
%TO.P,S10,2*%
%TO.N,c2_r2*%
X121600000Y-29750000D03*
%TD*%
D11*
%TO.P,S20,*%
%TO.N,*%
X157000000Y-24000000D03*
D12*
%TO.P,S20,1*%
%TO.N,C4*%
X152600000Y-28700000D03*
%TO.P,S20,2*%
%TO.N,c4_r2*%
X159600000Y-29750000D03*
%TD*%
D11*
%TO.P,S4,*%
%TO.N,*%
X100000000Y-43000000D03*
D12*
%TO.P,S4,1*%
%TO.N,C1*%
X95600000Y-47700000D03*
%TO.P,S4,2*%
%TO.N,c1_r3*%
X102600000Y-48750000D03*
%TD*%
D11*
%TO.P,S3,*%
%TO.N,*%
X100000000Y-62000000D03*
D12*
%TO.P,S3,1*%
%TO.N,C1*%
X95600000Y-66700000D03*
%TO.P,S3,2*%
%TO.N,c1_r4*%
X102600000Y-67750000D03*
%TD*%
D11*
%TO.P,S1,*%
%TO.N,*%
X109500000Y-100000000D03*
D12*
%TO.P,S1,1*%
%TO.N,C1*%
X105100000Y-104700000D03*
%TO.P,S1,2*%
%TO.N,c1_r6*%
X112100000Y-105750000D03*
%TD*%
D11*
%TO.P,S21,*%
%TO.N,*%
X157000000Y-5000000D03*
D12*
%TO.P,S21,1*%
%TO.N,C4*%
X152600000Y-9700000D03*
%TO.P,S21,2*%
%TO.N,c4_r1*%
X159600000Y-10750000D03*
%TD*%
D11*
%TO.P,S8,*%
%TO.N,*%
X119000000Y-62000000D03*
D12*
%TO.P,S8,1*%
%TO.N,C2*%
X114600000Y-66700000D03*
%TO.P,S8,2*%
%TO.N,c2_r4*%
X121600000Y-67750000D03*
%TD*%
D11*
%TO.P,S16,*%
%TO.N,*%
X138000000Y-24000000D03*
D12*
%TO.P,S16,1*%
%TO.N,C3*%
X133600000Y-28700000D03*
%TO.P,S16,2*%
%TO.N,c3_r2*%
X140600000Y-29750000D03*
%TD*%
D11*
%TO.P,S5,*%
%TO.N,*%
X100000000Y-24000000D03*
D12*
%TO.P,S5,1*%
%TO.N,C1*%
X95600000Y-28700000D03*
%TO.P,S5,2*%
%TO.N,c1_r2*%
X102600000Y-29750000D03*
%TD*%
D11*
%TO.P,S15,*%
%TO.N,*%
X138000000Y-43000000D03*
D12*
%TO.P,S15,1*%
%TO.N,C3*%
X133600000Y-47700000D03*
%TO.P,S15,2*%
%TO.N,c3_r3*%
X140600000Y-48750000D03*
%TD*%
D11*
%TO.P,S18,*%
%TO.N,*%
X157000000Y-90500000D03*
D12*
%TO.P,S18,1*%
%TO.N,C4*%
X152600000Y-95200000D03*
%TO.P,S18,2*%
%TO.N,c4_r5*%
X159600000Y-96250000D03*
%TD*%
D11*
%TO.P,S9,*%
%TO.N,*%
X119000000Y-43000000D03*
D12*
%TO.P,S9,1*%
%TO.N,C2*%
X114600000Y-47700000D03*
%TO.P,S9,2*%
%TO.N,c2_r3*%
X121600000Y-48750000D03*
%TD*%
D11*
%TO.P,S12,*%
%TO.N,*%
X138000000Y-100000000D03*
D12*
%TO.P,S12,1*%
%TO.N,C3*%
X133600000Y-104700000D03*
%TO.P,S12,2*%
%TO.N,c3_r6*%
X140600000Y-105750000D03*
%TD*%
D13*
%TO.P,JST1,1*%
%TO.N,GND*%
X128500000Y-31500000D03*
D14*
%TO.P,JST1,2*%
%TO.N,BAT_P*%
X128500000Y-33500000D03*
%TD*%
D11*
%TO.P,S2,*%
%TO.N,*%
X100000000Y-81000000D03*
D12*
%TO.P,S2,1*%
%TO.N,C1*%
X95600000Y-85700000D03*
%TO.P,S2,2*%
%TO.N,c1_r5*%
X102600000Y-86750000D03*
%TD*%
D11*
%TO.P,S6,*%
%TO.N,*%
X100000000Y-5000000D03*
D12*
%TO.P,S6,1*%
%TO.N,C1*%
X95600000Y-9700000D03*
%TO.P,S6,2*%
%TO.N,c1_r1*%
X102600000Y-10750000D03*
%TD*%
D11*
%TO.P,S19,*%
%TO.N,*%
X157000000Y-52500000D03*
D12*
%TO.P,S19,1*%
%TO.N,C4*%
X152600000Y-57200000D03*
%TO.P,S19,2*%
%TO.N,c4_r3*%
X159600000Y-58250000D03*
%TD*%
D11*
%TO.P,S17,*%
%TO.N,*%
X138000000Y-5000000D03*
D12*
%TO.P,S17,1*%
%TO.N,C3*%
X133600000Y-9700000D03*
%TO.P,S17,2*%
%TO.N,c3_r1*%
X140600000Y-10750000D03*
%TD*%
D11*
%TO.P,S7,*%
%TO.N,*%
X119000000Y-81000000D03*
D12*
%TO.P,S7,1*%
%TO.N,C2*%
X114600000Y-85700000D03*
%TO.P,S7,2*%
%TO.N,c2_r5*%
X121600000Y-86750000D03*
%TD*%
D11*
%TO.P,S11,*%
%TO.N,*%
X119000000Y-5000000D03*
D12*
%TO.P,S11,1*%
%TO.N,C2*%
X114600000Y-9700000D03*
%TO.P,S11,2*%
%TO.N,c2_r1*%
X121600000Y-10750000D03*
%TD*%
D15*
%TO.N,R6*%
X123687500Y-94326800D03*
%TO.N,R5*%
X116678600Y-71647800D03*
%TO.N,R4*%
X125530000Y-58126300D03*
%TO.N,R3*%
X117404000Y-38853400D03*
%TD*%
D16*
%TO.N,C1*%
X95600000Y-66700000D02*
X95600000Y-85700000D01*
X95600000Y-28700000D02*
X95600000Y-47700000D01*
X95600000Y-47700000D02*
X95600000Y-66700000D01*
%TO.N,GND*%
X100220000Y-15120000D02*
X100220000Y-10712600D01*
X95140000Y-5632600D02*
X95140000Y120000D01*
X100220000Y-10712600D02*
X95140000Y-5632600D01*
%TO.N,C2*%
X114292500Y-28392500D02*
X114292500Y-10007500D01*
X114600000Y-28700000D02*
X114292500Y-28392500D01*
X105300000Y120000D02*
X114600000Y-9180000D01*
X114600000Y-66700000D02*
X114600000Y-85700000D01*
X114600000Y-47700000D02*
X114600000Y-28700000D01*
X114600000Y-9180000D02*
X114600000Y-9700000D01*
X114600000Y-66700000D02*
X114600000Y-47700000D01*
X114292500Y-10007500D02*
X114600000Y-9700000D01*
%TO.N,C3*%
X108993500Y1273500D02*
X122626500Y1273500D01*
X133600000Y-47700000D02*
X133600000Y-66700000D01*
X107840000Y120000D02*
X108993500Y1273500D01*
X133600000Y-9700000D02*
X133600000Y-28700000D01*
X133600000Y-66700000D02*
X133600000Y-85700000D01*
X133600000Y-85700000D02*
X133600000Y-104700000D01*
X122626500Y1273500D02*
X133600000Y-9700000D01*
X133600000Y-28700000D02*
X133600000Y-47700000D01*
%TO.N,C4*%
X152600000Y-28700000D02*
X152600000Y-57200000D01*
X152600000Y-9700000D02*
X152600000Y-28700000D01*
X152600000Y-57200000D02*
X152600000Y-95200000D01*
%TO.N,R6*%
X118000000Y-15120000D02*
X123687500Y-20807500D01*
X123687500Y-20807500D02*
X123687500Y-94326800D01*
%TO.N,R5*%
X115460000Y-26455700D02*
X116672700Y-27668400D01*
X115895500Y-45796100D02*
X116652000Y-46552600D01*
X115895500Y-64944800D02*
X116678600Y-65727900D01*
X116652000Y-46552600D02*
X116652000Y-48998000D01*
X115895500Y-30754500D02*
X115895500Y-45796100D01*
X115460000Y-15120000D02*
X115460000Y-26455700D01*
X116672700Y-29977300D02*
X115895500Y-30754500D01*
X116672700Y-27668400D02*
X116672700Y-29977300D01*
X116678600Y-65727900D02*
X116678600Y-71647800D01*
X115895500Y-49754500D02*
X115895500Y-64944800D01*
X116652000Y-48998000D02*
X115895500Y-49754500D01*
%TO.N,R4*%
X125530000Y-4870000D02*
X125530000Y-58126300D01*
X120540000Y120000D02*
X125530000Y-4870000D01*
%TO.N,R3*%
X116677500Y-8127500D02*
X116677500Y-15605900D01*
X115860600Y-7310600D02*
X116677500Y-8127500D01*
X117404000Y-27551200D02*
X117404000Y-38853400D01*
X115892800Y-26040000D02*
X117404000Y-27551200D01*
X115892800Y-16390600D02*
X115892800Y-26040000D01*
X116677500Y-15605900D02*
X115892800Y-16390600D01*
X118000000Y120000D02*
X115860600Y-2019400D01*
X115860600Y-2019400D02*
X115860600Y-7310600D01*
%TD*%
M02*
