%TF.GenerationSoftware,KiCad,Pcbnew,8.0.6*%
%TF.CreationDate,2026-10-01T17:56:34-07:00*%
%TF.ProjectId,numpad,6e756d70-6164-42e6-9b69-6361645f7063,v1.0.0*%
%TF.SameCoordinates,Original*%
%TF.FileFunction,Soldermask,Top*%
%TF.FilePolarity,Negative*%
%FSLAX46Y46*%
G04 Gerber Fmt 4.6, Leading zero omitted, Abs format (unit mm)*
G04 Created by KiCad (PCBNEW 8.0.6) date 2026-10-01 17:56:34*
%MOMM*%
%LPD*%
G01*
G04 APERTURE LIST*
G04 Aperture macros list*
%AMRoundRect*
0 Rectangle with rounded corners*
0 $1 Rounding radius*
0 $2 $3 $4 $5 $6 $7 $8 $9 X,Y pos of 4 corners*
0 Add a 4 corners polygon primitive as box body*
4,1,4,$2,$3,$4,$5,$6,$7,$8,$9,$2,$3,0*
0 Add four circle primitives for the rounded corners*
1,1,$1+$1,$2,$3*
1,1,$1+$1,$4,$5*
1,1,$1+$1,$6,$7*
1,1,$1+$1,$8,$9*
0 Add four rect primitives between the rounded corners*
20,1,$1+$1,$2,$3,$4,$5,0*
20,1,$1+$1,$4,$5,$6,$7,0*
20,1,$1+$1,$6,$7,$8,$9,0*
20,1,$1+$1,$8,$9,$2,$3,0*%
G04 Aperture macros list end*
%ADD10C,2.300000*%
%ADD11C,1.800000*%
%ADD12C,5.700000*%
%ADD13C,3.600000*%
%ADD14C,0.850000*%
%ADD15RoundRect,0.260000X0.665000X-0.390000X0.665000X0.390000X-0.665000X0.390000X-0.665000X-0.390000X0*%
%ADD16O,1.850000X1.300000*%
%ADD17C,1.000000*%
G04 APERTURE END LIST*
D10*
%TO.C,MH3*%
X147500000Y-90500000D03*
%TD*%
%TO.C,MH2*%
X147500000Y-14500000D03*
%TD*%
%TO.C,MH4*%
X109500000Y-90500000D03*
%TD*%
%TO.C,MH5*%
X128500000Y-52500000D03*
%TD*%
%TO.C,MH1*%
X109500000Y-33500000D03*
%TD*%
D11*
%TO.C,MCU1*%
X92600000Y120000D03*
X95140000Y120000D03*
X97680000Y120000D03*
X100220000Y120000D03*
X102760000Y120000D03*
X105300000Y120000D03*
X107840000Y120000D03*
X110380000Y120000D03*
X112920000Y120000D03*
X115460000Y120000D03*
X118000000Y120000D03*
X120540000Y120000D03*
X120540000Y-15120000D03*
X118000000Y-15120000D03*
X115460000Y-15120000D03*
X112920000Y-15120000D03*
X110380000Y-15120000D03*
X107840000Y-15120000D03*
X105300000Y-15120000D03*
X102760000Y-15120000D03*
X100220000Y-15120000D03*
X97680000Y-15120000D03*
X95140000Y-15120000D03*
X92600000Y-15120000D03*
%TD*%
D12*
%TO.C,S14*%
X138000000Y-62000000D03*
D13*
X133600000Y-66700000D03*
X140600000Y-67750000D03*
%TD*%
D12*
%TO.C,S13*%
X138000000Y-81000000D03*
D13*
X133600000Y-85700000D03*
X140600000Y-86750000D03*
%TD*%
D12*
%TO.C,S10*%
X119000000Y-24000000D03*
D13*
X114600000Y-28700000D03*
X121600000Y-29750000D03*
%TD*%
D12*
%TO.C,S20*%
X157000000Y-24000000D03*
D13*
X152600000Y-28700000D03*
X159600000Y-29750000D03*
%TD*%
D12*
%TO.C,S4*%
X100000000Y-43000000D03*
D13*
X95600000Y-47700000D03*
X102600000Y-48750000D03*
%TD*%
D14*
%TO.C,RST1*%
X132500000Y5625000D03*
X132500000Y2875000D03*
%TD*%
D12*
%TO.C,S3*%
X100000000Y-62000000D03*
D13*
X95600000Y-66700000D03*
X102600000Y-67750000D03*
%TD*%
D12*
%TO.C,S1*%
X109500000Y-100000000D03*
D13*
X105100000Y-104700000D03*
X112100000Y-105750000D03*
%TD*%
D12*
%TO.C,S21*%
X157000000Y-5000000D03*
D13*
X152600000Y-9700000D03*
X159600000Y-10750000D03*
%TD*%
D12*
%TO.C,S8*%
X119000000Y-62000000D03*
D13*
X114600000Y-66700000D03*
X121600000Y-67750000D03*
%TD*%
D12*
%TO.C,S16*%
X138000000Y-24000000D03*
D13*
X133600000Y-28700000D03*
X140600000Y-29750000D03*
%TD*%
D12*
%TO.C,S5*%
X100000000Y-24000000D03*
D13*
X95600000Y-28700000D03*
X102600000Y-29750000D03*
%TD*%
D12*
%TO.C,S15*%
X138000000Y-43000000D03*
D13*
X133600000Y-47700000D03*
X140600000Y-48750000D03*
%TD*%
D12*
%TO.C,S18*%
X157000000Y-90500000D03*
D13*
X152600000Y-95200000D03*
X159600000Y-96250000D03*
%TD*%
D12*
%TO.C,S9*%
X119000000Y-43000000D03*
D13*
X114600000Y-47700000D03*
X121600000Y-48750000D03*
%TD*%
D12*
%TO.C,S12*%
X138000000Y-100000000D03*
D13*
X133600000Y-104700000D03*
X140600000Y-105750000D03*
%TD*%
D15*
%TO.C,JST1*%
X128500000Y-31500000D03*
D16*
X128500000Y-33500000D03*
%TD*%
D12*
%TO.C,S2*%
X100000000Y-81000000D03*
D13*
X95600000Y-85700000D03*
X102600000Y-86750000D03*
%TD*%
D17*
%TO.C,PWR1*%
X90275000Y-37500000D03*
X90275000Y-34500000D03*
%TD*%
D12*
%TO.C,S6*%
X100000000Y-5000000D03*
D13*
X95600000Y-9700000D03*
X102600000Y-10750000D03*
%TD*%
D12*
%TO.C,S19*%
X157000000Y-52500000D03*
D13*
X152600000Y-57200000D03*
X159600000Y-58250000D03*
%TD*%
D12*
%TO.C,S17*%
X138000000Y-5000000D03*
D13*
X133600000Y-9700000D03*
X140600000Y-10750000D03*
%TD*%
D12*
%TO.C,S7*%
X119000000Y-81000000D03*
D13*
X114600000Y-85700000D03*
X121600000Y-86750000D03*
%TD*%
D12*
%TO.C,S11*%
X119000000Y-5000000D03*
D13*
X114600000Y-9700000D03*
X121600000Y-10750000D03*
%TD*%
M02*
