%TF.GenerationSoftware,KiCad,Pcbnew,8.0.6*%
%TF.CreationDate,2026-10-01T17:56:34-07:00*%
%TF.ProjectId,numpad,6e756d70-6164-42e6-9b69-6361645f7063,v1.0.0*%
%TF.SameCoordinates,Original*%
%TF.FileFunction,Copper,L2,Bot*%
%TF.FilePolarity,Positive*%
%FSLAX46Y46*%
G04 Gerber Fmt 4.6, Leading zero omitted, Abs format (unit mm)*
G04 Created by KiCad (PCBNEW 8.0.6) date 2026-10-01 17:56:34*
%MOMM*%
%LPD*%
G01*
G04 APERTURE LIST*
G04 Aperture macros list*
%AMRoundRect*
0 Rectangle with rounded corners*
0 $1 Rounding radius*
0 $2 $3 $4 $5 $6 $7 $8 $9 X,Y pos of 4 corners*
0 Add a 4 corners polygon primitive as box body*
4,1,4,$2,$3,$4,$5,$6,$7,$8,$9,$2,$3,0*
0 Add four circle primitives for the rounded corners*
1,1,$1+$1,$2,$3*
1,1,$1+$1,$4,$5*
1,1,$1+$1,$6,$7*
1,1,$1+$1,$8,$9*
0 Add four rect primitives between the rounded corners*
20,1,$1+$1,$2,$3,$4,$5,0*
20,1,$1+$1,$4,$5,$6,$7,0*
20,1,$1+$1,$6,$7,$8,$9,0*
20,1,$1+$1,$8,$9,$2,$3,0*%
G04 Aperture macros list end*
%TA.AperFunction,ComponentPad*%
%ADD10C,1.700000*%
%TD*%
%TA.AperFunction,ComponentPad*%
%ADD11C,5.600000*%
%TD*%
%TA.AperFunction,SMDPad,CuDef*%
%ADD12RoundRect,0.250000X-1.750000X-1.000000X1.750000X-1.000000X1.750000X1.000000X-1.750000X1.000000X0*%
%TD*%
%TA.AperFunction,ComponentPad*%
%ADD13C,3.500000*%
%TD*%
%TA.AperFunction,SMDPad,CuDef*%
%ADD14R,1.200000X0.900000*%
%TD*%
%TA.AperFunction,SMDPad,CuDef*%
%ADD15R,1.550000X1.000000*%
%TD*%
%TA.AperFunction,ComponentPad*%
%ADD16RoundRect,0.240000X0.635000X-0.360000X0.635000X0.360000X-0.635000X0.360000X-0.635000X-0.360000X0*%
%TD*%
%TA.AperFunction,ComponentPad*%
%ADD17O,1.750000X1.200000*%
%TD*%
%TA.AperFunction,SMDPad,CuDef*%
%ADD18R,0.800000X1.000000*%
%TD*%
%TA.AperFunction,SMDPad,CuDef*%
%ADD19R,1.500000X0.700000*%
%TD*%
%TA.AperFunction,ViaPad*%
%ADD20C,0.600000*%
%TD*%
%TA.AperFunction,Conductor*%
%ADD21C,0.200000*%
%TD*%
G04 APERTURE END LIST*
D10*
%TO.P,MCU1,1*%
%TO.N,RAW*%
X92600000Y120000D03*
%TO.P,MCU1,2*%
%TO.N,GND*%
X95140000Y120000D03*
%TO.P,MCU1,3*%
%TO.N,RST*%
X97680000Y120000D03*
%TO.P,MCU1,4*%
%TO.N,VCC*%
X100220000Y120000D03*
%TO.P,MCU1,5*%
%TO.N,C1*%
X102760000Y120000D03*
%TO.P,MCU1,6*%
%TO.N,C2*%
X105300000Y120000D03*
%TO.P,MCU1,7*%
%TO.N,C3*%
X107840000Y120000D03*
%TO.P,MCU1,8*%
%TO.N,C4*%
X110380000Y120000D03*
%TO.P,MCU1,9*%
%TO.N,R1*%
X112920000Y120000D03*
%TO.P,MCU1,10*%
%TO.N,R2*%
X115460000Y120000D03*
%TO.P,MCU1,11*%
%TO.N,R3*%
X118000000Y120000D03*
%TO.P,MCU1,12*%
%TO.N,R4*%
X120540000Y120000D03*
%TO.P,MCU1,13*%
%TO.N,P9*%
X120540000Y-15120000D03*
%TO.P,MCU1,14*%
%TO.N,R6*%
X118000000Y-15120000D03*
%TO.P,MCU1,15*%
%TO.N,R5*%
X115460000Y-15120000D03*
%TO.P,MCU1,16*%
%TO.N,P6*%
X112920000Y-15120000D03*
%TO.P,MCU1,17*%
%TO.N,P5*%
X110380000Y-15120000D03*
%TO.P,MCU1,18*%
%TO.N,P4*%
X107840000Y-15120000D03*
%TO.P,MCU1,19*%
%TO.N,P3*%
X105300000Y-15120000D03*
%TO.P,MCU1,20*%
%TO.N,P2*%
X102760000Y-15120000D03*
%TO.P,MCU1,21*%
%TO.N,GND*%
X100220000Y-15120000D03*
%TO.P,MCU1,22*%
X97680000Y-15120000D03*
%TO.P,MCU1,23*%
%TO.N,P0*%
X95140000Y-15120000D03*
%TO.P,MCU1,24*%
%TO.N,P1*%
X92600000Y-15120000D03*
%TD*%
D11*
%TO.P,S14,*%
%TO.N,*%
X138000000Y-62000000D03*
D12*
%TO.P,S14,1*%
%TO.N,C3*%
X130650000Y-66700000D03*
D13*
X133600000Y-66700000D03*
%TO.P,S14,2*%
%TO.N,c3_r4*%
X140600000Y-67750000D03*
D12*
X143550000Y-67750000D03*
%TD*%
D14*
%TO.P,D14,1*%
%TO.N,R4*%
X145100000Y-62400000D03*
%TO.P,D14,2*%
%TO.N,c3_r4*%
X145100000Y-59100000D03*
%TD*%
%TO.P,D8,1*%
%TO.N,R4*%
X126100000Y-62400000D03*
%TO.P,D8,2*%
%TO.N,c2_r4*%
X126100000Y-59100000D03*
%TD*%
%TO.P,D13,1*%
%TO.N,R5*%
X145100000Y-81400000D03*
%TO.P,D13,2*%
%TO.N,c3_r5*%
X145100000Y-78100000D03*
%TD*%
%TO.P,D11,1*%
%TO.N,R1*%
X126100000Y-5400000D03*
%TO.P,D11,2*%
%TO.N,c2_r1*%
X126100000Y-2100000D03*
%TD*%
D11*
%TO.P,S13,*%
%TO.N,*%
X138000000Y-81000000D03*
D12*
%TO.P,S13,1*%
%TO.N,C3*%
X130650000Y-85700000D03*
D13*
X133600000Y-85700000D03*
%TO.P,S13,2*%
%TO.N,c3_r5*%
X140600000Y-86750000D03*
D12*
X143550000Y-86750000D03*
%TD*%
D11*
%TO.P,S10,*%
%TO.N,*%
X119000000Y-24000000D03*
D12*
%TO.P,S10,1*%
%TO.N,C2*%
X111650000Y-28700000D03*
D13*
X114600000Y-28700000D03*
%TO.P,S10,2*%
%TO.N,c2_r2*%
X121600000Y-29750000D03*
D12*
X124550000Y-29750000D03*
%TD*%
D14*
%TO.P,D6,1*%
%TO.N,R1*%
X107100000Y-5400000D03*
%TO.P,D6,2*%
%TO.N,c1_r1*%
X107100000Y-2100000D03*
%TD*%
D11*
%TO.P,S20,*%
%TO.N,*%
X157000000Y-24000000D03*
D12*
%TO.P,S20,1*%
%TO.N,C4*%
X149650000Y-28700000D03*
D13*
X152600000Y-28700000D03*
%TO.P,S20,2*%
%TO.N,c4_r2*%
X159600000Y-29750000D03*
D12*
X162550000Y-29750000D03*
%TD*%
D14*
%TO.P,D12,1*%
%TO.N,R6*%
X145100000Y-100400000D03*
%TO.P,D12,2*%
%TO.N,c3_r6*%
X145100000Y-97100000D03*
%TD*%
D11*
%TO.P,S4,*%
%TO.N,*%
X100000000Y-43000000D03*
D12*
%TO.P,S4,1*%
%TO.N,C1*%
X92650000Y-47700000D03*
D13*
X95600000Y-47700000D03*
%TO.P,S4,2*%
%TO.N,c1_r3*%
X102600000Y-48750000D03*
D12*
X105550000Y-48750000D03*
%TD*%
D15*
%TO.P,RST1,1*%
%TO.N,GND*%
X129875000Y5100000D03*
%TO.P,RST1,2*%
%TO.N,RST*%
X129875000Y3400000D03*
%TO.P,RST1,3*%
%TO.N,GND*%
X135125000Y5100000D03*
%TO.P,RST1,4*%
%TO.N,RST*%
X135125000Y3400000D03*
%TD*%
D14*
%TO.P,D21,1*%
%TO.N,R1*%
X164100000Y-5400000D03*
%TO.P,D21,2*%
%TO.N,c4_r1*%
X164100000Y-2100000D03*
%TD*%
D11*
%TO.P,S3,*%
%TO.N,*%
X100000000Y-62000000D03*
D12*
%TO.P,S3,1*%
%TO.N,C1*%
X92650000Y-66700000D03*
D13*
X95600000Y-66700000D03*
%TO.P,S3,2*%
%TO.N,c1_r4*%
X102600000Y-67750000D03*
D12*
X105550000Y-67750000D03*
%TD*%
D11*
%TO.P,S1,*%
%TO.N,*%
X109500000Y-100000000D03*
D12*
%TO.P,S1,1*%
%TO.N,C1*%
X102150000Y-104700000D03*
D13*
X105100000Y-104700000D03*
%TO.P,S1,2*%
%TO.N,c1_r6*%
X112100000Y-105750000D03*
D12*
X115050000Y-105750000D03*
%TD*%
D11*
%TO.P,S21,*%
%TO.N,*%
X157000000Y-5000000D03*
D12*
%TO.P,S21,1*%
%TO.N,C4*%
X149650000Y-9700000D03*
D13*
X152600000Y-9700000D03*
%TO.P,S21,2*%
%TO.N,c4_r1*%
X159600000Y-10750000D03*
D12*
X162550000Y-10750000D03*
%TD*%
D14*
%TO.P,D17,1*%
%TO.N,R1*%
X145100000Y-5400000D03*
%TO.P,D17,2*%
%TO.N,c3_r1*%
X145100000Y-2100000D03*
%TD*%
%TO.P,D4,1*%
%TO.N,R3*%
X107100000Y-43400000D03*
%TO.P,D4,2*%
%TO.N,c1_r3*%
X107100000Y-40100000D03*
%TD*%
%TO.P,D15,1*%
%TO.N,R3*%
X145100000Y-43400000D03*
%TO.P,D15,2*%
%TO.N,c3_r3*%
X145100000Y-40100000D03*
%TD*%
D11*
%TO.P,S8,*%
%TO.N,*%
X119000000Y-62000000D03*
D12*
%TO.P,S8,1*%
%TO.N,C2*%
X111650000Y-66700000D03*
D13*
X114600000Y-66700000D03*
%TO.P,S8,2*%
%TO.N,c2_r4*%
X121600000Y-67750000D03*
D12*
X124550000Y-67750000D03*
%TD*%
D11*
%TO.P,S16,*%
%TO.N,*%
X138000000Y-24000000D03*
D12*
%TO.P,S16,1*%
%TO.N,C3*%
X130650000Y-28700000D03*
D13*
X133600000Y-28700000D03*
%TO.P,S16,2*%
%TO.N,c3_r2*%
X140600000Y-29750000D03*
D12*
X143550000Y-29750000D03*
%TD*%
D14*
%TO.P,D9,1*%
%TO.N,R3*%
X126100000Y-43400000D03*
%TO.P,D9,2*%
%TO.N,c2_r3*%
X126100000Y-40100000D03*
%TD*%
D11*
%TO.P,S5,*%
%TO.N,*%
X100000000Y-24000000D03*
D12*
%TO.P,S5,1*%
%TO.N,C1*%
X92650000Y-28700000D03*
D13*
X95600000Y-28700000D03*
%TO.P,S5,2*%
%TO.N,c1_r2*%
X102600000Y-29750000D03*
D12*
X105550000Y-29750000D03*
%TD*%
D11*
%TO.P,S15,*%
%TO.N,*%
X138000000Y-43000000D03*
D12*
%TO.P,S15,1*%
%TO.N,C3*%
X130650000Y-47700000D03*
D13*
X133600000Y-47700000D03*
%TO.P,S15,2*%
%TO.N,c3_r3*%
X140600000Y-48750000D03*
D12*
X143550000Y-48750000D03*
%TD*%
D14*
%TO.P,D1,1*%
%TO.N,R6*%
X116600000Y-100400000D03*
%TO.P,D1,2*%
%TO.N,c1_r6*%
X116600000Y-97100000D03*
%TD*%
%TO.P,D7,1*%
%TO.N,R5*%
X126100000Y-81400000D03*
%TO.P,D7,2*%
%TO.N,c2_r5*%
X126100000Y-78100000D03*
%TD*%
D11*
%TO.P,S18,*%
%TO.N,*%
X157000000Y-90500000D03*
D12*
%TO.P,S18,1*%
%TO.N,C4*%
X149650000Y-95200000D03*
D13*
X152600000Y-95200000D03*
%TO.P,S18,2*%
%TO.N,c4_r5*%
X159600000Y-96250000D03*
D12*
X162550000Y-96250000D03*
%TD*%
D11*
%TO.P,S9,*%
%TO.N,*%
X119000000Y-43000000D03*
D12*
%TO.P,S9,1*%
%TO.N,C2*%
X111650000Y-47700000D03*
D13*
X114600000Y-47700000D03*
%TO.P,S9,2*%
%TO.N,c2_r3*%
X121600000Y-48750000D03*
D12*
X124550000Y-48750000D03*
%TD*%
D14*
%TO.P,D16,1*%
%TO.N,R2*%
X145100000Y-24400000D03*
%TO.P,D16,2*%
%TO.N,c3_r2*%
X145100000Y-21100000D03*
%TD*%
%TO.P,D10,1*%
%TO.N,R2*%
X126100000Y-24400000D03*
%TO.P,D10,2*%
%TO.N,c2_r2*%
X126100000Y-21100000D03*
%TD*%
D11*
%TO.P,S12,*%
%TO.N,*%
X138000000Y-100000000D03*
D12*
%TO.P,S12,1*%
%TO.N,C3*%
X130650000Y-104700000D03*
D13*
X133600000Y-104700000D03*
%TO.P,S12,2*%
%TO.N,c3_r6*%
X140600000Y-105750000D03*
D12*
X143550000Y-105750000D03*
%TD*%
D14*
%TO.P,D3,1*%
%TO.N,R4*%
X107100000Y-62400000D03*
%TO.P,D3,2*%
%TO.N,c1_r4*%
X107100000Y-59100000D03*
%TD*%
%TO.P,D20,1*%
%TO.N,R2*%
X164100000Y-24400000D03*
%TO.P,D20,2*%
%TO.N,c4_r2*%
X164100000Y-21100000D03*
%TD*%
%TO.P,D19,1*%
%TO.N,R3*%
X164100000Y-52900000D03*
%TO.P,D19,2*%
%TO.N,c4_r3*%
X164100000Y-49600000D03*
%TD*%
D16*
%TO.P,JST1,1*%
%TO.N,GND*%
X128500000Y-31500000D03*
D17*
%TO.P,JST1,2*%
%TO.N,BAT_P*%
X128500000Y-33500000D03*
%TD*%
D11*
%TO.P,S2,*%
%TO.N,*%
X100000000Y-81000000D03*
D12*
%TO.P,S2,1*%
%TO.N,C1*%
X92650000Y-85700000D03*
D13*
X95600000Y-85700000D03*
%TO.P,S2,2*%
%TO.N,c1_r5*%
X102600000Y-86750000D03*
D12*
X105550000Y-86750000D03*
%TD*%
D18*
%TO.P,PWR1,*%
%TO.N,*%
X91385000Y-39650000D03*
X91385000Y-32350000D03*
X89175000Y-39650000D03*
X89175000Y-32350000D03*
D19*
%TO.P,PWR1,1*%
%TO.N,BAT_P*%
X92035000Y-38250000D03*
%TO.P,PWR1,2*%
%TO.N,RAW*%
X92035000Y-35250000D03*
%TO.P,PWR1,3*%
%TO.N,N/C*%
X92035000Y-33750000D03*
%TD*%
D14*
%TO.P,D18,1*%
%TO.N,R5*%
X164100000Y-90900000D03*
%TO.P,D18,2*%
%TO.N,c4_r5*%
X164100000Y-87600000D03*
%TD*%
D11*
%TO.P,S6,*%
%TO.N,*%
X100000000Y-5000000D03*
D12*
%TO.P,S6,1*%
%TO.N,C1*%
X92650000Y-9700000D03*
D13*
X95600000Y-9700000D03*
%TO.P,S6,2*%
%TO.N,c1_r1*%
X102600000Y-10750000D03*
D12*
X105550000Y-10750000D03*
%TD*%
D14*
%TO.P,D5,1*%
%TO.N,R2*%
X107100000Y-24400000D03*
%TO.P,D5,2*%
%TO.N,c1_r2*%
X107100000Y-21100000D03*
%TD*%
D11*
%TO.P,S19,*%
%TO.N,*%
X157000000Y-52500000D03*
D12*
%TO.P,S19,1*%
%TO.N,C4*%
X149650000Y-57200000D03*
D13*
X152600000Y-57200000D03*
%TO.P,S19,2*%
%TO.N,c4_r3*%
X159600000Y-58250000D03*
D12*
X162550000Y-58250000D03*
%TD*%
D11*
%TO.P,S17,*%
%TO.N,*%
X138000000Y-5000000D03*
D12*
%TO.P,S17,1*%
%TO.N,C3*%
X130650000Y-9700000D03*
D13*
X133600000Y-9700000D03*
%TO.P,S17,2*%
%TO.N,c3_r1*%
X140600000Y-10750000D03*
D12*
X143550000Y-10750000D03*
%TD*%
D14*
%TO.P,D2,1*%
%TO.N,R5*%
X107100000Y-81400000D03*
%TO.P,D2,2*%
%TO.N,c1_r5*%
X107100000Y-78100000D03*
%TD*%
D11*
%TO.P,S7,*%
%TO.N,*%
X119000000Y-81000000D03*
D12*
%TO.P,S7,1*%
%TO.N,C2*%
X111650000Y-85700000D03*
D13*
X114600000Y-85700000D03*
%TO.P,S7,2*%
%TO.N,c2_r5*%
X121600000Y-86750000D03*
D12*
X124550000Y-86750000D03*
%TD*%
D11*
%TO.P,S11,*%
%TO.N,*%
X119000000Y-5000000D03*
D12*
%TO.P,S11,1*%
%TO.N,C2*%
X111650000Y-9700000D03*
D13*
X114600000Y-9700000D03*
%TO.P,S11,2*%
%TO.N,c2_r1*%
X121600000Y-10750000D03*
D12*
X124550000Y-10750000D03*
%TD*%
D20*
%TO.N,R6*%
X123687500Y-94326800D03*
%TO.N,R5*%
X116678600Y-71647800D03*
%TO.N,R4*%
X125530000Y-58126300D03*
%TO.N,R3*%
X117404000Y-38853400D03*
%TD*%
D21*
%TO.N,C1*%
X95600000Y-98150000D02*
X102150000Y-104700000D01*
X93793700Y-27556300D02*
X94456300Y-27556300D01*
X94456300Y-27556300D02*
X95600000Y-28700000D01*
X92650000Y-66700000D02*
X95600000Y-66700000D01*
X95600000Y-5003400D02*
X95600000Y-9700000D01*
X102760000Y120000D02*
X100972900Y-1667100D01*
X92650000Y-85700000D02*
X95600000Y-85700000D01*
X98936300Y-1667100D02*
X95600000Y-5003400D01*
X93793700Y-9700000D02*
X95600000Y-9700000D01*
X100972900Y-1667100D02*
X98936300Y-1667100D01*
X95600000Y-85700000D02*
X95600000Y-98150000D01*
X92650000Y-9700000D02*
X93793700Y-9700000D01*
X92650000Y-47700000D02*
X95600000Y-47700000D01*
X93793700Y-27556300D02*
X92650000Y-28700000D01*
X102150000Y-104700000D02*
X105100000Y-104700000D01*
X93793700Y-9700000D02*
X93793700Y-27556300D01*
%TO.N,c1_r6*%
X115050000Y-99400100D02*
X115050000Y-105750000D01*
X115050000Y-105750000D02*
X112100000Y-105750000D01*
X116600000Y-97100000D02*
X116600000Y-97850100D01*
X116600000Y-97850100D02*
X115050000Y-99400100D01*
%TO.N,GND*%
X129875000Y5100000D02*
X100120000Y5100000D01*
X108019300Y-21947700D02*
X108019300Y-20500800D01*
X106195400Y-18676900D02*
X103776900Y-18676900D01*
X134049900Y5100000D02*
X133604200Y4654300D01*
X100220000Y-15120000D02*
X97680000Y-15120000D01*
X130412600Y5100000D02*
X129875000Y5100000D01*
X130412600Y5100000D02*
X130950100Y5100000D01*
X100120000Y5100000D02*
X95140000Y120000D01*
X106187700Y-26768100D02*
X106187700Y-23779300D01*
X128150200Y-31849800D02*
X111269400Y-31849800D01*
X103776900Y-18676900D02*
X100220000Y-15120000D01*
X108019300Y-20500800D02*
X106195400Y-18676900D01*
X111269400Y-31849800D02*
X106187700Y-26768100D01*
X135125000Y5100000D02*
X134049900Y5100000D01*
X133604200Y4654300D02*
X131395800Y4654300D01*
X131395800Y4654300D02*
X130950100Y5100000D01*
X128500000Y-31500000D02*
X128150200Y-31849800D01*
X106187700Y-23779300D02*
X108019300Y-21947700D01*
%TO.N,c1_r5*%
X107100000Y-78850100D02*
X105550000Y-80400100D01*
X105550000Y-86750000D02*
X102600000Y-86750000D01*
X107100000Y-78100000D02*
X107100000Y-78850100D01*
X105550000Y-80400100D02*
X105550000Y-86750000D01*
%TO.N,c1_r4*%
X107100000Y-59100000D02*
X107100000Y-59850100D01*
X105550000Y-67750000D02*
X102600000Y-67750000D01*
X107100000Y-59850100D02*
X105550000Y-61400100D01*
X105550000Y-61400100D02*
X105550000Y-67750000D01*
%TO.N,c1_r3*%
X107100000Y-40100000D02*
X107100000Y-40850100D01*
X107100000Y-40850100D02*
X105550000Y-42400100D01*
X105550000Y-42400100D02*
X105550000Y-48750000D01*
X105550000Y-48750000D02*
X102600000Y-48750000D01*
%TO.N,c1_r2*%
X105550000Y-23400100D02*
X105550000Y-29750000D01*
X107100000Y-21100000D02*
X107100000Y-21850100D01*
X107100000Y-21850100D02*
X105550000Y-23400100D01*
X105550000Y-29750000D02*
X102600000Y-29750000D01*
%TO.N,c1_r1*%
X107100000Y-2100000D02*
X107100000Y-2850100D01*
X105550000Y-4400100D02*
X105550000Y-10750000D01*
X107100000Y-2850100D02*
X105550000Y-4400100D01*
X105550000Y-10750000D02*
X102600000Y-10750000D01*
%TO.N,C2*%
X114600000Y-9700000D02*
X111650000Y-9700000D01*
X111650000Y-85700000D02*
X114600000Y-85700000D01*
X111650000Y-47700000D02*
X114600000Y-47700000D01*
X111650000Y-28700000D02*
X114600000Y-28700000D01*
X111650000Y-66700000D02*
X114600000Y-66700000D01*
%TO.N,c2_r5*%
X126100000Y-78100000D02*
X126100000Y-78850100D01*
X124550000Y-86750000D02*
X121600000Y-86750000D01*
X126100000Y-78850100D02*
X127000200Y-79750300D01*
X127000200Y-84299800D02*
X124550000Y-86750000D01*
X127000200Y-79750300D02*
X127000200Y-84299800D01*
%TO.N,c2_r4*%
X126100000Y-59100000D02*
X126100000Y-59850100D01*
X127000200Y-60750300D02*
X127000200Y-65299800D01*
X126100000Y-59850100D02*
X127000200Y-60750300D01*
X124550000Y-67750000D02*
X121600000Y-67750000D01*
X127000200Y-65299800D02*
X124550000Y-67750000D01*
%TO.N,c2_r3*%
X127000200Y-46299800D02*
X124550000Y-48750000D01*
X124550000Y-48750000D02*
X121600000Y-48750000D01*
X126100000Y-40850100D02*
X127000200Y-41750300D01*
X127000200Y-41750300D02*
X127000200Y-46299800D01*
X126100000Y-40100000D02*
X126100000Y-40850100D01*
%TO.N,c2_r2*%
X127000200Y-22750300D02*
X127000200Y-27299800D01*
X126100000Y-21100000D02*
X126100000Y-21850100D01*
X126100000Y-21850100D02*
X127000200Y-22750300D01*
X124550000Y-29750000D02*
X121600000Y-29750000D01*
X127000200Y-27299800D02*
X124550000Y-29750000D01*
%TO.N,c2_r1*%
X127000200Y-8299800D02*
X124550000Y-10750000D01*
X126100000Y-2850100D02*
X127000200Y-3750300D01*
X124550000Y-10750000D02*
X121600000Y-10750000D01*
X127000200Y-3750300D02*
X127000200Y-8299800D01*
X126100000Y-2100000D02*
X126100000Y-2850100D01*
%TO.N,C3*%
X130650000Y-104700000D02*
X133600000Y-104700000D01*
X130650000Y-85700000D02*
X133600000Y-85700000D01*
X130650000Y-66700000D02*
X133600000Y-66700000D01*
X130650000Y-47700000D02*
X133600000Y-47700000D01*
X130650000Y-9700000D02*
X133600000Y-9700000D01*
X130650000Y-28700000D02*
X133600000Y-28700000D01*
%TO.N,c3_r6*%
X146000200Y-98750300D02*
X146000200Y-103299800D01*
X145100000Y-97850100D02*
X146000200Y-98750300D01*
X145100000Y-97100000D02*
X145100000Y-97850100D01*
X146000200Y-103299800D02*
X143550000Y-105750000D01*
X143550000Y-105750000D02*
X140600000Y-105750000D01*
%TO.N,c3_r5*%
X145100000Y-78100000D02*
X145100000Y-78850100D01*
X143550000Y-86750000D02*
X140600000Y-86750000D01*
X145100000Y-78850100D02*
X143550000Y-80400100D01*
X143550000Y-80400100D02*
X143550000Y-86750000D01*
%TO.N,c3_r4*%
X143550000Y-67750000D02*
X140600000Y-67750000D01*
X145100000Y-59850100D02*
X146000200Y-60750300D01*
X146000200Y-60750300D02*
X146000200Y-65299800D01*
X146000200Y-65299800D02*
X143550000Y-67750000D01*
X145100000Y-59100000D02*
X145100000Y-59850100D01*
%TO.N,c3_r3*%
X143550000Y-48750000D02*
X140600000Y-48750000D01*
X145100000Y-40100000D02*
X145100000Y-40850100D01*
X145100000Y-40850100D02*
X143550000Y-42400100D01*
X143550000Y-42400100D02*
X143550000Y-48750000D01*
%TO.N,c3_r2*%
X143550000Y-29750000D02*
X140600000Y-29750000D01*
X145100000Y-21850100D02*
X143550000Y-23400100D01*
X143550000Y-23400100D02*
X143550000Y-29750000D01*
X145100000Y-21100000D02*
X145100000Y-21850100D01*
%TO.N,c3_r1*%
X143550000Y-10750000D02*
X140600000Y-10750000D01*
X145100000Y-2850100D02*
X143550000Y-4400100D01*
X145100000Y-2100000D02*
X145100000Y-2850100D01*
X143550000Y-4400100D02*
X143550000Y-10750000D01*
%TO.N,C4*%
X149650000Y-57200000D02*
X152600000Y-57200000D01*
X110380000Y120000D02*
X111981100Y1721100D01*
X149650000Y-95200000D02*
X152600000Y-95200000D01*
X111981100Y1721100D02*
X143334400Y1721100D01*
X149650000Y-4594500D02*
X149650000Y-9700000D01*
X143334400Y1721100D02*
X149650000Y-4594500D01*
X149650000Y-28700000D02*
X152600000Y-28700000D01*
X149650000Y-9700000D02*
X152600000Y-9700000D01*
%TO.N,c4_r5*%
X164100000Y-87600000D02*
X164100000Y-88350100D01*
X165000200Y-89250300D02*
X165000200Y-93799800D01*
X165000200Y-93799800D02*
X162550000Y-96250000D01*
X164100000Y-88350100D02*
X165000200Y-89250300D01*
X162550000Y-96250000D02*
X159600000Y-96250000D01*
%TO.N,c4_r3*%
X165000200Y-51250300D02*
X165000200Y-55799800D01*
X162550000Y-58250000D02*
X159600000Y-58250000D01*
X164100000Y-50350100D02*
X165000200Y-51250300D01*
X165000200Y-55799800D02*
X162550000Y-58250000D01*
X164100000Y-49600000D02*
X164100000Y-50350100D01*
%TO.N,c4_r2*%
X165000200Y-22750300D02*
X165000200Y-27299800D01*
X164100000Y-21850100D02*
X165000200Y-22750300D01*
X164100000Y-21100000D02*
X164100000Y-21850100D01*
X162550000Y-29750000D02*
X159600000Y-29750000D01*
X165000200Y-27299800D02*
X162550000Y-29750000D01*
%TO.N,c4_r1*%
X162550000Y-10750000D02*
X159600000Y-10750000D01*
X164100000Y-2850100D02*
X165000200Y-3750300D01*
X164100000Y-2100000D02*
X164100000Y-2850100D01*
X165000200Y-8299800D02*
X162550000Y-10750000D01*
X165000200Y-3750300D02*
X165000200Y-8299800D01*
%TO.N,R6*%
X118364400Y-99649900D02*
X123687500Y-94326800D01*
X116600000Y-99649900D02*
X118364400Y-99649900D01*
X116600000Y-100400000D02*
X116600000Y-99649900D01*
X139776900Y-94326800D02*
X145100000Y-99649900D01*
X123687500Y-94326800D02*
X139776900Y-94326800D01*
X145100000Y-100400000D02*
X145100000Y-99649900D01*
%TO.N,R5*%
X126100000Y-81400000D02*
X126100000Y-80649900D01*
X164100000Y-90900000D02*
X164100000Y-90149900D01*
X153699800Y-79749700D02*
X146000200Y-79749700D01*
X116678600Y-71647800D02*
X122379900Y-77349100D01*
X122379900Y-77349100D02*
X125158200Y-77349100D01*
X146000200Y-79749700D02*
X145100000Y-80649900D01*
X146000200Y-79749700D02*
X146000200Y-77499100D01*
X125158200Y-77349100D02*
X125158200Y-79708100D01*
X107676500Y-80649900D02*
X107100000Y-80649900D01*
X107100000Y-81400000D02*
X107100000Y-80649900D01*
X145100000Y-81400000D02*
X145100000Y-80649900D01*
X145850200Y-77349100D02*
X125158200Y-77349100D01*
X164100000Y-90149900D02*
X153699800Y-79749700D01*
X125158200Y-79708100D02*
X126100000Y-80649900D01*
X116678600Y-71647800D02*
X107676500Y-80649900D01*
X146000200Y-77499100D02*
X145850200Y-77349100D01*
%TO.N,R4*%
X124140800Y-65109300D02*
X116359400Y-65109300D01*
X141746900Y-58296800D02*
X145100000Y-61649900D01*
X125185400Y-58469500D02*
X125358100Y-58296800D01*
X126100000Y-61649900D02*
X125185400Y-60735300D01*
X125530000Y-58126300D02*
X125530000Y-58296800D01*
X116359400Y-65109300D02*
X113650100Y-62400000D01*
X126100000Y-62400000D02*
X126100000Y-63150100D01*
X126100000Y-62400000D02*
X126100000Y-61649900D01*
X125530000Y-58296800D02*
X141746900Y-58296800D01*
X126100000Y-63150100D02*
X124140800Y-65109300D01*
X125358100Y-58296800D02*
X125530000Y-58296800D01*
X145100000Y-62400000D02*
X145100000Y-61649900D01*
X113650100Y-62400000D02*
X107100000Y-62400000D01*
X125185400Y-60735300D02*
X125185400Y-58469500D01*
%TO.N,R3*%
X146000200Y-41749700D02*
X153699800Y-41749700D01*
X164100000Y-52900000D02*
X164100000Y-52149900D01*
X146000200Y-39462500D02*
X146000200Y-41749700D01*
X126100000Y-42649900D02*
X124069100Y-40619000D01*
X146000200Y-41749700D02*
X145100000Y-42649900D01*
X117404000Y-38853400D02*
X112857400Y-43400000D01*
X112857400Y-43400000D02*
X107100000Y-43400000D01*
X125423500Y-39264600D02*
X145802300Y-39264600D01*
X124069100Y-40619000D02*
X125423500Y-39264600D01*
X145802300Y-39264600D02*
X146000200Y-39462500D01*
X122303500Y-38853400D02*
X117404000Y-38853400D01*
X124069100Y-40619000D02*
X122303500Y-38853400D01*
X126100000Y-43400000D02*
X126100000Y-42649900D01*
X153699800Y-41749700D02*
X164100000Y-52149900D01*
X145100000Y-43400000D02*
X145100000Y-42649900D01*
%TO.N,R2*%
X125349000Y-20343300D02*
X124071200Y-21621100D01*
X124071200Y-21621100D02*
X118757800Y-16307700D01*
X145888300Y-20343300D02*
X125349000Y-20343300D01*
X161312000Y-20861900D02*
X147888000Y-20861900D01*
X145100000Y-24400000D02*
X145100000Y-23649900D01*
X164100000Y-23649900D02*
X161312000Y-20861900D01*
X147147500Y-21602400D02*
X145888300Y-20343300D01*
X147888000Y-20861900D02*
X147147500Y-21602400D01*
X124071200Y-21621100D02*
X126100000Y-23649900D01*
X116662100Y-8711300D02*
X115460000Y-7509200D01*
X115460000Y-7509200D02*
X115460000Y120000D01*
X164100000Y-24400000D02*
X164100000Y-23649900D01*
X108569800Y-24400000D02*
X107100000Y-24400000D01*
X116662100Y-16307700D02*
X108569800Y-24400000D01*
X126100000Y-24400000D02*
X126100000Y-23649900D01*
X147147500Y-21602400D02*
X145100000Y-23649900D01*
X118757800Y-16307700D02*
X116662100Y-16307700D01*
X116662100Y-16307700D02*
X116662100Y-8711300D01*
%TO.N,R1*%
X124066900Y-2616700D02*
X125343500Y-1340100D01*
X154876600Y-11779100D02*
X148189500Y-11779100D01*
X146006200Y-1519300D02*
X146006200Y-3743700D01*
X125343500Y-1340100D02*
X145827000Y-1340100D01*
X148189500Y-11779100D02*
X145100000Y-8689600D01*
X108000100Y-4799900D02*
X108000100Y-5400000D01*
X146006200Y-3743700D02*
X145100000Y-4649900D01*
X161255700Y-5400000D02*
X154876600Y-11779100D01*
X126100000Y-4649900D02*
X124066900Y-2616700D01*
X124066900Y-2616700D02*
X123208400Y-1758300D01*
X116730000Y-249900D02*
X116730000Y530600D01*
X115976000Y1284600D02*
X114084600Y1284600D01*
X114084600Y1284600D02*
X112920000Y120000D01*
X107100000Y-5400000D02*
X108000100Y-5400000D01*
X164100000Y-5400000D02*
X161255700Y-5400000D01*
X116730000Y530600D02*
X115976000Y1284600D01*
X112920000Y120000D02*
X108000100Y-4799900D01*
X126100000Y-5400000D02*
X126100000Y-4649900D01*
X145100000Y-8689600D02*
X145100000Y-5400000D01*
X118238400Y-1758300D02*
X116730000Y-249900D01*
X145827000Y-1340100D02*
X146006200Y-1519300D01*
X145100000Y-5400000D02*
X145100000Y-4649900D01*
X123208400Y-1758300D02*
X118238400Y-1758300D01*
%TO.N,RAW*%
X90320600Y-29904700D02*
X90320600Y-2159400D01*
X92035000Y-35250000D02*
X93085100Y-35250000D01*
X93085100Y-32669200D02*
X90320600Y-29904700D01*
X90320600Y-2159400D02*
X92600000Y120000D01*
X93085100Y-35250000D02*
X93085100Y-32669200D01*
%TO.N,RST*%
X135125000Y3400000D02*
X134049900Y3400000D01*
X100960000Y3400000D02*
X129875000Y3400000D01*
X134049900Y3400000D02*
X133604200Y3845700D01*
X97680000Y120000D02*
X100960000Y3400000D01*
X129875000Y3400000D02*
X130950100Y3400000D01*
X131395800Y3845700D02*
X130950100Y3400000D01*
X133604200Y3845700D02*
X131395800Y3845700D01*
%TO.N,BAT_P*%
X128500000Y-33500000D02*
X128500000Y-34400100D01*
X128500000Y-34400100D02*
X124650100Y-38250000D01*
X124650100Y-38250000D02*
X92035000Y-38250000D01*
%TD*%
M02*
