%TF.GenerationSoftware,KiCad,Pcbnew,8.0.6*%
%TF.CreationDate,2026-10-01T23:16:43-07:00*%
%TF.ProjectId,numpad,6e756d70-6164-42e6-9b69-6361645f7063,v1.0.0*%
%TF.SameCoordinates,Original*%
%TF.FileFunction,Copper,L1,Top*%
%TF.FilePolarity,Positive*%
%FSLAX46Y46*%
G04 Gerber Fmt 4.6, Leading zero omitted, Abs format (unit mm)*
G04 Created by KiCad (PCBNEW 8.0.6) date 2026-10-01 23:16:43*
%MOMM*%
%LPD*%
G01*
G04 APERTURE LIST*
G04 Aperture macros list*
%AMRoundRect*
0 Rectangle with rounded corners*
0 $1 Rounding radius*
0 $2 $3 $4 $5 $6 $7 $8 $9 X,Y pos of 4 corners*
0 Add a 4 corners polygon primitive as box body*
4,1,4,$2,$3,$4,$5,$6,$7,$8,$9,$2,$3,0*
0 Add four circle primitives for the rounded corners*
1,1,$1+$1,$2,$3*
1,1,$1+$1,$4,$5*
1,1,$1+$1,$6,$7*
1,1,$1+$1,$8,$9*
0 Add four rect primitives between the rounded corners*
20,1,$1+$1,$2,$3,$4,$5,0*
20,1,$1+$1,$4,$5,$6,$7,0*
20,1,$1+$1,$6,$7,$8,$9,0*
20,1,$1+$1,$8,$9,$2,$3,0*%
G04 Aperture macros list end*
%TA.AperFunction,SMDPad,CuDef*%
%ADD10RoundRect,0.237500X-0.287500X-0.237500X0.287500X-0.237500X0.287500X0.237500X-0.287500X0.237500X0*%
%TD*%
%TA.AperFunction,ComponentPad*%
%ADD11C,5.600000*%
%TD*%
%TA.AperFunction,ComponentPad*%
%ADD12C,3.500000*%
%TD*%
%TA.AperFunction,ComponentPad*%
%ADD13RoundRect,0.240000X0.635000X-0.360000X0.635000X0.360000X-0.635000X0.360000X-0.635000X-0.360000X0*%
%TD*%
%TA.AperFunction,ComponentPad*%
%ADD14O,1.750000X1.200000*%
%TD*%
%TA.AperFunction,ComponentPad*%
%ADD15C,1.700000*%
%TD*%
%TA.AperFunction,ViaPad*%
%ADD16C,0.600000*%
%TD*%
%TA.AperFunction,Conductor*%
%ADD17C,0.200000*%
%TD*%
G04 APERTURE END LIST*
D10*
%TO.P,LED1,1*%
%TO.N,LED_A*%
X127625000Y-71500000D03*
%TO.P,LED1,2*%
%TO.N,GND*%
X129375000Y-71500000D03*
%TD*%
D11*
%TO.P,S7,*%
%TO.N,*%
X119000000Y-62000000D03*
D12*
%TO.P,S7,1*%
%TO.N,C2*%
X114600000Y-66700000D03*
%TO.P,S7,2*%
%TO.N,c2_r4*%
X121600000Y-67750000D03*
%TD*%
D11*
%TO.P,S6,*%
%TO.N,*%
X119000000Y-81000000D03*
D12*
%TO.P,S6,1*%
%TO.N,C2*%
X114600000Y-85700000D03*
%TO.P,S6,2*%
%TO.N,c2_r5*%
X121600000Y-86750000D03*
%TD*%
D11*
%TO.P,S4,*%
%TO.N,*%
X100000000Y-24000000D03*
D12*
%TO.P,S4,1*%
%TO.N,C1*%
X95600000Y-28700000D03*
%TO.P,S4,2*%
%TO.N,c1_r2*%
X102600000Y-29750000D03*
%TD*%
D11*
%TO.P,S12,*%
%TO.N,*%
X138000000Y-81000000D03*
D12*
%TO.P,S12,1*%
%TO.N,C3*%
X133600000Y-85700000D03*
%TO.P,S12,2*%
%TO.N,c3_r5*%
X140600000Y-86750000D03*
%TD*%
D11*
%TO.P,S17,*%
%TO.N,*%
X157000000Y-24000000D03*
D12*
%TO.P,S17,1*%
%TO.N,C4*%
X152600000Y-28700000D03*
%TO.P,S17,2*%
%TO.N,c4_r2*%
X159600000Y-29750000D03*
%TD*%
D11*
%TO.P,S11,*%
%TO.N,*%
X138000000Y-100000000D03*
D12*
%TO.P,S11,1*%
%TO.N,C3*%
X133600000Y-104700000D03*
%TO.P,S11,2*%
%TO.N,c3_r6*%
X140600000Y-105750000D03*
%TD*%
D13*
%TO.P,JST1,1*%
%TO.N,GND*%
X128500000Y-31500000D03*
D14*
%TO.P,JST1,2*%
%TO.N,BAT_P*%
X128500000Y-33500000D03*
%TD*%
D11*
%TO.P,S9,*%
%TO.N,*%
X119000000Y-24000000D03*
D12*
%TO.P,S9,1*%
%TO.N,C2*%
X114600000Y-28700000D03*
%TO.P,S9,2*%
%TO.N,c2_r2*%
X121600000Y-29750000D03*
%TD*%
D11*
%TO.P,S10,*%
%TO.N,*%
X119000000Y-5000000D03*
D12*
%TO.P,S10,1*%
%TO.N,C2*%
X114600000Y-9700000D03*
%TO.P,S10,2*%
%TO.N,c2_r1*%
X121600000Y-10750000D03*
%TD*%
D11*
%TO.P,S19,*%
%TO.N,*%
X109500000Y-100000000D03*
D12*
%TO.P,S19,1*%
%TO.N,C1*%
X105100000Y-104700000D03*
%TO.P,S19,2*%
%TO.N,c1_r6*%
X112100000Y-105750000D03*
%TD*%
D11*
%TO.P,S3,*%
%TO.N,*%
X100000000Y-43000000D03*
D12*
%TO.P,S3,1*%
%TO.N,C1*%
X95600000Y-47700000D03*
%TO.P,S3,2*%
%TO.N,c1_r3*%
X102600000Y-48750000D03*
%TD*%
D11*
%TO.P,S8,*%
%TO.N,*%
X119000000Y-43000000D03*
D12*
%TO.P,S8,1*%
%TO.N,C2*%
X114600000Y-47700000D03*
%TO.P,S8,2*%
%TO.N,c2_r3*%
X121600000Y-48750000D03*
%TD*%
D11*
%TO.P,S21,*%
%TO.N,*%
X157000000Y-52500000D03*
D12*
%TO.P,S21,1*%
%TO.N,C4*%
X161700000Y-56900000D03*
%TO.P,S21,2*%
%TO.N,c4_r3*%
X162750000Y-49900000D03*
%TD*%
D11*
%TO.P,S20,*%
%TO.N,*%
X157000000Y-90500000D03*
D12*
%TO.P,S20,1*%
%TO.N,C4*%
X161700000Y-94900000D03*
%TO.P,S20,2*%
%TO.N,c4_r5*%
X162750000Y-87900000D03*
%TD*%
D11*
%TO.P,S14,*%
%TO.N,*%
X138000000Y-43000000D03*
D12*
%TO.P,S14,1*%
%TO.N,C3*%
X133600000Y-47700000D03*
%TO.P,S14,2*%
%TO.N,c3_r3*%
X140600000Y-48750000D03*
%TD*%
D11*
%TO.P,S15,*%
%TO.N,*%
X138000000Y-24000000D03*
D12*
%TO.P,S15,1*%
%TO.N,C3*%
X133600000Y-28700000D03*
%TO.P,S15,2*%
%TO.N,c3_r2*%
X140600000Y-29750000D03*
%TD*%
D11*
%TO.P,S1,*%
%TO.N,*%
X100000000Y-81000000D03*
D12*
%TO.P,S1,1*%
%TO.N,C1*%
X95600000Y-85700000D03*
%TO.P,S1,2*%
%TO.N,c1_r5*%
X102600000Y-86750000D03*
%TD*%
D11*
%TO.P,S2,*%
%TO.N,*%
X100000000Y-62000000D03*
D12*
%TO.P,S2,1*%
%TO.N,C1*%
X95600000Y-66700000D03*
%TO.P,S2,2*%
%TO.N,c1_r4*%
X102600000Y-67750000D03*
%TD*%
D11*
%TO.P,S18,*%
%TO.N,*%
X157000000Y-5000000D03*
D12*
%TO.P,S18,1*%
%TO.N,C4*%
X152600000Y-9700000D03*
%TO.P,S18,2*%
%TO.N,c4_r1*%
X159600000Y-10750000D03*
%TD*%
D11*
%TO.P,S13,*%
%TO.N,*%
X138000000Y-62000000D03*
D12*
%TO.P,S13,1*%
%TO.N,C3*%
X133600000Y-66700000D03*
%TO.P,S13,2*%
%TO.N,c3_r4*%
X140600000Y-67750000D03*
%TD*%
D15*
%TO.P,MCU1,1*%
%TO.N,P1*%
X129060000Y-550000D03*
%TO.P,MCU1,2*%
%TO.N,P0*%
X129060000Y-3090000D03*
%TO.P,MCU1,3*%
%TO.N,GND*%
X129060000Y-5630000D03*
%TO.P,MCU1,7*%
%TO.N,R2*%
X129060000Y-15790000D03*
%TO.P,MCU1,8*%
%TO.N,R3*%
X129060000Y-18330000D03*
%TO.P,MCU1,9*%
%TO.N,R4*%
X129060000Y-20870000D03*
%TO.P,MCU1,10*%
%TO.N,R5*%
X129060000Y-23410000D03*
%TO.P,MCU1,11*%
%TO.N,R6*%
X129060000Y-25950000D03*
%TO.P,MCU1,14*%
%TO.N,R1*%
X113820000Y-25950000D03*
%TO.P,MCU1,15*%
%TO.N,C4*%
X113820000Y-23410000D03*
%TO.P,MCU1,16*%
%TO.N,C3*%
X113820000Y-20870000D03*
%TO.P,MCU1,17*%
%TO.N,C2*%
X113820000Y-18330000D03*
%TO.P,MCU1,18*%
%TO.N,C1*%
X113820000Y-15790000D03*
%TO.P,MCU1,22*%
%TO.N,RST*%
X113820000Y-5630000D03*
%TO.P,MCU1,23*%
%TO.N,GND*%
X113820000Y-3090000D03*
%TO.P,MCU1,24*%
%TO.N,RAW*%
X113820000Y-550000D03*
%TD*%
D11*
%TO.P,S16,*%
%TO.N,*%
X138000000Y-5000000D03*
D12*
%TO.P,S16,1*%
%TO.N,C3*%
X133600000Y-9700000D03*
%TO.P,S16,2*%
%TO.N,c3_r1*%
X140600000Y-10750000D03*
%TD*%
D11*
%TO.P,S5,*%
%TO.N,*%
X100000000Y-5000000D03*
D12*
%TO.P,S5,1*%
%TO.N,C1*%
X95600000Y-9700000D03*
%TO.P,S5,2*%
%TO.N,c1_r1*%
X102600000Y-10750000D03*
%TD*%
D16*
%TO.N,R6*%
X130933000Y-79982700D03*
%TO.N,R5*%
X131535000Y-72146200D03*
%TO.N,P0*%
X127056000Y-67418800D03*
%TO.N,BAT_P*%
X130448000Y-1422600D03*
%TO.N,LED_A*%
X127625000Y-70518700D03*
%TD*%
D17*
%TO.N,C1*%
X95600000Y-28700000D02*
X95600000Y-47700000D01*
X95600000Y-66700000D02*
X95600000Y-85700000D01*
X95600000Y-47700000D02*
X95600000Y-66700000D01*
%TO.N,GND*%
X129534000Y604600D02*
X117515000Y604600D01*
X127863000Y-6827300D02*
X129060000Y-5630000D01*
X130152000Y-33152000D02*
X128500000Y-31500000D01*
X131089000Y-3600700D02*
X131089000Y-950400D01*
X131089000Y-950400D02*
X129534000Y604600D01*
X128500000Y-31500000D02*
X127863000Y-30862700D01*
X127863000Y-30862700D02*
X127863000Y-6827300D01*
X117515000Y604600D02*
X113820000Y-3090000D01*
X129060000Y-5630000D02*
X131089000Y-3600700D01*
X129375000Y-71500000D02*
X130152000Y-70723000D01*
X130152000Y-70723000D02*
X130152000Y-33152000D01*
%TO.N,C2*%
X114988000Y-17161500D02*
X114988000Y-10088500D01*
X114600000Y-28700000D02*
X114600000Y-47700000D01*
X114600000Y-47700000D02*
X114600000Y-66700000D01*
X114988000Y-10088500D02*
X114600000Y-9700000D01*
X114989000Y-19499200D02*
X114989000Y-28310800D01*
X113820000Y-18330000D02*
X114989000Y-19499200D01*
X113820000Y-18330000D02*
X114988000Y-17161500D01*
X114600000Y-66700000D02*
X114600000Y-85700000D01*
X114989000Y-28310800D02*
X114600000Y-28700000D01*
%TO.N,C3*%
X133600000Y-28700000D02*
X133600000Y-47700000D01*
X133600000Y-85700000D02*
X133600000Y-104700000D01*
X133600000Y-66700000D02*
X133600000Y-85700000D01*
X133600000Y-9700000D02*
X133600000Y-28700000D01*
X133600000Y-47700000D02*
X133600000Y-66700000D01*
%TO.N,C4*%
X160679000Y-55878900D02*
X161700000Y-56900000D01*
X161700000Y-56900000D02*
X162751000Y-57950900D01*
X152600000Y-28700000D02*
X154401000Y-28700000D01*
X162751000Y-83254700D02*
X160679000Y-85326700D01*
X160679000Y-85326700D02*
X160679000Y-93878900D01*
X162751000Y-57950900D02*
X162751000Y-83254700D01*
X162751000Y-45254400D02*
X160679000Y-47326700D01*
X160679000Y-47326700D02*
X160679000Y-55878900D01*
X162751000Y-37049900D02*
X162751000Y-45254400D01*
X154401000Y-28700000D02*
X162751000Y-37049900D01*
X160679000Y-93878900D02*
X161700000Y-94900000D01*
X152600000Y-9700000D02*
X152600000Y-28700000D01*
%TO.N,R6*%
X130933000Y-27823400D02*
X130933000Y-79982700D01*
X129060000Y-25950000D02*
X130933000Y-27823400D01*
%TO.N,R5*%
X131535000Y-25885000D02*
X131535000Y-72146200D01*
X129060000Y-23410000D02*
X131535000Y-25885000D01*
%TO.N,P0*%
X126841000Y-5309100D02*
X126841000Y-67203300D01*
X129060000Y-3090000D02*
X126841000Y-5309100D01*
X126841000Y-67203300D02*
X127056000Y-67418800D01*
%TO.N,BAT_P*%
X128500000Y-32599900D02*
X127825000Y-32599900D01*
X127825000Y-32599900D02*
X127303000Y-32077900D01*
X130448000Y-3406100D02*
X130448000Y-1422600D01*
X127303000Y-32077900D02*
X127303000Y-5739500D01*
X127303000Y-5739500D02*
X128682000Y-4360000D01*
X128682000Y-4360000D02*
X129494000Y-4360000D01*
X128500000Y-33500000D02*
X128500000Y-32599900D01*
X129494000Y-4360000D02*
X130448000Y-3406100D01*
%TO.N,LED_A*%
X127625000Y-70518700D02*
X127625000Y-71500000D01*
%TD*%
M02*
