0
SECTION
2
HEADER
9
$INSUNITS
70
4
0
ENDSEC
0
SECTION
2
TABLES
0
TABLE
2
LTYPE
0
LTYPE
72
65
70
64
2
CONTINUOUS
3
______
73
0
40
0
0
ENDTAB
0
TABLE
2
LAYER
0
ENDTAB
0
ENDSEC
0
SECTION
2
ENTITIES
0
LINE
8
0
10
90.25
20
-109.5
11
90.25
21
4.5
0
ARC
8
0
10
90.5
20
4.5
40
0.25
50
90
51
180
0
LINE
8
0
10
90.5
20
4.75
11
166.5
21
4.75
0
ARC
8
0
10
166.5
20
4.5
40
0.25
50
360
51
90
0
LINE
8
0
10
166.75
20
4.5
11
166.75
21
-109.5
0
ARC
8
0
10
166.5
20
-109.5
40
0.25
50
270
51
0
0
LINE
8
0
10
166.5
20
-109.75
11
90.5
21
-109.75
0
ARC
8
0
10
90.5
20
-109.5
40
0.25
50
180
51
270
0
CIRCLE
8
0
10
109.5
20
-33.5
40
1.1
0
CIRCLE
8
0
10
147.5
20
-14.5
40
1.1
0
CIRCLE
8
0
10
147.5
20
-71.5
40
1.1
0
CIRCLE
8
0
10
128.5
20
-90.5
40
1.1
0
CIRCLE
8
0
10
128.5
20
-52.5
40
1.1
0
ENDSEC
0
EOF