0
SECTION
2
HEADER
9
$INSUNITS
70
4
0
ENDSEC
0
SECTION
2
TABLES
0
TABLE
2
LTYPE
0
LTYPE
72
65
70
64
2
CONTINUOUS
3
______
73
0
40
0
0
ENDTAB
0
TABLE
2
LAYER
0
ENDTAB
0
ENDSEC
0
SECTION
2
ENTITIES
0
LINE
8
0
10
90
20
-109.5
11
90
21
4.5
0
ARC
8
0
10
90.5
20
4.5
40
0.5
50
90
51
180
0
LINE
8
0
10
90.5
20
5
11
166.5
21
5
0
ARC
8
0
10
166.5
20
4.5
40
0.5
50
0
51
90
0
LINE
8
0
10
167
20
4.5
11
167
21
-109.5
0
ARC
8
0
10
166.5
20
-109.5
40
0.5
50
270
51
360
0
LINE
8
0
10
166.5
20
-110
11
90.5
21
-110
0
ARC
8
0
10
90.5
20
-109.5
40
0.5
50
180
51
270
0
LINE
8
0
10
102.5
20
-107
11
116.5
21
-107
0
LINE
8
0
10
116.5
20
-107
11
116.5
21
-93
0
LINE
8
0
10
116.5
20
-93
11
102.5
21
-93
0
LINE
8
0
10
102.5
20
-93
11
102.5
21
-107
0
LINE
8
0
10
93
20
-88
11
107
21
-88
0
LINE
8
0
10
107
20
-88
11
107
21
-74
0
LINE
8
0
10
107
20
-74
11
93
21
-74
0
LINE
8
0
10
93
20
-74
11
93
21
-88
0
LINE
8
0
10
93
20
-69
11
107
21
-69
0
LINE
8
0
10
107
20
-69
11
107
21
-55
0
LINE
8
0
10
107
20
-55
11
93
21
-55
0
LINE
8
0
10
93
20
-55
11
93
21
-69
0
LINE
8
0
10
93
20
-50
11
107
21
-50
0
LINE
8
0
10
107
20
-50
11
107
21
-36
0
LINE
8
0
10
107
20
-36
11
93
21
-36
0
LINE
8
0
10
93
20
-36
11
93
21
-50
0
LINE
8
0
10
93
20
-31
11
107
21
-31
0
LINE
8
0
10
107
20
-31
11
107
21
-17
0
LINE
8
0
10
107
20
-17
11
93
21
-17
0
LINE
8
0
10
93
20
-17
11
93
21
-31
0
LINE
8
0
10
93
20
-12
11
107
21
-12
0
LINE
8
0
10
107
20
-12
11
107
21
2
0
LINE
8
0
10
107
20
2
11
93
21
2
0
LINE
8
0
10
93
20
2
11
93
21
-12
0
LINE
8
0
10
112
20
-88
11
126
21
-88
0
LINE
8
0
10
126
20
-88
11
126
21
-74
0
LINE
8
0
10
126
20
-74
11
112
21
-74
0
LINE
8
0
10
112
20
-74
11
112
21
-88
0
LINE
8
0
10
112
20
-69
11
126
21
-69
0
LINE
8
0
10
126
20
-69
11
126
21
-55
0
LINE
8
0
10
126
20
-55
11
112
21
-55
0
LINE
8
0
10
112
20
-55
11
112
21
-69
0
LINE
8
0
10
112
20
-50
11
126
21
-50
0
LINE
8
0
10
126
20
-50
11
126
21
-36
0
LINE
8
0
10
126
20
-36
11
112
21
-36
0
LINE
8
0
10
112
20
-36
11
112
21
-50
0
LINE
8
0
10
112
20
-31
11
126
21
-31
0
LINE
8
0
10
126
20
-31
11
126
21
-17
0
LINE
8
0
10
126
20
-17
11
112
21
-17
0
LINE
8
0
10
112
20
-17
11
112
21
-31
0
LINE
8
0
10
112
20
-12
11
126
21
-12
0
LINE
8
0
10
126
20
-12
11
126
21
2
0
LINE
8
0
10
126
20
2
11
112
21
2
0
LINE
8
0
10
112
20
2
11
112
21
-12
0
LINE
8
0
10
131
20
-107
11
145
21
-107
0
LINE
8
0
10
145
20
-107
11
145
21
-93
0
LINE
8
0
10
145
20
-93
11
131
21
-93
0
LINE
8
0
10
131
20
-93
11
131
21
-107
0
LINE
8
0
10
131
20
-88
11
145
21
-88
0
LINE
8
0
10
145
20
-88
11
145
21
-74
0
LINE
8
0
10
145
20
-74
11
131
21
-74
0
LINE
8
0
10
131
20
-74
11
131
21
-88
0
LINE
8
0
10
131
20
-69
11
145
21
-69
0
LINE
8
0
10
145
20
-69
11
145
21
-55
0
LINE
8
0
10
145
20
-55
11
131
21
-55
0
LINE
8
0
10
131
20
-55
11
131
21
-69
0
LINE
8
0
10
131
20
-50
11
145
21
-50
0
LINE
8
0
10
145
20
-50
11
145
21
-36
0
LINE
8
0
10
145
20
-36
11
131
21
-36
0
LINE
8
0
10
131
20
-36
11
131
21
-50
0
LINE
8
0
10
131
20
-31
11
145
21
-31
0
LINE
8
0
10
145
20
-31
11
145
21
-17
0
LINE
8
0
10
145
20
-17
11
131
21
-17
0
LINE
8
0
10
131
20
-17
11
131
21
-31
0
LINE
8
0
10
131
20
-12
11
145
21
-12
0
LINE
8
0
10
145
20
-12
11
145
21
2
0
LINE
8
0
10
145
20
2
11
131
21
2
0
LINE
8
0
10
131
20
2
11
131
21
-12
0
LINE
8
0
10
150
20
-97.5
11
164
21
-97.5
0
LINE
8
0
10
164
20
-97.5
11
164
21
-83.5
0
LINE
8
0
10
164
20
-83.5
11
150
21
-83.5
0
LINE
8
0
10
150
20
-83.5
11
150
21
-97.5
0
LINE
8
0
10
150
20
-59.5
11
164
21
-59.5
0
LINE
8
0
10
164
20
-59.5
11
164
21
-45.5
0
LINE
8
0
10
164
20
-45.5
11
150
21
-45.5
0
LINE
8
0
10
150
20
-45.5
11
150
21
-59.5
0
LINE
8
0
10
150
20
-31
11
164
21
-31
0
LINE
8
0
10
164
20
-31
11
164
21
-17
0
LINE
8
0
10
164
20
-17
11
150
21
-17
0
LINE
8
0
10
150
20
-17
11
150
21
-31
0
LINE
8
0
10
150
20
-12
11
164
21
-12
0
LINE
8
0
10
164
20
-12
11
164
21
2
0
LINE
8
0
10
164
20
2
11
150
21
2
0
LINE
8
0
10
150
20
2
11
150
21
-12
0
ENDSEC
0
EOF