%TF.GenerationSoftware,KiCad,Pcbnew,8.0.6*%
%TF.CreationDate,2026-10-04T18:26:51-07:00*%
%TF.ProjectId,numpad,6e756d70-6164-42e6-9b69-6361645f7063,v1.0.0*%
%TF.SameCoordinates,Original*%
%TF.FileFunction,Profile,NP*%
%FSLAX46Y46*%
G04 Gerber Fmt 4.6, Leading zero omitted, Abs format (unit mm)*
G04 Created by KiCad (PCBNEW 8.0.6) date 2026-10-04 18:26:51*
%MOMM*%
%LPD*%
G01*
G04 APERTURE LIST*
%TA.AperFunction,Profile*%
%ADD10C,0.150000*%
%TD*%
G04 APERTURE END LIST*
D10*
X162450000Y-105750000D02*
X162450000Y-99250000D01*
X147000000Y-105750000D02*
X162450000Y-105750000D01*
X118250000Y-92825000D02*
X118250000Y-105450000D01*
X90500000Y4750000D02*
X166500000Y4750000D01*
X166750000Y-109500000D02*
G75*
G02*
X166500000Y-109750000I-250000J0D01*
G01*
X162450000Y-81750000D02*
X162450000Y-75250000D01*
X90250000Y-109500000D02*
X90250000Y4500000D01*
X100750000Y-105450000D02*
X100750000Y-92825000D01*
X149825000Y-81750000D02*
X162450000Y-81750000D01*
X94250000Y-90000000D02*
X94250000Y-105450000D01*
X147000000Y-37250000D02*
X147000000Y-43750000D01*
X162450000Y-43750000D02*
X162450000Y-37250000D01*
X147000000Y-67750000D02*
X162450000Y-67750000D01*
X162450000Y-37250000D02*
X147000000Y-37250000D01*
X166500000Y-109750000D02*
X90500000Y-109750000D01*
X148225000Y-81750000D02*
X148225000Y-99250000D01*
X147000000Y-81750000D02*
X148225000Y-81750000D01*
X118250000Y-105450000D02*
X124750000Y-105450000D01*
X118250000Y-91225000D02*
X100750000Y-91225000D01*
X148225000Y-99250000D02*
X147000000Y-99250000D01*
X162450000Y-99250000D02*
X149825000Y-99250000D01*
X100750000Y-92825000D02*
X118250000Y-92825000D01*
X90250000Y4500000D02*
G75*
G02*
X90500000Y4750000I250000J0D01*
G01*
X100750000Y-90000000D02*
X94250000Y-90000000D01*
X124750000Y-105450000D02*
X124750000Y-90000000D01*
X162450000Y-67750000D02*
X162450000Y-61250000D01*
X147000000Y-99250000D02*
X147000000Y-105750000D01*
X148225000Y-61250000D02*
X147000000Y-61250000D01*
X100750000Y-91225000D02*
X100750000Y-90000000D01*
X149825000Y-43750000D02*
X162450000Y-43750000D01*
X90500000Y-109750000D02*
G75*
G02*
X90250000Y-109500000I0J250000D01*
G01*
X149825000Y-61250000D02*
X149825000Y-43750000D01*
X166500000Y4750000D02*
G75*
G02*
X166750000Y4500000I0J-250000D01*
G01*
X118250000Y-90000000D02*
X118250000Y-91225000D01*
X124750000Y-90000000D02*
X118250000Y-90000000D01*
X149825000Y-99250000D02*
X149825000Y-81750000D01*
X147000000Y-61250000D02*
X147000000Y-67750000D01*
X147000000Y-75250000D02*
X147000000Y-81750000D01*
X162450000Y-61250000D02*
X149825000Y-61250000D01*
X148225000Y-43750000D02*
X148225000Y-61250000D01*
X147000000Y-43750000D02*
X148225000Y-43750000D01*
X94250000Y-105450000D02*
X100750000Y-105450000D01*
X162450000Y-75250000D02*
X147000000Y-75250000D01*
X166750000Y4500000D02*
X166750000Y-109500000D01*
M02*
