%TF.GenerationSoftware,KiCad,Pcbnew,8.0.6*%
%TF.CreationDate,2026-10-04T18:26:51-07:00*%
%TF.ProjectId,numpad,6e756d70-6164-42e6-9b69-6361645f7063,v1.0.0*%
%TF.SameCoordinates,Original*%
%TF.FileFunction,Soldermask,Bot*%
%TF.FilePolarity,Negative*%
%FSLAX46Y46*%
G04 Gerber Fmt 4.6, Leading zero omitted, Abs format (unit mm)*
G04 Created by KiCad (PCBNEW 8.0.6) date 2026-10-04 18:26:51*
%MOMM*%
%LPD*%
G01*
G04 APERTURE LIST*
G04 Aperture macros list*
%AMRoundRect*
0 Rectangle with rounded corners*
0 $1 Rounding radius*
0 $2 $3 $4 $5 $6 $7 $8 $9 X,Y pos of 4 corners*
0 Add a 4 corners polygon primitive as box body*
4,1,4,$2,$3,$4,$5,$6,$7,$8,$9,$2,$3,0*
0 Add four circle primitives for the rounded corners*
1,1,$1+$1,$2,$3*
1,1,$1+$1,$4,$5*
1,1,$1+$1,$6,$7*
1,1,$1+$1,$8,$9*
0 Add four rect primitives between the rounded corners*
20,1,$1+$1,$2,$3,$4,$5,0*
20,1,$1+$1,$4,$5,$6,$7,0*
20,1,$1+$1,$6,$7,$8,$9,0*
20,1,$1+$1,$8,$9,$2,$3,0*%
G04 Aperture macros list end*
%ADD10C,2.300000*%
%ADD11RoundRect,0.250000X1.000000X-0.550000X1.000000X0.550000X-1.000000X0.550000X-1.000000X-0.550000X0*%
%ADD12C,5.700000*%
%ADD13RoundRect,0.250000X1.000000X-1.050000X1.000000X1.050000X-1.000000X1.050000X-1.000000X-1.050000X0*%
%ADD14C,3.600000*%
%ADD15RoundRect,0.250000X-1.050000X-1.000000X1.050000X-1.000000X1.050000X1.000000X-1.050000X1.000000X0*%
%ADD16C,1.800000*%
%ADD17RoundRect,0.050000X0.600000X-0.450000X0.600000X0.450000X-0.600000X0.450000X-0.600000X-0.450000X0*%
%ADD18RoundRect,0.260000X0.665000X-0.390000X0.665000X0.390000X-0.665000X0.390000X-0.665000X-0.390000X0*%
%ADD19O,1.850000X1.300000*%
%ADD20RoundRect,0.250000X-0.550000X-1.000000X0.550000X-1.000000X0.550000X1.000000X-0.550000X1.000000X0*%
%ADD21RoundRect,0.262500X-0.312500X-0.262500X0.312500X-0.262500X0.312500X0.262500X-0.312500X0.262500X0*%
%ADD22RoundRect,0.050000X-0.500000X-0.400000X0.500000X-0.400000X0.500000X0.400000X-0.500000X0.400000X0*%
%ADD23C,1.000000*%
%ADD24RoundRect,0.050000X-0.350000X-0.750000X0.350000X-0.750000X0.350000X0.750000X-0.350000X0.750000X0*%
%ADD25C,0.850000*%
%ADD26RoundRect,0.050000X0.775000X0.500000X-0.775000X0.500000X-0.775000X-0.500000X0.775000X-0.500000X0*%
G04 APERTURE END LIST*
D10*
%TO.C,MH5*%
X128500000Y-52500000D03*
%TD*%
%TO.C,MH3*%
X147500000Y-71500000D03*
%TD*%
%TO.C,MH4*%
X128500000Y-90500000D03*
%TD*%
%TO.C,MH2*%
X147500000Y-14500000D03*
%TD*%
%TO.C,MH1*%
X109500000Y-33500000D03*
%TD*%
D11*
%TO.C,S20*%
X161700000Y-98050000D03*
D12*
X157000000Y-90500000D03*
D13*
X162750000Y-84250000D03*
D14*
X161700000Y-94900000D03*
X162750000Y-87900000D03*
%TD*%
D15*
%TO.C,S10*%
X110950000Y-9700000D03*
D12*
X119000000Y-5000000D03*
D15*
X125250000Y-10750000D03*
D14*
X114600000Y-9700000D03*
X121600000Y-10750000D03*
%TD*%
D16*
%TO.C,MCU1*%
X129060000Y950000D03*
X129060000Y-1590000D03*
X129060000Y-4130000D03*
X129060000Y-14290000D03*
X129060000Y-16830000D03*
X129060000Y-19370000D03*
X129060000Y-21910000D03*
X129060000Y-24450000D03*
X113820000Y-24450000D03*
X113820000Y-21910000D03*
X113820000Y-19370000D03*
X113820000Y-16830000D03*
X113820000Y-14290000D03*
X113820000Y-4130000D03*
X113820000Y-1590000D03*
X113820000Y950000D03*
%TD*%
D17*
%TO.C,D6*%
X107100000Y-5400000D03*
X107100000Y-2100000D03*
%TD*%
D15*
%TO.C,S9*%
X110950000Y-28700000D03*
D12*
X119000000Y-24000000D03*
D15*
X125250000Y-29750000D03*
D14*
X114600000Y-28700000D03*
X121600000Y-29750000D03*
%TD*%
D17*
%TO.C,D8*%
X126100000Y-62400000D03*
X126100000Y-59100000D03*
%TD*%
%TO.C,D5*%
X107100000Y-24400000D03*
X107100000Y-21100000D03*
%TD*%
D15*
%TO.C,S7*%
X110950000Y-66700000D03*
D12*
X119000000Y-62000000D03*
D15*
X125250000Y-67750000D03*
D14*
X114600000Y-66700000D03*
X121600000Y-67750000D03*
%TD*%
D15*
%TO.C,S5*%
X91950000Y-9700000D03*
D12*
X100000000Y-5000000D03*
D15*
X106250000Y-10750000D03*
D14*
X95600000Y-9700000D03*
X102600000Y-10750000D03*
%TD*%
D17*
%TO.C,D1*%
X116600000Y-100400000D03*
X116600000Y-97100000D03*
%TD*%
D15*
%TO.C,S18*%
X148950000Y-9700000D03*
D12*
X157000000Y-5000000D03*
D15*
X163250000Y-10750000D03*
D14*
X152600000Y-9700000D03*
X159600000Y-10750000D03*
%TD*%
D17*
%TO.C,D18*%
X164100000Y-90900000D03*
X164100000Y-87600000D03*
%TD*%
D15*
%TO.C,S2*%
X91950000Y-66700000D03*
D12*
X100000000Y-62000000D03*
D15*
X106250000Y-67750000D03*
D14*
X95600000Y-66700000D03*
X102600000Y-67750000D03*
%TD*%
D17*
%TO.C,D13*%
X145100000Y-81400000D03*
X145100000Y-78100000D03*
%TD*%
%TO.C,D12*%
X145100000Y-100400000D03*
X145100000Y-97100000D03*
%TD*%
%TO.C,D10*%
X126100000Y-24400000D03*
X126100000Y-21100000D03*
%TD*%
%TO.C,D4*%
X107100000Y-43400000D03*
X107100000Y-40100000D03*
%TD*%
%TO.C,D11*%
X126100000Y-5400000D03*
X126100000Y-2100000D03*
%TD*%
D15*
%TO.C,S13*%
X129950000Y-66700000D03*
D12*
X138000000Y-62000000D03*
D15*
X144250000Y-67750000D03*
D14*
X133600000Y-66700000D03*
X140600000Y-67750000D03*
%TD*%
D15*
%TO.C,S16*%
X129950000Y-9700000D03*
D12*
X138000000Y-5000000D03*
D15*
X144250000Y-10750000D03*
D14*
X133600000Y-9700000D03*
X140600000Y-10750000D03*
%TD*%
D15*
%TO.C,S11*%
X129950000Y-104700000D03*
D12*
X138000000Y-100000000D03*
D15*
X144250000Y-105750000D03*
D14*
X133600000Y-104700000D03*
X140600000Y-105750000D03*
%TD*%
D17*
%TO.C,D2*%
X107100000Y-81400000D03*
X107100000Y-78100000D03*
%TD*%
%TO.C,D9*%
X126100000Y-43400000D03*
X126100000Y-40100000D03*
%TD*%
D15*
%TO.C,S17*%
X148950000Y-28700000D03*
D12*
X157000000Y-24000000D03*
D15*
X163250000Y-29750000D03*
D14*
X152600000Y-28700000D03*
X159600000Y-29750000D03*
%TD*%
D15*
%TO.C,S6*%
X110950000Y-85700000D03*
D12*
X119000000Y-81000000D03*
D15*
X125250000Y-86750000D03*
D14*
X114600000Y-85700000D03*
X121600000Y-86750000D03*
%TD*%
D18*
%TO.C,JST1*%
X128500000Y-31500000D03*
D19*
X128500000Y-33500000D03*
%TD*%
D20*
%TO.C,S19*%
X101950000Y-104700000D03*
D12*
X109500000Y-100000000D03*
D15*
X115750000Y-105750000D03*
D14*
X105100000Y-104700000D03*
X112100000Y-105750000D03*
%TD*%
D21*
%TO.C,R1*%
X129375000Y-71500000D03*
X127625000Y-71500000D03*
%TD*%
D15*
%TO.C,S8*%
X110950000Y-47700000D03*
D12*
X119000000Y-43000000D03*
D15*
X125250000Y-48750000D03*
D14*
X114600000Y-47700000D03*
X121600000Y-48750000D03*
%TD*%
D15*
%TO.C,S3*%
X91950000Y-47700000D03*
D12*
X100000000Y-43000000D03*
D15*
X106250000Y-48750000D03*
D14*
X95600000Y-47700000D03*
X102600000Y-48750000D03*
%TD*%
D17*
%TO.C,D19*%
X164100000Y-52900000D03*
X164100000Y-49600000D03*
%TD*%
%TO.C,D16*%
X145100000Y-24400000D03*
X145100000Y-21100000D03*
%TD*%
D15*
%TO.C,S1*%
X91950000Y-85700000D03*
D12*
X100000000Y-81000000D03*
D15*
X106250000Y-86750000D03*
D14*
X95600000Y-85700000D03*
X102600000Y-86750000D03*
%TD*%
D17*
%TO.C,D17*%
X145100000Y-5400000D03*
X145100000Y-2100000D03*
%TD*%
%TO.C,D14*%
X145100000Y-62400000D03*
X145100000Y-59100000D03*
%TD*%
%TO.C,D7*%
X126100000Y-81400000D03*
X126100000Y-78100000D03*
%TD*%
%TO.C,D15*%
X145100000Y-43400000D03*
X145100000Y-40100000D03*
%TD*%
D15*
%TO.C,S14*%
X129950000Y-47700000D03*
D12*
X138000000Y-43000000D03*
D15*
X144250000Y-48750000D03*
D14*
X133600000Y-47700000D03*
X140600000Y-48750000D03*
%TD*%
D11*
%TO.C,S21*%
X161700000Y-60050000D03*
D12*
X157000000Y-52500000D03*
D13*
X162750000Y-46250000D03*
D14*
X161700000Y-56900000D03*
X162750000Y-49900000D03*
%TD*%
D17*
%TO.C,D21*%
X164100000Y-5400000D03*
X164100000Y-2100000D03*
%TD*%
D22*
%TO.C,PWR1*%
X144850000Y1870000D03*
X152150000Y1870000D03*
D23*
X147000000Y2980000D03*
X150000000Y2980000D03*
D22*
X144850000Y4080000D03*
X152150000Y4080000D03*
D24*
X146250000Y1220000D03*
X149250000Y1220000D03*
X150750000Y1220000D03*
%TD*%
D17*
%TO.C,D20*%
X164100000Y-24400000D03*
X164100000Y-21100000D03*
%TD*%
%TO.C,D3*%
X107100000Y-62400000D03*
X107100000Y-59100000D03*
%TD*%
D15*
%TO.C,S4*%
X91950000Y-28700000D03*
D12*
X100000000Y-24000000D03*
D15*
X106250000Y-29750000D03*
D14*
X95600000Y-28700000D03*
X102600000Y-29750000D03*
%TD*%
D15*
%TO.C,S12*%
X129950000Y-85700000D03*
D12*
X138000000Y-81000000D03*
D15*
X144250000Y-86750000D03*
D14*
X133600000Y-85700000D03*
X140600000Y-86750000D03*
%TD*%
D25*
%TO.C,RST1*%
X137200000Y3875000D03*
X137200000Y1125000D03*
D26*
X134575000Y3350000D03*
X134575000Y1650000D03*
X139825000Y3350000D03*
X139825000Y1650000D03*
%TD*%
D15*
%TO.C,S15*%
X129950000Y-28700000D03*
D12*
X138000000Y-24000000D03*
D15*
X144250000Y-29750000D03*
D14*
X133600000Y-28700000D03*
X140600000Y-29750000D03*
%TD*%
M02*
