%TF.GenerationSoftware,KiCad,Pcbnew,8.0.6*%
%TF.CreationDate,2026-10-01T23:16:43-07:00*%
%TF.ProjectId,numpad,6e756d70-6164-42e6-9b69-6361645f7063,v1.0.0*%
%TF.SameCoordinates,Original*%
%TF.FileFunction,Legend,Bot*%
%TF.FilePolarity,Positive*%
%FSLAX46Y46*%
G04 Gerber Fmt 4.6, Leading zero omitted, Abs format (unit mm)*
G04 Created by KiCad (PCBNEW 8.0.6) date 2026-10-01 23:16:43*
%MOMM*%
%LPD*%
G01*
G04 APERTURE LIST*
G04 Aperture macros list*
%AMRoundRect*
0 Rectangle with rounded corners*
0 $1 Rounding radius*
0 $2 $3 $4 $5 $6 $7 $8 $9 X,Y pos of 4 corners*
0 Add a 4 corners polygon primitive as box body*
4,1,4,$2,$3,$4,$5,$6,$7,$8,$9,$2,$3,0*
0 Add four circle primitives for the rounded corners*
1,1,$1+$1,$2,$3*
1,1,$1+$1,$4,$5*
1,1,$1+$1,$6,$7*
1,1,$1+$1,$8,$9*
0 Add four rect primitives between the rounded corners*
20,1,$1+$1,$2,$3,$4,$5,0*
20,1,$1+$1,$4,$5,$6,$7,0*
20,1,$1+$1,$6,$7,$8,$9,0*
20,1,$1+$1,$8,$9,$2,$3,0*%
G04 Aperture macros list end*
%ADD10C,0.150000*%
%ADD11C,0.100000*%
%ADD12C,0.120000*%
%ADD13C,2.300000*%
%ADD14RoundRect,0.250000X-1.050000X-1.000000X1.050000X-1.000000X1.050000X1.000000X-1.050000X1.000000X0*%
%ADD15C,5.700000*%
%ADD16C,3.600000*%
%ADD17RoundRect,0.050000X0.600000X-0.450000X0.600000X0.450000X-0.600000X0.450000X-0.600000X-0.450000X0*%
%ADD18RoundRect,0.260000X0.665000X-0.390000X0.665000X0.390000X-0.665000X0.390000X-0.665000X-0.390000X0*%
%ADD19O,1.850000X1.300000*%
%ADD20C,0.850000*%
%ADD21RoundRect,0.050000X0.775000X0.500000X-0.775000X0.500000X-0.775000X-0.500000X0.775000X-0.500000X0*%
%ADD22RoundRect,0.250000X-0.550000X-1.000000X0.550000X-1.000000X0.550000X1.000000X-0.550000X1.000000X0*%
%ADD23RoundRect,0.262500X-0.312500X-0.262500X0.312500X-0.262500X0.312500X0.262500X-0.312500X0.262500X0*%
%ADD24RoundRect,0.050000X-0.500000X-0.400000X0.500000X-0.400000X0.500000X0.400000X-0.500000X0.400000X0*%
%ADD25C,1.000000*%
%ADD26RoundRect,0.050000X-0.350000X-0.750000X0.350000X-0.750000X0.350000X0.750000X-0.350000X0.750000X0*%
%ADD27RoundRect,0.250000X1.000000X-0.550000X1.000000X0.550000X-1.000000X0.550000X-1.000000X-0.550000X0*%
%ADD28RoundRect,0.250000X1.000000X-1.050000X1.000000X1.050000X-1.000000X1.050000X-1.000000X-1.050000X0*%
%ADD29C,1.800000*%
G04 APERTURE END LIST*
D10*
X160880953Y-28954819D02*
X160976191Y-29145295D01*
X160452382Y-29954819D02*
X160452382Y-28954819D01*
X160452382Y-28954819D02*
X159880954Y-29954819D01*
X159880954Y-29954819D02*
X159880954Y-28954819D01*
X159261906Y-29954819D02*
X159357144Y-29907200D01*
X159357144Y-29907200D02*
X159404763Y-29859580D01*
X159404763Y-29859580D02*
X159452382Y-29764342D01*
X159452382Y-29764342D02*
X159452382Y-29478628D01*
X159452382Y-29478628D02*
X159404763Y-29383390D01*
X159404763Y-29383390D02*
X159357144Y-29335771D01*
X159357144Y-29335771D02*
X159261906Y-29288152D01*
X159261906Y-29288152D02*
X159119049Y-29288152D01*
X159119049Y-29288152D02*
X159023811Y-29335771D01*
X159023811Y-29335771D02*
X158976192Y-29383390D01*
X158976192Y-29383390D02*
X158928573Y-29478628D01*
X158928573Y-29478628D02*
X158928573Y-29764342D01*
X158928573Y-29764342D02*
X158976192Y-29859580D01*
X158976192Y-29859580D02*
X159023811Y-29907200D01*
X159023811Y-29907200D02*
X159119049Y-29954819D01*
X159119049Y-29954819D02*
X159261906Y-29954819D01*
X158642858Y-29288152D02*
X158261906Y-29288152D01*
X158500001Y-28954819D02*
X158500001Y-29811961D01*
X158500001Y-29811961D02*
X158452382Y-29907200D01*
X158452382Y-29907200D02*
X158357144Y-29954819D01*
X158357144Y-29954819D02*
X158261906Y-29954819D01*
X156738096Y-29954819D02*
X156738096Y-29431009D01*
X156738096Y-29431009D02*
X156785715Y-29335771D01*
X156785715Y-29335771D02*
X156880953Y-29288152D01*
X156880953Y-29288152D02*
X157071429Y-29288152D01*
X157071429Y-29288152D02*
X157166667Y-29335771D01*
X156738096Y-29907200D02*
X156833334Y-29954819D01*
X156833334Y-29954819D02*
X157071429Y-29954819D01*
X157071429Y-29954819D02*
X157166667Y-29907200D01*
X157166667Y-29907200D02*
X157214286Y-29811961D01*
X157214286Y-29811961D02*
X157214286Y-29716723D01*
X157214286Y-29716723D02*
X157166667Y-29621485D01*
X157166667Y-29621485D02*
X157071429Y-29573866D01*
X157071429Y-29573866D02*
X156833334Y-29573866D01*
X156833334Y-29573866D02*
X156738096Y-29526247D01*
X156261905Y-29954819D02*
X156261905Y-28954819D01*
X156261905Y-29335771D02*
X156166667Y-29288152D01*
X156166667Y-29288152D02*
X155976191Y-29288152D01*
X155976191Y-29288152D02*
X155880953Y-29335771D01*
X155880953Y-29335771D02*
X155833334Y-29383390D01*
X155833334Y-29383390D02*
X155785715Y-29478628D01*
X155785715Y-29478628D02*
X155785715Y-29764342D01*
X155785715Y-29764342D02*
X155833334Y-29859580D01*
X155833334Y-29859580D02*
X155880953Y-29907200D01*
X155880953Y-29907200D02*
X155976191Y-29954819D01*
X155976191Y-29954819D02*
X156166667Y-29954819D01*
X156166667Y-29954819D02*
X156261905Y-29907200D01*
X155214286Y-29954819D02*
X155309524Y-29907200D01*
X155309524Y-29907200D02*
X155357143Y-29859580D01*
X155357143Y-29859580D02*
X155404762Y-29764342D01*
X155404762Y-29764342D02*
X155404762Y-29478628D01*
X155404762Y-29478628D02*
X155357143Y-29383390D01*
X155357143Y-29383390D02*
X155309524Y-29335771D01*
X155309524Y-29335771D02*
X155214286Y-29288152D01*
X155214286Y-29288152D02*
X155071429Y-29288152D01*
X155071429Y-29288152D02*
X154976191Y-29335771D01*
X154976191Y-29335771D02*
X154928572Y-29383390D01*
X154928572Y-29383390D02*
X154880953Y-29478628D01*
X154880953Y-29478628D02*
X154880953Y-29764342D01*
X154880953Y-29764342D02*
X154928572Y-29859580D01*
X154928572Y-29859580D02*
X154976191Y-29907200D01*
X154976191Y-29907200D02*
X155071429Y-29954819D01*
X155071429Y-29954819D02*
X155214286Y-29954819D01*
X154023810Y-29288152D02*
X154023810Y-29954819D01*
X154452381Y-29288152D02*
X154452381Y-29811961D01*
X154452381Y-29811961D02*
X154404762Y-29907200D01*
X154404762Y-29907200D02*
X154309524Y-29954819D01*
X154309524Y-29954819D02*
X154166667Y-29954819D01*
X154166667Y-29954819D02*
X154071429Y-29907200D01*
X154071429Y-29907200D02*
X154023810Y-29859580D01*
X153690476Y-29288152D02*
X153309524Y-29288152D01*
X153547619Y-28954819D02*
X153547619Y-29811961D01*
X153547619Y-29811961D02*
X153500000Y-29907200D01*
X153500000Y-29907200D02*
X153404762Y-29954819D01*
X153404762Y-29954819D02*
X153309524Y-29954819D01*
X152214285Y-29954819D02*
X152214285Y-29288152D01*
X152214285Y-29383390D02*
X152166666Y-29335771D01*
X152166666Y-29335771D02*
X152071428Y-29288152D01*
X152071428Y-29288152D02*
X151928571Y-29288152D01*
X151928571Y-29288152D02*
X151833333Y-29335771D01*
X151833333Y-29335771D02*
X151785714Y-29431009D01*
X151785714Y-29431009D02*
X151785714Y-29954819D01*
X151785714Y-29431009D02*
X151738095Y-29335771D01*
X151738095Y-29335771D02*
X151642857Y-29288152D01*
X151642857Y-29288152D02*
X151500000Y-29288152D01*
X151500000Y-29288152D02*
X151404761Y-29335771D01*
X151404761Y-29335771D02*
X151357142Y-29431009D01*
X151357142Y-29431009D02*
X151357142Y-29954819D01*
X150738095Y-29954819D02*
X150833333Y-29907200D01*
X150833333Y-29907200D02*
X150880952Y-29859580D01*
X150880952Y-29859580D02*
X150928571Y-29764342D01*
X150928571Y-29764342D02*
X150928571Y-29478628D01*
X150928571Y-29478628D02*
X150880952Y-29383390D01*
X150880952Y-29383390D02*
X150833333Y-29335771D01*
X150833333Y-29335771D02*
X150738095Y-29288152D01*
X150738095Y-29288152D02*
X150595238Y-29288152D01*
X150595238Y-29288152D02*
X150500000Y-29335771D01*
X150500000Y-29335771D02*
X150452381Y-29383390D01*
X150452381Y-29383390D02*
X150404762Y-29478628D01*
X150404762Y-29478628D02*
X150404762Y-29764342D01*
X150404762Y-29764342D02*
X150452381Y-29859580D01*
X150452381Y-29859580D02*
X150500000Y-29907200D01*
X150500000Y-29907200D02*
X150595238Y-29954819D01*
X150595238Y-29954819D02*
X150738095Y-29954819D01*
X149976190Y-29288152D02*
X149976190Y-29954819D01*
X149976190Y-29383390D02*
X149928571Y-29335771D01*
X149928571Y-29335771D02*
X149833333Y-29288152D01*
X149833333Y-29288152D02*
X149690476Y-29288152D01*
X149690476Y-29288152D02*
X149595238Y-29335771D01*
X149595238Y-29335771D02*
X149547619Y-29431009D01*
X149547619Y-29431009D02*
X149547619Y-29954819D01*
X148690476Y-29907200D02*
X148785714Y-29954819D01*
X148785714Y-29954819D02*
X148976190Y-29954819D01*
X148976190Y-29954819D02*
X149071428Y-29907200D01*
X149071428Y-29907200D02*
X149119047Y-29811961D01*
X149119047Y-29811961D02*
X149119047Y-29431009D01*
X149119047Y-29431009D02*
X149071428Y-29335771D01*
X149071428Y-29335771D02*
X148976190Y-29288152D01*
X148976190Y-29288152D02*
X148785714Y-29288152D01*
X148785714Y-29288152D02*
X148690476Y-29335771D01*
X148690476Y-29335771D02*
X148642857Y-29431009D01*
X148642857Y-29431009D02*
X148642857Y-29526247D01*
X148642857Y-29526247D02*
X149119047Y-29621485D01*
X148309523Y-29288152D02*
X148071428Y-29954819D01*
X147833333Y-29288152D02*
X148071428Y-29954819D01*
X148071428Y-29954819D02*
X148166666Y-30192914D01*
X148166666Y-30192914D02*
X148214285Y-30240533D01*
X148214285Y-30240533D02*
X148309523Y-30288152D01*
X147404761Y-28954819D02*
X147499999Y-29145295D01*
X146309523Y-29288152D02*
X146071428Y-29954819D01*
X146071428Y-29954819D02*
X145833333Y-29288152D01*
X145261904Y-28954819D02*
X145166666Y-28954819D01*
X145166666Y-28954819D02*
X145071428Y-29002438D01*
X145071428Y-29002438D02*
X145023809Y-29050057D01*
X145023809Y-29050057D02*
X144976190Y-29145295D01*
X144976190Y-29145295D02*
X144928571Y-29335771D01*
X144928571Y-29335771D02*
X144928571Y-29573866D01*
X144928571Y-29573866D02*
X144976190Y-29764342D01*
X144976190Y-29764342D02*
X145023809Y-29859580D01*
X145023809Y-29859580D02*
X145071428Y-29907200D01*
X145071428Y-29907200D02*
X145166666Y-29954819D01*
X145166666Y-29954819D02*
X145261904Y-29954819D01*
X145261904Y-29954819D02*
X145357142Y-29907200D01*
X145357142Y-29907200D02*
X145404761Y-29859580D01*
X145404761Y-29859580D02*
X145452380Y-29764342D01*
X145452380Y-29764342D02*
X145499999Y-29573866D01*
X145499999Y-29573866D02*
X145499999Y-29335771D01*
X145499999Y-29335771D02*
X145452380Y-29145295D01*
X145452380Y-29145295D02*
X145404761Y-29050057D01*
X145404761Y-29050057D02*
X145357142Y-29002438D01*
X145357142Y-29002438D02*
X145261904Y-28954819D01*
X144499999Y-29859580D02*
X144452380Y-29907200D01*
X144452380Y-29907200D02*
X144499999Y-29954819D01*
X144499999Y-29954819D02*
X144547618Y-29907200D01*
X144547618Y-29907200D02*
X144499999Y-29859580D01*
X144499999Y-29859580D02*
X144499999Y-29954819D01*
X143500000Y-29954819D02*
X144071428Y-29954819D01*
X143785714Y-29954819D02*
X143785714Y-28954819D01*
X143785714Y-28954819D02*
X143880952Y-29097676D01*
X143880952Y-29097676D02*
X143976190Y-29192914D01*
X143976190Y-29192914D02*
X144071428Y-29240533D01*
X142309523Y-29954819D02*
X142309523Y-28954819D01*
X142309523Y-29335771D02*
X142214285Y-29288152D01*
X142214285Y-29288152D02*
X142023809Y-29288152D01*
X142023809Y-29288152D02*
X141928571Y-29335771D01*
X141928571Y-29335771D02*
X141880952Y-29383390D01*
X141880952Y-29383390D02*
X141833333Y-29478628D01*
X141833333Y-29478628D02*
X141833333Y-29764342D01*
X141833333Y-29764342D02*
X141880952Y-29859580D01*
X141880952Y-29859580D02*
X141928571Y-29907200D01*
X141928571Y-29907200D02*
X142023809Y-29954819D01*
X142023809Y-29954819D02*
X142214285Y-29954819D01*
X142214285Y-29954819D02*
X142309523Y-29907200D01*
X141499999Y-29288152D02*
X141261904Y-29954819D01*
X141023809Y-29288152D02*
X141261904Y-29954819D01*
X141261904Y-29954819D02*
X141357142Y-30192914D01*
X141357142Y-30192914D02*
X141404761Y-30240533D01*
X141404761Y-30240533D02*
X141499999Y-30288152D01*
X139452380Y-29907200D02*
X139547618Y-29954819D01*
X139547618Y-29954819D02*
X139738094Y-29954819D01*
X139738094Y-29954819D02*
X139833332Y-29907200D01*
X139833332Y-29907200D02*
X139880951Y-29859580D01*
X139880951Y-29859580D02*
X139928570Y-29764342D01*
X139928570Y-29764342D02*
X139928570Y-29478628D01*
X139928570Y-29478628D02*
X139880951Y-29383390D01*
X139880951Y-29383390D02*
X139833332Y-29335771D01*
X139833332Y-29335771D02*
X139738094Y-29288152D01*
X139738094Y-29288152D02*
X139547618Y-29288152D01*
X139547618Y-29288152D02*
X139452380Y-29335771D01*
X138642856Y-29907200D02*
X138738094Y-29954819D01*
X138738094Y-29954819D02*
X138928570Y-29954819D01*
X138928570Y-29954819D02*
X139023808Y-29907200D01*
X139023808Y-29907200D02*
X139071427Y-29811961D01*
X139071427Y-29811961D02*
X139071427Y-29431009D01*
X139071427Y-29431009D02*
X139023808Y-29335771D01*
X139023808Y-29335771D02*
X138928570Y-29288152D01*
X138928570Y-29288152D02*
X138738094Y-29288152D01*
X138738094Y-29288152D02*
X138642856Y-29335771D01*
X138642856Y-29335771D02*
X138595237Y-29431009D01*
X138595237Y-29431009D02*
X138595237Y-29526247D01*
X138595237Y-29526247D02*
X139071427Y-29621485D01*
X138023808Y-29954819D02*
X138119046Y-29907200D01*
X138119046Y-29907200D02*
X138166665Y-29859580D01*
X138166665Y-29859580D02*
X138214284Y-29764342D01*
X138214284Y-29764342D02*
X138214284Y-29478628D01*
X138214284Y-29478628D02*
X138166665Y-29383390D01*
X138166665Y-29383390D02*
X138119046Y-29335771D01*
X138119046Y-29335771D02*
X138023808Y-29288152D01*
X138023808Y-29288152D02*
X137880951Y-29288152D01*
X137880951Y-29288152D02*
X137785713Y-29335771D01*
X137785713Y-29335771D02*
X137738094Y-29383390D01*
X137738094Y-29383390D02*
X137690475Y-29478628D01*
X137690475Y-29478628D02*
X137690475Y-29764342D01*
X137690475Y-29764342D02*
X137738094Y-29859580D01*
X137738094Y-29859580D02*
X137785713Y-29907200D01*
X137785713Y-29907200D02*
X137880951Y-29954819D01*
X137880951Y-29954819D02*
X138023808Y-29954819D01*
X137119046Y-29954819D02*
X137214284Y-29907200D01*
X137214284Y-29907200D02*
X137261903Y-29811961D01*
X137261903Y-29811961D02*
X137261903Y-28954819D01*
X136595236Y-29954819D02*
X136690474Y-29907200D01*
X136690474Y-29907200D02*
X136738093Y-29859580D01*
X136738093Y-29859580D02*
X136785712Y-29764342D01*
X136785712Y-29764342D02*
X136785712Y-29478628D01*
X136785712Y-29478628D02*
X136738093Y-29383390D01*
X136738093Y-29383390D02*
X136690474Y-29335771D01*
X136690474Y-29335771D02*
X136595236Y-29288152D01*
X136595236Y-29288152D02*
X136452379Y-29288152D01*
X136452379Y-29288152D02*
X136357141Y-29335771D01*
X136357141Y-29335771D02*
X136309522Y-29383390D01*
X136309522Y-29383390D02*
X136261903Y-29478628D01*
X136261903Y-29478628D02*
X136261903Y-29764342D01*
X136261903Y-29764342D02*
X136309522Y-29859580D01*
X136309522Y-29859580D02*
X136357141Y-29907200D01*
X136357141Y-29907200D02*
X136452379Y-29954819D01*
X136452379Y-29954819D02*
X136595236Y-29954819D01*
X135833331Y-29954819D02*
X135833331Y-29288152D01*
X135833331Y-28954819D02*
X135880950Y-29002438D01*
X135880950Y-29002438D02*
X135833331Y-29050057D01*
X135833331Y-29050057D02*
X135785712Y-29002438D01*
X135785712Y-29002438D02*
X135833331Y-28954819D01*
X135833331Y-28954819D02*
X135833331Y-29050057D01*
X134928570Y-29954819D02*
X134928570Y-28954819D01*
X134928570Y-29907200D02*
X135023808Y-29954819D01*
X135023808Y-29954819D02*
X135214284Y-29954819D01*
X135214284Y-29954819D02*
X135309522Y-29907200D01*
X135309522Y-29907200D02*
X135357141Y-29859580D01*
X135357141Y-29859580D02*
X135404760Y-29764342D01*
X135404760Y-29764342D02*
X135404760Y-29478628D01*
X135404760Y-29478628D02*
X135357141Y-29383390D01*
X135357141Y-29383390D02*
X135309522Y-29335771D01*
X135309522Y-29335771D02*
X135214284Y-29288152D01*
X135214284Y-29288152D02*
X135023808Y-29288152D01*
X135023808Y-29288152D02*
X134928570Y-29335771D01*
X134071427Y-29907200D02*
X134166665Y-29954819D01*
X134166665Y-29954819D02*
X134357141Y-29954819D01*
X134357141Y-29954819D02*
X134452379Y-29907200D01*
X134452379Y-29907200D02*
X134499998Y-29811961D01*
X134499998Y-29811961D02*
X134499998Y-29431009D01*
X134499998Y-29431009D02*
X134452379Y-29335771D01*
X134452379Y-29335771D02*
X134357141Y-29288152D01*
X134357141Y-29288152D02*
X134166665Y-29288152D01*
X134166665Y-29288152D02*
X134071427Y-29335771D01*
X134071427Y-29335771D02*
X134023808Y-29431009D01*
X134023808Y-29431009D02*
X134023808Y-29526247D01*
X134023808Y-29526247D02*
X134499998Y-29621485D01*
X152119048Y-66454819D02*
X152119048Y-67169104D01*
X152119048Y-67169104D02*
X152166667Y-67311961D01*
X152166667Y-67311961D02*
X152261905Y-67407200D01*
X152261905Y-67407200D02*
X152404762Y-67454819D01*
X152404762Y-67454819D02*
X152500000Y-67454819D01*
X151166667Y-67454819D02*
X151642857Y-67454819D01*
X151642857Y-67454819D02*
X151642857Y-66454819D01*
X150261905Y-67359580D02*
X150309524Y-67407200D01*
X150309524Y-67407200D02*
X150452381Y-67454819D01*
X150452381Y-67454819D02*
X150547619Y-67454819D01*
X150547619Y-67454819D02*
X150690476Y-67407200D01*
X150690476Y-67407200D02*
X150785714Y-67311961D01*
X150785714Y-67311961D02*
X150833333Y-67216723D01*
X150833333Y-67216723D02*
X150880952Y-67026247D01*
X150880952Y-67026247D02*
X150880952Y-66883390D01*
X150880952Y-66883390D02*
X150833333Y-66692914D01*
X150833333Y-66692914D02*
X150785714Y-66597676D01*
X150785714Y-66597676D02*
X150690476Y-66502438D01*
X150690476Y-66502438D02*
X150547619Y-66454819D01*
X150547619Y-66454819D02*
X150452381Y-66454819D01*
X150452381Y-66454819D02*
X150309524Y-66502438D01*
X150309524Y-66502438D02*
X150261905Y-66550057D01*
X149547619Y-66454819D02*
X149547619Y-67169104D01*
X149547619Y-67169104D02*
X149595238Y-67311961D01*
X149595238Y-67311961D02*
X149690476Y-67407200D01*
X149690476Y-67407200D02*
X149833333Y-67454819D01*
X149833333Y-67454819D02*
X149928571Y-67454819D01*
X148595238Y-67454819D02*
X149071428Y-67454819D01*
X149071428Y-67454819D02*
X149071428Y-66454819D01*
X147690476Y-67359580D02*
X147738095Y-67407200D01*
X147738095Y-67407200D02*
X147880952Y-67454819D01*
X147880952Y-67454819D02*
X147976190Y-67454819D01*
X147976190Y-67454819D02*
X148119047Y-67407200D01*
X148119047Y-67407200D02*
X148214285Y-67311961D01*
X148214285Y-67311961D02*
X148261904Y-67216723D01*
X148261904Y-67216723D02*
X148309523Y-67026247D01*
X148309523Y-67026247D02*
X148309523Y-66883390D01*
X148309523Y-66883390D02*
X148261904Y-66692914D01*
X148261904Y-66692914D02*
X148214285Y-66597676D01*
X148214285Y-66597676D02*
X148119047Y-66502438D01*
X148119047Y-66502438D02*
X147976190Y-66454819D01*
X147976190Y-66454819D02*
X147880952Y-66454819D01*
X147880952Y-66454819D02*
X147738095Y-66502438D01*
X147738095Y-66502438D02*
X147690476Y-66550057D01*
X146976190Y-66454819D02*
X146976190Y-67169104D01*
X146976190Y-67169104D02*
X147023809Y-67311961D01*
X147023809Y-67311961D02*
X147119047Y-67407200D01*
X147119047Y-67407200D02*
X147261904Y-67454819D01*
X147261904Y-67454819D02*
X147357142Y-67454819D01*
X146023809Y-67454819D02*
X146499999Y-67454819D01*
X146499999Y-67454819D02*
X146499999Y-66454819D01*
X145119047Y-67359580D02*
X145166666Y-67407200D01*
X145166666Y-67407200D02*
X145309523Y-67454819D01*
X145309523Y-67454819D02*
X145404761Y-67454819D01*
X145404761Y-67454819D02*
X145547618Y-67407200D01*
X145547618Y-67407200D02*
X145642856Y-67311961D01*
X145642856Y-67311961D02*
X145690475Y-67216723D01*
X145690475Y-67216723D02*
X145738094Y-67026247D01*
X145738094Y-67026247D02*
X145738094Y-66883390D01*
X145738094Y-66883390D02*
X145690475Y-66692914D01*
X145690475Y-66692914D02*
X145642856Y-66597676D01*
X145642856Y-66597676D02*
X145547618Y-66502438D01*
X145547618Y-66502438D02*
X145404761Y-66454819D01*
X145404761Y-66454819D02*
X145309523Y-66454819D01*
X145309523Y-66454819D02*
X145166666Y-66502438D01*
X145166666Y-66502438D02*
X145119047Y-66550057D01*
X144404761Y-66454819D02*
X144404761Y-67169104D01*
X144404761Y-67169104D02*
X144452380Y-67311961D01*
X144452380Y-67311961D02*
X144547618Y-67407200D01*
X144547618Y-67407200D02*
X144690475Y-67454819D01*
X144690475Y-67454819D02*
X144785713Y-67454819D01*
X143452380Y-67454819D02*
X143928570Y-67454819D01*
X143928570Y-67454819D02*
X143928570Y-66454819D01*
X142547618Y-67359580D02*
X142595237Y-67407200D01*
X142595237Y-67407200D02*
X142738094Y-67454819D01*
X142738094Y-67454819D02*
X142833332Y-67454819D01*
X142833332Y-67454819D02*
X142976189Y-67407200D01*
X142976189Y-67407200D02*
X143071427Y-67311961D01*
X143071427Y-67311961D02*
X143119046Y-67216723D01*
X143119046Y-67216723D02*
X143166665Y-67026247D01*
X143166665Y-67026247D02*
X143166665Y-66883390D01*
X143166665Y-66883390D02*
X143119046Y-66692914D01*
X143119046Y-66692914D02*
X143071427Y-66597676D01*
X143071427Y-66597676D02*
X142976189Y-66502438D01*
X142976189Y-66502438D02*
X142833332Y-66454819D01*
X142833332Y-66454819D02*
X142738094Y-66454819D01*
X142738094Y-66454819D02*
X142595237Y-66502438D01*
X142595237Y-66502438D02*
X142547618Y-66550057D01*
X142954819Y3574047D02*
X142954819Y3383571D01*
X142954819Y3383571D02*
X143002438Y3288333D01*
X143002438Y3288333D02*
X143097676Y3193095D01*
X143097676Y3193095D02*
X143288152Y3145476D01*
X143288152Y3145476D02*
X143621485Y3145476D01*
X143621485Y3145476D02*
X143811961Y3193095D01*
X143811961Y3193095D02*
X143907200Y3288333D01*
X143907200Y3288333D02*
X143954819Y3383571D01*
X143954819Y3383571D02*
X143954819Y3574047D01*
X143954819Y3574047D02*
X143907200Y3669285D01*
X143907200Y3669285D02*
X143811961Y3764523D01*
X143811961Y3764523D02*
X143621485Y3812142D01*
X143621485Y3812142D02*
X143288152Y3812142D01*
X143288152Y3812142D02*
X143097676Y3764523D01*
X143097676Y3764523D02*
X143002438Y3669285D01*
X143002438Y3669285D02*
X142954819Y3574047D01*
X143954819Y2716904D02*
X142954819Y2716904D01*
X142954819Y2716904D02*
X143954819Y2145476D01*
X143954819Y2145476D02*
X142954819Y2145476D01*
X152954819Y3907380D02*
X152954819Y3716904D01*
X152954819Y3716904D02*
X153002438Y3621666D01*
X153002438Y3621666D02*
X153097676Y3526428D01*
X153097676Y3526428D02*
X153288152Y3478809D01*
X153288152Y3478809D02*
X153621485Y3478809D01*
X153621485Y3478809D02*
X153811961Y3526428D01*
X153811961Y3526428D02*
X153907200Y3621666D01*
X153907200Y3621666D02*
X153954819Y3716904D01*
X153954819Y3716904D02*
X153954819Y3907380D01*
X153954819Y3907380D02*
X153907200Y4002618D01*
X153907200Y4002618D02*
X153811961Y4097856D01*
X153811961Y4097856D02*
X153621485Y4145475D01*
X153621485Y4145475D02*
X153288152Y4145475D01*
X153288152Y4145475D02*
X153097676Y4097856D01*
X153097676Y4097856D02*
X153002438Y4002618D01*
X153002438Y4002618D02*
X152954819Y3907380D01*
X153431009Y2716904D02*
X153431009Y3050237D01*
X153954819Y3050237D02*
X152954819Y3050237D01*
X152954819Y3050237D02*
X152954819Y2574047D01*
X153431009Y1859761D02*
X153431009Y2193094D01*
X153954819Y2193094D02*
X152954819Y2193094D01*
X152954819Y2193094D02*
X152954819Y1716904D01*
X117517618Y-481009D02*
X117374761Y-528628D01*
X117374761Y-528628D02*
X117327142Y-576247D01*
X117327142Y-576247D02*
X117279523Y-671485D01*
X117279523Y-671485D02*
X117279523Y-814342D01*
X117279523Y-814342D02*
X117327142Y-909580D01*
X117327142Y-909580D02*
X117374761Y-957200D01*
X117374761Y-957200D02*
X117469999Y-1004819D01*
X117469999Y-1004819D02*
X117850951Y-1004819D01*
X117850951Y-1004819D02*
X117850951Y-4819D01*
X117850951Y-4819D02*
X117517618Y-4819D01*
X117517618Y-4819D02*
X117422380Y-52438D01*
X117422380Y-52438D02*
X117374761Y-100057D01*
X117374761Y-100057D02*
X117327142Y-195295D01*
X117327142Y-195295D02*
X117327142Y-290533D01*
X117327142Y-290533D02*
X117374761Y-385771D01*
X117374761Y-385771D02*
X117422380Y-433390D01*
X117422380Y-433390D02*
X117517618Y-481009D01*
X117517618Y-481009D02*
X117850951Y-481009D01*
X116850951Y-623866D02*
X116089047Y-623866D01*
X116469999Y-1004819D02*
X116469999Y-242914D01*
X117136666Y-16149580D02*
X117184285Y-16197200D01*
X117184285Y-16197200D02*
X117327142Y-16244819D01*
X117327142Y-16244819D02*
X117422380Y-16244819D01*
X117422380Y-16244819D02*
X117565237Y-16197200D01*
X117565237Y-16197200D02*
X117660475Y-16101961D01*
X117660475Y-16101961D02*
X117708094Y-16006723D01*
X117708094Y-16006723D02*
X117755713Y-15816247D01*
X117755713Y-15816247D02*
X117755713Y-15673390D01*
X117755713Y-15673390D02*
X117708094Y-15482914D01*
X117708094Y-15482914D02*
X117660475Y-15387676D01*
X117660475Y-15387676D02*
X117565237Y-15292438D01*
X117565237Y-15292438D02*
X117422380Y-15244819D01*
X117422380Y-15244819D02*
X117327142Y-15244819D01*
X117327142Y-15244819D02*
X117184285Y-15292438D01*
X117184285Y-15292438D02*
X117136666Y-15340057D01*
X116184285Y-16244819D02*
X116755713Y-16244819D01*
X116469999Y-16244819D02*
X116469999Y-15244819D01*
X116469999Y-15244819D02*
X116565237Y-15387676D01*
X116565237Y-15387676D02*
X116660475Y-15482914D01*
X116660475Y-15482914D02*
X116755713Y-15530533D01*
X126076666Y-26404819D02*
X126409999Y-25928628D01*
X126648094Y-26404819D02*
X126648094Y-25404819D01*
X126648094Y-25404819D02*
X126267142Y-25404819D01*
X126267142Y-25404819D02*
X126171904Y-25452438D01*
X126171904Y-25452438D02*
X126124285Y-25500057D01*
X126124285Y-25500057D02*
X126076666Y-25595295D01*
X126076666Y-25595295D02*
X126076666Y-25738152D01*
X126076666Y-25738152D02*
X126124285Y-25833390D01*
X126124285Y-25833390D02*
X126171904Y-25881009D01*
X126171904Y-25881009D02*
X126267142Y-25928628D01*
X126267142Y-25928628D02*
X126648094Y-25928628D01*
X125219523Y-25404819D02*
X125409999Y-25404819D01*
X125409999Y-25404819D02*
X125505237Y-25452438D01*
X125505237Y-25452438D02*
X125552856Y-25500057D01*
X125552856Y-25500057D02*
X125648094Y-25642914D01*
X125648094Y-25642914D02*
X125695713Y-25833390D01*
X125695713Y-25833390D02*
X125695713Y-26214342D01*
X125695713Y-26214342D02*
X125648094Y-26309580D01*
X125648094Y-26309580D02*
X125600475Y-26357200D01*
X125600475Y-26357200D02*
X125505237Y-26404819D01*
X125505237Y-26404819D02*
X125314761Y-26404819D01*
X125314761Y-26404819D02*
X125219523Y-26357200D01*
X125219523Y-26357200D02*
X125171904Y-26309580D01*
X125171904Y-26309580D02*
X125124285Y-26214342D01*
X125124285Y-26214342D02*
X125124285Y-25976247D01*
X125124285Y-25976247D02*
X125171904Y-25881009D01*
X125171904Y-25881009D02*
X125219523Y-25833390D01*
X125219523Y-25833390D02*
X125314761Y-25785771D01*
X125314761Y-25785771D02*
X125505237Y-25785771D01*
X125505237Y-25785771D02*
X125600475Y-25833390D01*
X125600475Y-25833390D02*
X125648094Y-25881009D01*
X125648094Y-25881009D02*
X125695713Y-25976247D01*
X126076666Y-16244819D02*
X126409999Y-15768628D01*
X126648094Y-16244819D02*
X126648094Y-15244819D01*
X126648094Y-15244819D02*
X126267142Y-15244819D01*
X126267142Y-15244819D02*
X126171904Y-15292438D01*
X126171904Y-15292438D02*
X126124285Y-15340057D01*
X126124285Y-15340057D02*
X126076666Y-15435295D01*
X126076666Y-15435295D02*
X126076666Y-15578152D01*
X126076666Y-15578152D02*
X126124285Y-15673390D01*
X126124285Y-15673390D02*
X126171904Y-15721009D01*
X126171904Y-15721009D02*
X126267142Y-15768628D01*
X126267142Y-15768628D02*
X126648094Y-15768628D01*
X125695713Y-15340057D02*
X125648094Y-15292438D01*
X125648094Y-15292438D02*
X125552856Y-15244819D01*
X125552856Y-15244819D02*
X125314761Y-15244819D01*
X125314761Y-15244819D02*
X125219523Y-15292438D01*
X125219523Y-15292438D02*
X125171904Y-15340057D01*
X125171904Y-15340057D02*
X125124285Y-15435295D01*
X125124285Y-15435295D02*
X125124285Y-15530533D01*
X125124285Y-15530533D02*
X125171904Y-15673390D01*
X125171904Y-15673390D02*
X125743332Y-16244819D01*
X125743332Y-16244819D02*
X125124285Y-16244819D01*
X117136666Y-21229580D02*
X117184285Y-21277200D01*
X117184285Y-21277200D02*
X117327142Y-21324819D01*
X117327142Y-21324819D02*
X117422380Y-21324819D01*
X117422380Y-21324819D02*
X117565237Y-21277200D01*
X117565237Y-21277200D02*
X117660475Y-21181961D01*
X117660475Y-21181961D02*
X117708094Y-21086723D01*
X117708094Y-21086723D02*
X117755713Y-20896247D01*
X117755713Y-20896247D02*
X117755713Y-20753390D01*
X117755713Y-20753390D02*
X117708094Y-20562914D01*
X117708094Y-20562914D02*
X117660475Y-20467676D01*
X117660475Y-20467676D02*
X117565237Y-20372438D01*
X117565237Y-20372438D02*
X117422380Y-20324819D01*
X117422380Y-20324819D02*
X117327142Y-20324819D01*
X117327142Y-20324819D02*
X117184285Y-20372438D01*
X117184285Y-20372438D02*
X117136666Y-20420057D01*
X116803332Y-20324819D02*
X116184285Y-20324819D01*
X116184285Y-20324819D02*
X116517618Y-20705771D01*
X116517618Y-20705771D02*
X116374761Y-20705771D01*
X116374761Y-20705771D02*
X116279523Y-20753390D01*
X116279523Y-20753390D02*
X116231904Y-20801009D01*
X116231904Y-20801009D02*
X116184285Y-20896247D01*
X116184285Y-20896247D02*
X116184285Y-21134342D01*
X116184285Y-21134342D02*
X116231904Y-21229580D01*
X116231904Y-21229580D02*
X116279523Y-21277200D01*
X116279523Y-21277200D02*
X116374761Y-21324819D01*
X116374761Y-21324819D02*
X116660475Y-21324819D01*
X116660475Y-21324819D02*
X116755713Y-21277200D01*
X116755713Y-21277200D02*
X116803332Y-21229580D01*
X117136666Y-23769580D02*
X117184285Y-23817200D01*
X117184285Y-23817200D02*
X117327142Y-23864819D01*
X117327142Y-23864819D02*
X117422380Y-23864819D01*
X117422380Y-23864819D02*
X117565237Y-23817200D01*
X117565237Y-23817200D02*
X117660475Y-23721961D01*
X117660475Y-23721961D02*
X117708094Y-23626723D01*
X117708094Y-23626723D02*
X117755713Y-23436247D01*
X117755713Y-23436247D02*
X117755713Y-23293390D01*
X117755713Y-23293390D02*
X117708094Y-23102914D01*
X117708094Y-23102914D02*
X117660475Y-23007676D01*
X117660475Y-23007676D02*
X117565237Y-22912438D01*
X117565237Y-22912438D02*
X117422380Y-22864819D01*
X117422380Y-22864819D02*
X117327142Y-22864819D01*
X117327142Y-22864819D02*
X117184285Y-22912438D01*
X117184285Y-22912438D02*
X117136666Y-22960057D01*
X116279523Y-23198152D02*
X116279523Y-23864819D01*
X116517618Y-22817200D02*
X116755713Y-23531485D01*
X116755713Y-23531485D02*
X116136666Y-23531485D01*
X126171904Y-5132438D02*
X126267142Y-5084819D01*
X126267142Y-5084819D02*
X126409999Y-5084819D01*
X126409999Y-5084819D02*
X126552856Y-5132438D01*
X126552856Y-5132438D02*
X126648094Y-5227676D01*
X126648094Y-5227676D02*
X126695713Y-5322914D01*
X126695713Y-5322914D02*
X126743332Y-5513390D01*
X126743332Y-5513390D02*
X126743332Y-5656247D01*
X126743332Y-5656247D02*
X126695713Y-5846723D01*
X126695713Y-5846723D02*
X126648094Y-5941961D01*
X126648094Y-5941961D02*
X126552856Y-6037200D01*
X126552856Y-6037200D02*
X126409999Y-6084819D01*
X126409999Y-6084819D02*
X126314761Y-6084819D01*
X126314761Y-6084819D02*
X126171904Y-6037200D01*
X126171904Y-6037200D02*
X126124285Y-5989580D01*
X126124285Y-5989580D02*
X126124285Y-5656247D01*
X126124285Y-5656247D02*
X126314761Y-5656247D01*
X125695713Y-6084819D02*
X125695713Y-5084819D01*
X125695713Y-5084819D02*
X125124285Y-6084819D01*
X125124285Y-6084819D02*
X125124285Y-5084819D01*
X126076666Y-23864819D02*
X126409999Y-23388628D01*
X126648094Y-23864819D02*
X126648094Y-22864819D01*
X126648094Y-22864819D02*
X126267142Y-22864819D01*
X126267142Y-22864819D02*
X126171904Y-22912438D01*
X126171904Y-22912438D02*
X126124285Y-22960057D01*
X126124285Y-22960057D02*
X126076666Y-23055295D01*
X126076666Y-23055295D02*
X126076666Y-23198152D01*
X126076666Y-23198152D02*
X126124285Y-23293390D01*
X126124285Y-23293390D02*
X126171904Y-23341009D01*
X126171904Y-23341009D02*
X126267142Y-23388628D01*
X126267142Y-23388628D02*
X126648094Y-23388628D01*
X125171904Y-22864819D02*
X125648094Y-22864819D01*
X125648094Y-22864819D02*
X125695713Y-23341009D01*
X125695713Y-23341009D02*
X125648094Y-23293390D01*
X125648094Y-23293390D02*
X125552856Y-23245771D01*
X125552856Y-23245771D02*
X125314761Y-23245771D01*
X125314761Y-23245771D02*
X125219523Y-23293390D01*
X125219523Y-23293390D02*
X125171904Y-23341009D01*
X125171904Y-23341009D02*
X125124285Y-23436247D01*
X125124285Y-23436247D02*
X125124285Y-23674342D01*
X125124285Y-23674342D02*
X125171904Y-23769580D01*
X125171904Y-23769580D02*
X125219523Y-23817200D01*
X125219523Y-23817200D02*
X125314761Y-23864819D01*
X125314761Y-23864819D02*
X125552856Y-23864819D01*
X125552856Y-23864819D02*
X125648094Y-23817200D01*
X125648094Y-23817200D02*
X125695713Y-23769580D01*
X117136666Y-26404819D02*
X117469999Y-25928628D01*
X117708094Y-26404819D02*
X117708094Y-25404819D01*
X117708094Y-25404819D02*
X117327142Y-25404819D01*
X117327142Y-25404819D02*
X117231904Y-25452438D01*
X117231904Y-25452438D02*
X117184285Y-25500057D01*
X117184285Y-25500057D02*
X117136666Y-25595295D01*
X117136666Y-25595295D02*
X117136666Y-25738152D01*
X117136666Y-25738152D02*
X117184285Y-25833390D01*
X117184285Y-25833390D02*
X117231904Y-25881009D01*
X117231904Y-25881009D02*
X117327142Y-25928628D01*
X117327142Y-25928628D02*
X117708094Y-25928628D01*
X116184285Y-26404819D02*
X116755713Y-26404819D01*
X116469999Y-26404819D02*
X116469999Y-25404819D01*
X116469999Y-25404819D02*
X116565237Y-25547676D01*
X116565237Y-25547676D02*
X116660475Y-25642914D01*
X116660475Y-25642914D02*
X116755713Y-25690533D01*
X117922380Y-7624819D02*
X117589047Y-8624819D01*
X117589047Y-8624819D02*
X117255714Y-7624819D01*
X116922380Y-8243866D02*
X116160476Y-8243866D01*
X116541428Y-8624819D02*
X116541428Y-7862914D01*
X117231904Y-2592438D02*
X117327142Y-2544819D01*
X117327142Y-2544819D02*
X117469999Y-2544819D01*
X117469999Y-2544819D02*
X117612856Y-2592438D01*
X117612856Y-2592438D02*
X117708094Y-2687676D01*
X117708094Y-2687676D02*
X117755713Y-2782914D01*
X117755713Y-2782914D02*
X117803332Y-2973390D01*
X117803332Y-2973390D02*
X117803332Y-3116247D01*
X117803332Y-3116247D02*
X117755713Y-3306723D01*
X117755713Y-3306723D02*
X117708094Y-3401961D01*
X117708094Y-3401961D02*
X117612856Y-3497200D01*
X117612856Y-3497200D02*
X117469999Y-3544819D01*
X117469999Y-3544819D02*
X117374761Y-3544819D01*
X117374761Y-3544819D02*
X117231904Y-3497200D01*
X117231904Y-3497200D02*
X117184285Y-3449580D01*
X117184285Y-3449580D02*
X117184285Y-3116247D01*
X117184285Y-3116247D02*
X117374761Y-3116247D01*
X116755713Y-3544819D02*
X116755713Y-2544819D01*
X116755713Y-2544819D02*
X116184285Y-3544819D01*
X116184285Y-3544819D02*
X116184285Y-2544819D01*
X126076666Y-18784819D02*
X126409999Y-18308628D01*
X126648094Y-18784819D02*
X126648094Y-17784819D01*
X126648094Y-17784819D02*
X126267142Y-17784819D01*
X126267142Y-17784819D02*
X126171904Y-17832438D01*
X126171904Y-17832438D02*
X126124285Y-17880057D01*
X126124285Y-17880057D02*
X126076666Y-17975295D01*
X126076666Y-17975295D02*
X126076666Y-18118152D01*
X126076666Y-18118152D02*
X126124285Y-18213390D01*
X126124285Y-18213390D02*
X126171904Y-18261009D01*
X126171904Y-18261009D02*
X126267142Y-18308628D01*
X126267142Y-18308628D02*
X126648094Y-18308628D01*
X125743332Y-17784819D02*
X125124285Y-17784819D01*
X125124285Y-17784819D02*
X125457618Y-18165771D01*
X125457618Y-18165771D02*
X125314761Y-18165771D01*
X125314761Y-18165771D02*
X125219523Y-18213390D01*
X125219523Y-18213390D02*
X125171904Y-18261009D01*
X125171904Y-18261009D02*
X125124285Y-18356247D01*
X125124285Y-18356247D02*
X125124285Y-18594342D01*
X125124285Y-18594342D02*
X125171904Y-18689580D01*
X125171904Y-18689580D02*
X125219523Y-18737200D01*
X125219523Y-18737200D02*
X125314761Y-18784819D01*
X125314761Y-18784819D02*
X125600475Y-18784819D01*
X125600475Y-18784819D02*
X125695713Y-18737200D01*
X125695713Y-18737200D02*
X125743332Y-18689580D01*
X126171904Y-7672438D02*
X126267142Y-7624819D01*
X126267142Y-7624819D02*
X126409999Y-7624819D01*
X126409999Y-7624819D02*
X126552856Y-7672438D01*
X126552856Y-7672438D02*
X126648094Y-7767676D01*
X126648094Y-7767676D02*
X126695713Y-7862914D01*
X126695713Y-7862914D02*
X126743332Y-8053390D01*
X126743332Y-8053390D02*
X126743332Y-8196247D01*
X126743332Y-8196247D02*
X126695713Y-8386723D01*
X126695713Y-8386723D02*
X126648094Y-8481961D01*
X126648094Y-8481961D02*
X126552856Y-8577200D01*
X126552856Y-8577200D02*
X126409999Y-8624819D01*
X126409999Y-8624819D02*
X126314761Y-8624819D01*
X126314761Y-8624819D02*
X126171904Y-8577200D01*
X126171904Y-8577200D02*
X126124285Y-8529580D01*
X126124285Y-8529580D02*
X126124285Y-8196247D01*
X126124285Y-8196247D02*
X126314761Y-8196247D01*
X125695713Y-8624819D02*
X125695713Y-7624819D01*
X125695713Y-7624819D02*
X125124285Y-8624819D01*
X125124285Y-8624819D02*
X125124285Y-7624819D01*
X117136666Y-6084819D02*
X117469999Y-5608628D01*
X117708094Y-6084819D02*
X117708094Y-5084819D01*
X117708094Y-5084819D02*
X117327142Y-5084819D01*
X117327142Y-5084819D02*
X117231904Y-5132438D01*
X117231904Y-5132438D02*
X117184285Y-5180057D01*
X117184285Y-5180057D02*
X117136666Y-5275295D01*
X117136666Y-5275295D02*
X117136666Y-5418152D01*
X117136666Y-5418152D02*
X117184285Y-5513390D01*
X117184285Y-5513390D02*
X117231904Y-5561009D01*
X117231904Y-5561009D02*
X117327142Y-5608628D01*
X117327142Y-5608628D02*
X117708094Y-5608628D01*
X116755713Y-6037200D02*
X116612856Y-6084819D01*
X116612856Y-6084819D02*
X116374761Y-6084819D01*
X116374761Y-6084819D02*
X116279523Y-6037200D01*
X116279523Y-6037200D02*
X116231904Y-5989580D01*
X116231904Y-5989580D02*
X116184285Y-5894342D01*
X116184285Y-5894342D02*
X116184285Y-5799104D01*
X116184285Y-5799104D02*
X116231904Y-5703866D01*
X116231904Y-5703866D02*
X116279523Y-5656247D01*
X116279523Y-5656247D02*
X116374761Y-5608628D01*
X116374761Y-5608628D02*
X116565237Y-5561009D01*
X116565237Y-5561009D02*
X116660475Y-5513390D01*
X116660475Y-5513390D02*
X116708094Y-5465771D01*
X116708094Y-5465771D02*
X116755713Y-5370533D01*
X116755713Y-5370533D02*
X116755713Y-5275295D01*
X116755713Y-5275295D02*
X116708094Y-5180057D01*
X116708094Y-5180057D02*
X116660475Y-5132438D01*
X116660475Y-5132438D02*
X116565237Y-5084819D01*
X116565237Y-5084819D02*
X116327142Y-5084819D01*
X116327142Y-5084819D02*
X116184285Y-5132438D01*
X117136666Y-18689580D02*
X117184285Y-18737200D01*
X117184285Y-18737200D02*
X117327142Y-18784819D01*
X117327142Y-18784819D02*
X117422380Y-18784819D01*
X117422380Y-18784819D02*
X117565237Y-18737200D01*
X117565237Y-18737200D02*
X117660475Y-18641961D01*
X117660475Y-18641961D02*
X117708094Y-18546723D01*
X117708094Y-18546723D02*
X117755713Y-18356247D01*
X117755713Y-18356247D02*
X117755713Y-18213390D01*
X117755713Y-18213390D02*
X117708094Y-18022914D01*
X117708094Y-18022914D02*
X117660475Y-17927676D01*
X117660475Y-17927676D02*
X117565237Y-17832438D01*
X117565237Y-17832438D02*
X117422380Y-17784819D01*
X117422380Y-17784819D02*
X117327142Y-17784819D01*
X117327142Y-17784819D02*
X117184285Y-17832438D01*
X117184285Y-17832438D02*
X117136666Y-17880057D01*
X116755713Y-17880057D02*
X116708094Y-17832438D01*
X116708094Y-17832438D02*
X116612856Y-17784819D01*
X116612856Y-17784819D02*
X116374761Y-17784819D01*
X116374761Y-17784819D02*
X116279523Y-17832438D01*
X116279523Y-17832438D02*
X116231904Y-17880057D01*
X116231904Y-17880057D02*
X116184285Y-17975295D01*
X116184285Y-17975295D02*
X116184285Y-18070533D01*
X116184285Y-18070533D02*
X116231904Y-18213390D01*
X116231904Y-18213390D02*
X116803332Y-18784819D01*
X116803332Y-18784819D02*
X116184285Y-18784819D01*
X126076666Y-21324819D02*
X126409999Y-20848628D01*
X126648094Y-21324819D02*
X126648094Y-20324819D01*
X126648094Y-20324819D02*
X126267142Y-20324819D01*
X126267142Y-20324819D02*
X126171904Y-20372438D01*
X126171904Y-20372438D02*
X126124285Y-20420057D01*
X126124285Y-20420057D02*
X126076666Y-20515295D01*
X126076666Y-20515295D02*
X126076666Y-20658152D01*
X126076666Y-20658152D02*
X126124285Y-20753390D01*
X126124285Y-20753390D02*
X126171904Y-20801009D01*
X126171904Y-20801009D02*
X126267142Y-20848628D01*
X126267142Y-20848628D02*
X126648094Y-20848628D01*
X125219523Y-20658152D02*
X125219523Y-21324819D01*
X125457618Y-20277200D02*
X125695713Y-20991485D01*
X125695713Y-20991485D02*
X125076666Y-20991485D01*
D11*
%TO.C,D15*%
X144700000Y-41500000D02*
X145500000Y-41500000D01*
X145100000Y-41500000D02*
X145100000Y-41000000D01*
X145100000Y-42100000D02*
X144550000Y-42100000D01*
X145100000Y-42100000D02*
X144700000Y-41500000D01*
X145100000Y-42100000D02*
X145650000Y-42100000D01*
X145100000Y-42500000D02*
X145100000Y-42100000D01*
X145500000Y-41500000D02*
X145100000Y-42100000D01*
%TO.C,D8*%
X125700000Y-60500000D02*
X126500000Y-60500000D01*
X126100000Y-60500000D02*
X126100000Y-60000000D01*
X126100000Y-61100000D02*
X125550000Y-61100000D01*
X126100000Y-61100000D02*
X125700000Y-60500000D01*
X126100000Y-61100000D02*
X126650000Y-61100000D01*
X126100000Y-61500000D02*
X126100000Y-61100000D01*
X126500000Y-60500000D02*
X126100000Y-61100000D01*
%TO.C,D4*%
X106700000Y-41500000D02*
X107500000Y-41500000D01*
X107100000Y-41500000D02*
X107100000Y-41000000D01*
X107100000Y-42100000D02*
X106550000Y-42100000D01*
X107100000Y-42100000D02*
X106700000Y-41500000D01*
X107100000Y-42100000D02*
X107650000Y-42100000D01*
X107100000Y-42500000D02*
X107100000Y-42100000D01*
X107500000Y-41500000D02*
X107100000Y-42100000D01*
%TO.C,D17*%
X144700000Y-3500000D02*
X145500000Y-3500000D01*
X145100000Y-3500000D02*
X145100000Y-3000000D01*
X145100000Y-4100000D02*
X144550000Y-4100000D01*
X145100000Y-4100000D02*
X144700000Y-3500000D01*
X145100000Y-4100000D02*
X145650000Y-4100000D01*
X145100000Y-4500000D02*
X145100000Y-4100000D01*
X145500000Y-3500000D02*
X145100000Y-4100000D01*
%TO.C,D11*%
X125700000Y-3500000D02*
X126500000Y-3500000D01*
X126100000Y-3500000D02*
X126100000Y-3000000D01*
X126100000Y-4100000D02*
X125550000Y-4100000D01*
X126100000Y-4100000D02*
X125700000Y-3500000D01*
X126100000Y-4100000D02*
X126650000Y-4100000D01*
X126100000Y-4500000D02*
X126100000Y-4100000D01*
X126500000Y-3500000D02*
X126100000Y-4100000D01*
%TO.C,D3*%
X106700000Y-60500000D02*
X107500000Y-60500000D01*
X107100000Y-60500000D02*
X107100000Y-60000000D01*
X107100000Y-61100000D02*
X106550000Y-61100000D01*
X107100000Y-61100000D02*
X106700000Y-60500000D01*
X107100000Y-61100000D02*
X107650000Y-61100000D01*
X107100000Y-61500000D02*
X107100000Y-61100000D01*
X107500000Y-60500000D02*
X107100000Y-61100000D01*
%TO.C,D12*%
X144700000Y-98500000D02*
X145500000Y-98500000D01*
X145100000Y-98500000D02*
X145100000Y-98000000D01*
X145100000Y-99100000D02*
X144550000Y-99100000D01*
X145100000Y-99100000D02*
X144700000Y-98500000D01*
X145100000Y-99100000D02*
X145650000Y-99100000D01*
X145100000Y-99500000D02*
X145100000Y-99100000D01*
X145500000Y-98500000D02*
X145100000Y-99100000D01*
%TO.C,D10*%
X125700000Y-22500000D02*
X126500000Y-22500000D01*
X126100000Y-22500000D02*
X126100000Y-22000000D01*
X126100000Y-23100000D02*
X125550000Y-23100000D01*
X126100000Y-23100000D02*
X125700000Y-22500000D01*
X126100000Y-23100000D02*
X126650000Y-23100000D01*
X126100000Y-23500000D02*
X126100000Y-23100000D01*
X126500000Y-22500000D02*
X126100000Y-23100000D01*
D12*
%TO.C,JST1*%
X127040000Y-29440000D02*
X128040000Y-29440000D01*
X127040000Y-30360000D02*
X127040000Y-29440000D01*
X127040000Y-34560000D02*
X127040000Y-35560000D01*
X127040000Y-35560000D02*
X128040000Y-35560000D01*
X134860000Y-29440000D02*
X133860000Y-29440000D01*
X134860000Y-30360000D02*
X134860000Y-29440000D01*
X134860000Y-34640000D02*
X134860000Y-35560000D01*
X134860000Y-35560000D02*
X133860000Y-35560000D01*
D11*
X135400000Y-33500000D02*
X136400000Y-33500000D01*
X135900000Y-31000000D02*
X135900000Y-32000000D01*
X135900000Y-34000000D02*
X135900000Y-33000000D01*
%TO.C,D19*%
X163700000Y-51000000D02*
X164500000Y-51000000D01*
X164100000Y-51000000D02*
X164100000Y-50500000D01*
X164100000Y-51600000D02*
X163550000Y-51600000D01*
X164100000Y-51600000D02*
X163700000Y-51000000D01*
X164100000Y-51600000D02*
X164650000Y-51600000D01*
X164100000Y-52000000D02*
X164100000Y-51600000D01*
X164500000Y-51000000D02*
X164100000Y-51600000D01*
%TO.C,D16*%
X144700000Y-22500000D02*
X145500000Y-22500000D01*
X145100000Y-22500000D02*
X145100000Y-22000000D01*
X145100000Y-23100000D02*
X144550000Y-23100000D01*
X145100000Y-23100000D02*
X144700000Y-22500000D01*
X145100000Y-23100000D02*
X145650000Y-23100000D01*
X145100000Y-23500000D02*
X145100000Y-23100000D01*
X145500000Y-22500000D02*
X145100000Y-23100000D01*
%TO.C,RST1*%
X134850000Y4000000D02*
X134850000Y4250000D01*
X134850000Y1000000D02*
X134850000Y750000D01*
X135100000Y4250000D02*
X134850000Y4250000D01*
X135100000Y750000D02*
X134850000Y750000D01*
X139300000Y4250000D02*
X139550000Y4250000D01*
X139300000Y750000D02*
X139550000Y750000D01*
X139550000Y4000000D02*
X139550000Y4250000D01*
X139550000Y1000000D02*
X139550000Y750000D01*
%TO.C,D2*%
X106700000Y-79500000D02*
X107500000Y-79500000D01*
X107100000Y-79500000D02*
X107100000Y-79000000D01*
X107100000Y-80100000D02*
X106550000Y-80100000D01*
X107100000Y-80100000D02*
X106700000Y-79500000D01*
X107100000Y-80100000D02*
X107650000Y-80100000D01*
X107100000Y-80500000D02*
X107100000Y-80100000D01*
X107500000Y-79500000D02*
X107100000Y-80100000D01*
%TO.C,D9*%
X125700000Y-41500000D02*
X126500000Y-41500000D01*
X126100000Y-41500000D02*
X126100000Y-41000000D01*
X126100000Y-42100000D02*
X125550000Y-42100000D01*
X126100000Y-42100000D02*
X125700000Y-41500000D01*
X126100000Y-42100000D02*
X126650000Y-42100000D01*
X126100000Y-42500000D02*
X126100000Y-42100000D01*
X126500000Y-41500000D02*
X126100000Y-42100000D01*
%TO.C,D7*%
X125700000Y-79500000D02*
X126500000Y-79500000D01*
X126100000Y-79500000D02*
X126100000Y-79000000D01*
X126100000Y-80100000D02*
X125550000Y-80100000D01*
X126100000Y-80100000D02*
X125700000Y-79500000D01*
X126100000Y-80100000D02*
X126650000Y-80100000D01*
X126100000Y-80500000D02*
X126100000Y-80100000D01*
X126500000Y-79500000D02*
X126100000Y-80100000D01*
%TO.C,D20*%
X163700000Y-22500000D02*
X164500000Y-22500000D01*
X164100000Y-22500000D02*
X164100000Y-22000000D01*
X164100000Y-23100000D02*
X163550000Y-23100000D01*
X164100000Y-23100000D02*
X163700000Y-22500000D01*
X164100000Y-23100000D02*
X164650000Y-23100000D01*
X164100000Y-23500000D02*
X164100000Y-23100000D01*
X164500000Y-22500000D02*
X164100000Y-23100000D01*
%TO.C,D18*%
X163700000Y-89000000D02*
X164500000Y-89000000D01*
X164100000Y-89000000D02*
X164100000Y-88500000D01*
X164100000Y-89600000D02*
X163550000Y-89600000D01*
X164100000Y-89600000D02*
X163700000Y-89000000D01*
X164100000Y-89600000D02*
X164650000Y-89600000D01*
X164100000Y-90000000D02*
X164100000Y-89600000D01*
X164500000Y-89000000D02*
X164100000Y-89600000D01*
%TO.C,D5*%
X106700000Y-22500000D02*
X107500000Y-22500000D01*
X107100000Y-22500000D02*
X107100000Y-22000000D01*
X107100000Y-23100000D02*
X106550000Y-23100000D01*
X107100000Y-23100000D02*
X106700000Y-22500000D01*
X107100000Y-23100000D02*
X107650000Y-23100000D01*
X107100000Y-23500000D02*
X107100000Y-23100000D01*
X107500000Y-22500000D02*
X107100000Y-23100000D01*
D12*
%TO.C,R1*%
X128250000Y-70800000D02*
X128750000Y-70800000D01*
X128250000Y-72200000D02*
X128750000Y-72200000D01*
%TO.C,PWR1*%
X145050000Y2580000D02*
X145050000Y3370000D01*
X145650000Y4380000D02*
X151350000Y4380000D01*
X146900000Y1530000D02*
X148600000Y1530000D01*
X149900000Y1530000D02*
X150100000Y1530000D01*
X151950000Y3370000D02*
X151950000Y2580000D01*
D11*
%TO.C,D13*%
X144700000Y-79500000D02*
X145500000Y-79500000D01*
X145100000Y-79500000D02*
X145100000Y-79000000D01*
X145100000Y-80100000D02*
X144550000Y-80100000D01*
X145100000Y-80100000D02*
X144700000Y-79500000D01*
X145100000Y-80100000D02*
X145650000Y-80100000D01*
X145100000Y-80500000D02*
X145100000Y-80100000D01*
X145500000Y-79500000D02*
X145100000Y-80100000D01*
%TO.C,D14*%
X144700000Y-60500000D02*
X145500000Y-60500000D01*
X145100000Y-60500000D02*
X145100000Y-60000000D01*
X145100000Y-61100000D02*
X144550000Y-61100000D01*
X145100000Y-61100000D02*
X144700000Y-60500000D01*
X145100000Y-61100000D02*
X145650000Y-61100000D01*
X145100000Y-61500000D02*
X145100000Y-61100000D01*
X145500000Y-60500000D02*
X145100000Y-61100000D01*
%TO.C,D1*%
X116200000Y-98500000D02*
X117000000Y-98500000D01*
X116600000Y-98500000D02*
X116600000Y-98000000D01*
X116600000Y-99100000D02*
X116050000Y-99100000D01*
X116600000Y-99100000D02*
X116200000Y-98500000D01*
X116600000Y-99100000D02*
X117150000Y-99100000D01*
X116600000Y-99500000D02*
X116600000Y-99100000D01*
X117000000Y-98500000D02*
X116600000Y-99100000D01*
%TO.C,D6*%
X106700000Y-3500000D02*
X107500000Y-3500000D01*
X107100000Y-3500000D02*
X107100000Y-3000000D01*
X107100000Y-4100000D02*
X106550000Y-4100000D01*
X107100000Y-4100000D02*
X106700000Y-3500000D01*
X107100000Y-4100000D02*
X107650000Y-4100000D01*
X107100000Y-4500000D02*
X107100000Y-4100000D01*
X107500000Y-3500000D02*
X107100000Y-4100000D01*
D12*
%TO.C,MCU1*%
X112490000Y780000D02*
X112490000Y-29820000D01*
X115150000Y780000D02*
X112490000Y780000D01*
X115150000Y780000D02*
X115150000Y-29820000D01*
X115150000Y-29820000D02*
X112490000Y-29820000D01*
X127730000Y780000D02*
X127730000Y-29820000D01*
X130390000Y780000D02*
X127730000Y780000D01*
X130390000Y780000D02*
X130390000Y-29820000D01*
X130390000Y-1820000D02*
X127730000Y-1820000D01*
X130390000Y-29820000D02*
X127730000Y-29820000D01*
D11*
%TO.C,D21*%
X163700000Y-3500000D02*
X164500000Y-3500000D01*
X164100000Y-3500000D02*
X164100000Y-3000000D01*
X164100000Y-4100000D02*
X163550000Y-4100000D01*
X164100000Y-4100000D02*
X163700000Y-3500000D01*
X164100000Y-4100000D02*
X164650000Y-4100000D01*
X164100000Y-4500000D02*
X164100000Y-4100000D01*
X164500000Y-3500000D02*
X164100000Y-4100000D01*
%TD*%
%LPC*%
D13*
%TO.C,MH2*%
X147500000Y-14500000D03*
%TD*%
%TO.C,MH1*%
X109500000Y-33500000D03*
%TD*%
%TO.C,MH4*%
X128500000Y-90500000D03*
%TD*%
%TO.C,MH5*%
X128500000Y-52500000D03*
%TD*%
%TO.C,MH3*%
X147500000Y-71500000D03*
%TD*%
D14*
%TO.C,S7*%
X110950000Y-66700000D03*
D15*
X119000000Y-62000000D03*
D14*
X125250000Y-67750000D03*
D16*
X114600000Y-66700000D03*
X121600000Y-67750000D03*
%TD*%
D17*
%TO.C,D15*%
X145100000Y-43400000D03*
X145100000Y-40100000D03*
%TD*%
D14*
%TO.C,S6*%
X110950000Y-85700000D03*
D15*
X119000000Y-81000000D03*
D14*
X125250000Y-86750000D03*
D16*
X114600000Y-85700000D03*
X121600000Y-86750000D03*
%TD*%
D17*
%TO.C,D8*%
X126100000Y-62400000D03*
X126100000Y-59100000D03*
%TD*%
%TO.C,D4*%
X107100000Y-43400000D03*
X107100000Y-40100000D03*
%TD*%
%TO.C,D17*%
X145100000Y-5400000D03*
X145100000Y-2100000D03*
%TD*%
%TO.C,D11*%
X126100000Y-5400000D03*
X126100000Y-2100000D03*
%TD*%
D14*
%TO.C,S4*%
X91950000Y-28700000D03*
D15*
X100000000Y-24000000D03*
D14*
X106250000Y-29750000D03*
D16*
X95600000Y-28700000D03*
X102600000Y-29750000D03*
%TD*%
D14*
%TO.C,S12*%
X129950000Y-85700000D03*
D15*
X138000000Y-81000000D03*
D14*
X144250000Y-86750000D03*
D16*
X133600000Y-85700000D03*
X140600000Y-86750000D03*
%TD*%
D17*
%TO.C,D3*%
X107100000Y-62400000D03*
X107100000Y-59100000D03*
%TD*%
%TO.C,D12*%
X145100000Y-100400000D03*
X145100000Y-97100000D03*
%TD*%
D14*
%TO.C,S17*%
X148950000Y-28700000D03*
D15*
X157000000Y-24000000D03*
D14*
X163250000Y-29750000D03*
D16*
X152600000Y-28700000D03*
X159600000Y-29750000D03*
%TD*%
D17*
%TO.C,D10*%
X126100000Y-24400000D03*
X126100000Y-21100000D03*
%TD*%
D14*
%TO.C,S11*%
X129950000Y-104700000D03*
D15*
X138000000Y-100000000D03*
D14*
X144250000Y-105750000D03*
D16*
X133600000Y-104700000D03*
X140600000Y-105750000D03*
%TD*%
D18*
%TO.C,JST1*%
X128500000Y-31500000D03*
D19*
X128500000Y-33500000D03*
%TD*%
D14*
%TO.C,S9*%
X110950000Y-28700000D03*
D15*
X119000000Y-24000000D03*
D14*
X125250000Y-29750000D03*
D16*
X114600000Y-28700000D03*
X121600000Y-29750000D03*
%TD*%
D17*
%TO.C,D19*%
X164100000Y-52900000D03*
X164100000Y-49600000D03*
%TD*%
%TO.C,D16*%
X145100000Y-24400000D03*
X145100000Y-21100000D03*
%TD*%
D20*
%TO.C,RST1*%
X137200000Y3875000D03*
X137200000Y1125000D03*
D21*
X134575000Y3350000D03*
X134575000Y1650000D03*
X139825000Y3350000D03*
X139825000Y1650000D03*
%TD*%
D17*
%TO.C,D2*%
X107100000Y-81400000D03*
X107100000Y-78100000D03*
%TD*%
D14*
%TO.C,S10*%
X110950000Y-9700000D03*
D15*
X119000000Y-5000000D03*
D14*
X125250000Y-10750000D03*
D16*
X114600000Y-9700000D03*
X121600000Y-10750000D03*
%TD*%
D17*
%TO.C,D9*%
X126100000Y-43400000D03*
X126100000Y-40100000D03*
%TD*%
D22*
%TO.C,S19*%
X101950000Y-104700000D03*
D15*
X109500000Y-100000000D03*
D14*
X115750000Y-105750000D03*
D16*
X105100000Y-104700000D03*
X112100000Y-105750000D03*
%TD*%
D17*
%TO.C,D7*%
X126100000Y-81400000D03*
X126100000Y-78100000D03*
%TD*%
D14*
%TO.C,S3*%
X91950000Y-47700000D03*
D15*
X100000000Y-43000000D03*
D14*
X106250000Y-48750000D03*
D16*
X95600000Y-47700000D03*
X102600000Y-48750000D03*
%TD*%
D17*
%TO.C,D20*%
X164100000Y-24400000D03*
X164100000Y-21100000D03*
%TD*%
%TO.C,D18*%
X164100000Y-90900000D03*
X164100000Y-87600000D03*
%TD*%
%TO.C,D5*%
X107100000Y-24400000D03*
X107100000Y-21100000D03*
%TD*%
D23*
%TO.C,R1*%
X129375000Y-71500000D03*
X127625000Y-71500000D03*
%TD*%
D24*
%TO.C,PWR1*%
X144850000Y1870000D03*
X152150000Y1870000D03*
D25*
X147000000Y2980000D03*
X150000000Y2980000D03*
D24*
X144850000Y4080000D03*
X152150000Y4080000D03*
D26*
X146250000Y1220000D03*
X149250000Y1220000D03*
X150750000Y1220000D03*
%TD*%
D17*
%TO.C,D13*%
X145100000Y-81400000D03*
X145100000Y-78100000D03*
%TD*%
%TO.C,D14*%
X145100000Y-62400000D03*
X145100000Y-59100000D03*
%TD*%
D14*
%TO.C,S8*%
X110950000Y-47700000D03*
D15*
X119000000Y-43000000D03*
D14*
X125250000Y-48750000D03*
D16*
X114600000Y-47700000D03*
X121600000Y-48750000D03*
%TD*%
D27*
%TO.C,S21*%
X161700000Y-60050000D03*
D15*
X157000000Y-52500000D03*
D28*
X162750000Y-46250000D03*
D16*
X161700000Y-56900000D03*
X162750000Y-49900000D03*
%TD*%
D27*
%TO.C,S20*%
X161700000Y-98050000D03*
D15*
X157000000Y-90500000D03*
D28*
X162750000Y-84250000D03*
D16*
X161700000Y-94900000D03*
X162750000Y-87900000D03*
%TD*%
D17*
%TO.C,D1*%
X116600000Y-100400000D03*
X116600000Y-97100000D03*
%TD*%
%TO.C,D6*%
X107100000Y-5400000D03*
X107100000Y-2100000D03*
%TD*%
D14*
%TO.C,S14*%
X129950000Y-47700000D03*
D15*
X138000000Y-43000000D03*
D14*
X144250000Y-48750000D03*
D16*
X133600000Y-47700000D03*
X140600000Y-48750000D03*
%TD*%
D14*
%TO.C,S15*%
X129950000Y-28700000D03*
D15*
X138000000Y-24000000D03*
D14*
X144250000Y-29750000D03*
D16*
X133600000Y-28700000D03*
X140600000Y-29750000D03*
%TD*%
D14*
%TO.C,S1*%
X91950000Y-85700000D03*
D15*
X100000000Y-81000000D03*
D14*
X106250000Y-86750000D03*
D16*
X95600000Y-85700000D03*
X102600000Y-86750000D03*
%TD*%
D14*
%TO.C,S2*%
X91950000Y-66700000D03*
D15*
X100000000Y-62000000D03*
D14*
X106250000Y-67750000D03*
D16*
X95600000Y-66700000D03*
X102600000Y-67750000D03*
%TD*%
D14*
%TO.C,S18*%
X148950000Y-9700000D03*
D15*
X157000000Y-5000000D03*
D14*
X163250000Y-10750000D03*
D16*
X152600000Y-9700000D03*
X159600000Y-10750000D03*
%TD*%
D14*
%TO.C,S13*%
X129950000Y-66700000D03*
D15*
X138000000Y-62000000D03*
D14*
X144250000Y-67750000D03*
D16*
X133600000Y-66700000D03*
X140600000Y-67750000D03*
%TD*%
D29*
%TO.C,MCU1*%
X129060000Y-550000D03*
X129060000Y-3090000D03*
X129060000Y-5630000D03*
X129060000Y-15790000D03*
X129060000Y-18330000D03*
X129060000Y-20870000D03*
X129060000Y-23410000D03*
X129060000Y-25950000D03*
X113820000Y-25950000D03*
X113820000Y-23410000D03*
X113820000Y-20870000D03*
X113820000Y-18330000D03*
X113820000Y-15790000D03*
X113820000Y-5630000D03*
X113820000Y-3090000D03*
X113820000Y-550000D03*
%TD*%
D14*
%TO.C,S16*%
X129950000Y-9700000D03*
D15*
X138000000Y-5000000D03*
D14*
X144250000Y-10750000D03*
D16*
X133600000Y-9700000D03*
X140600000Y-10750000D03*
%TD*%
D17*
%TO.C,D21*%
X164100000Y-5400000D03*
X164100000Y-2100000D03*
%TD*%
D14*
%TO.C,S5*%
X91950000Y-9700000D03*
D15*
X100000000Y-5000000D03*
D14*
X106250000Y-10750000D03*
D16*
X95600000Y-9700000D03*
X102600000Y-10750000D03*
%TD*%
%LPD*%
M02*
