M48
; DRILL file {KiCad 8.0.6} date 2026-10-01T23:16:43-0700
; FORMAT={-:-/ absolute / metric / decimal}
; #@! TF.CreationDate,2026-10-01T23:16:43-07:00
; #@! TF.GenerationSoftware,Kicad,Pcbnew,8.0.6
; #@! TF.FileFunction,MixedPlating,1,2
FMAT,2
METRIC
; #@! TA.AperFunction,Plated,PTH,ViaDrill
T1C0.300
; #@! TA.AperFunction,Plated,PTH,ComponentDrill
T2C0.750
; #@! TA.AperFunction,Plated,PTH,ComponentDrill
T3C1.000
; #@! TA.AperFunction,Plated,PTH,ComponentDrill
T4C3.000
; #@! TA.AperFunction,Plated,PTH,ComponentDrill
T5C5.100
; #@! TA.AperFunction,NonPlated,NPTH,ComponentDrill
T6C0.750
; #@! TA.AperFunction,NonPlated,NPTH,ComponentDrill
T7C0.900
; #@! TA.AperFunction,NonPlated,NPTH,ComponentDrill
T8C2.200
%
G90
G05
T1
X127.056Y-67.419
X127.625Y-70.519
X130.448Y-1.423
X130.933Y-79.983
X131.535Y-72.146
T2
X128.5Y-31.5
X128.5Y-33.5
T3
X113.82Y-0.55
X113.82Y-3.09
X113.82Y-5.63
X113.82Y-15.79
X113.82Y-18.33
X113.82Y-20.87
X113.82Y-23.41
X113.82Y-25.95
X129.06Y-0.55
X129.06Y-3.09
X129.06Y-5.63
X129.06Y-15.79
X129.06Y-18.33
X129.06Y-20.87
X129.06Y-23.41
X129.06Y-25.95
T4
X95.6Y-9.7
X95.6Y-28.7
X95.6Y-47.7
X95.6Y-66.7
X95.6Y-85.7
X102.6Y-10.75
X102.6Y-29.75
X102.6Y-48.75
X102.6Y-67.75
X102.6Y-86.75
X105.1Y-104.7
X112.1Y-105.75
X114.6Y-9.7
X114.6Y-28.7
X114.6Y-47.7
X114.6Y-66.7
X114.6Y-85.7
X121.6Y-10.75
X121.6Y-29.75
X121.6Y-48.75
X121.6Y-67.75
X121.6Y-86.75
X133.6Y-9.7
X133.6Y-28.7
X133.6Y-47.7
X133.6Y-66.7
X133.6Y-85.7
X133.6Y-104.7
X140.6Y-10.75
X140.6Y-29.75
X140.6Y-48.75
X140.6Y-67.75
X140.6Y-86.75
X140.6Y-105.75
X152.6Y-9.7
X152.6Y-28.7
X159.6Y-10.75
X159.6Y-29.75
X161.7Y-56.9
X161.7Y-94.9
X162.75Y-49.9
X162.75Y-87.9
T5
X100.0Y-5.0
X100.0Y-24.0
X100.0Y-43.0
X100.0Y-62.0
X100.0Y-81.0
X109.5Y-100.0
X119.0Y-5.0
X119.0Y-24.0
X119.0Y-43.0
X119.0Y-62.0
X119.0Y-81.0
X138.0Y-5.0
X138.0Y-24.0
X138.0Y-43.0
X138.0Y-62.0
X138.0Y-81.0
X138.0Y-100.0
X157.0Y-5.0
X157.0Y-24.0
X157.0Y-52.5
X157.0Y-90.5
T6
X137.2Y3.875
X137.2Y1.125
T7
X147.0Y2.98
X150.0Y2.98
T8
X109.5Y-33.5
X128.5Y-52.5
X128.5Y-90.5
X147.5Y-14.5
X147.5Y-71.5
M30
