%TF.GenerationSoftware,KiCad,Pcbnew,8.0.6*%
%TF.CreationDate,2026-10-04T18:26:51-07:00*%
%TF.ProjectId,numpad,6e756d70-6164-42e6-9b69-6361645f7063,v1.0.0*%
%TF.SameCoordinates,Original*%
%TF.FileFunction,Copper,L2,Bot*%
%TF.FilePolarity,Positive*%
%FSLAX46Y46*%
G04 Gerber Fmt 4.6, Leading zero omitted, Abs format (unit mm)*
G04 Created by KiCad (PCBNEW 8.0.6) date 2026-10-04 18:26:51*
%MOMM*%
%LPD*%
G01*
G04 APERTURE LIST*
G04 Aperture macros list*
%AMRoundRect*
0 Rectangle with rounded corners*
0 $1 Rounding radius*
0 $2 $3 $4 $5 $6 $7 $8 $9 X,Y pos of 4 corners*
0 Add a 4 corners polygon primitive as box body*
4,1,4,$2,$3,$4,$5,$6,$7,$8,$9,$2,$3,0*
0 Add four circle primitives for the rounded corners*
1,1,$1+$1,$2,$3*
1,1,$1+$1,$4,$5*
1,1,$1+$1,$6,$7*
1,1,$1+$1,$8,$9*
0 Add four rect primitives between the rounded corners*
20,1,$1+$1,$2,$3,$4,$5,0*
20,1,$1+$1,$4,$5,$6,$7,0*
20,1,$1+$1,$6,$7,$8,$9,0*
20,1,$1+$1,$8,$9,$2,$3,0*%
G04 Aperture macros list end*
%TA.AperFunction,ComponentPad*%
%ADD10C,5.600000*%
%TD*%
%TA.AperFunction,SMDPad,CuDef*%
%ADD11RoundRect,0.250000X1.000000X-1.250000X1.000000X1.250000X-1.000000X1.250000X-1.000000X-1.250000X0*%
%TD*%
%TA.AperFunction,ComponentPad*%
%ADD12C,3.500000*%
%TD*%
%TA.AperFunction,SMDPad,CuDef*%
%ADD13RoundRect,0.250000X1.000000X-1.750000X1.000000X1.750000X-1.000000X1.750000X-1.000000X-1.750000X0*%
%TD*%
%TA.AperFunction,SMDPad,CuDef*%
%ADD14RoundRect,0.250000X-1.750000X-1.000000X1.750000X-1.000000X1.750000X1.000000X-1.750000X1.000000X0*%
%TD*%
%TA.AperFunction,ComponentPad*%
%ADD15C,1.700000*%
%TD*%
%TA.AperFunction,SMDPad,CuDef*%
%ADD16R,1.200000X0.900000*%
%TD*%
%TA.AperFunction,ComponentPad*%
%ADD17RoundRect,0.240000X0.635000X-0.360000X0.635000X0.360000X-0.635000X0.360000X-0.635000X-0.360000X0*%
%TD*%
%TA.AperFunction,ComponentPad*%
%ADD18O,1.750000X1.200000*%
%TD*%
%TA.AperFunction,SMDPad,CuDef*%
%ADD19RoundRect,0.250000X-1.250000X-1.000000X1.250000X-1.000000X1.250000X1.000000X-1.250000X1.000000X0*%
%TD*%
%TA.AperFunction,SMDPad,CuDef*%
%ADD20RoundRect,0.237500X-0.287500X-0.237500X0.287500X-0.237500X0.287500X0.237500X-0.287500X0.237500X0*%
%TD*%
%TA.AperFunction,SMDPad,CuDef*%
%ADD21R,1.000000X0.800000*%
%TD*%
%TA.AperFunction,SMDPad,CuDef*%
%ADD22R,0.700000X1.500000*%
%TD*%
%TA.AperFunction,SMDPad,CuDef*%
%ADD23R,1.550000X1.000000*%
%TD*%
%TA.AperFunction,ViaPad*%
%ADD24C,0.600000*%
%TD*%
%TA.AperFunction,Conductor*%
%ADD25C,0.200000*%
%TD*%
G04 APERTURE END LIST*
D10*
%TO.P,S20,*%
%TO.N,*%
X157000000Y-90500000D03*
D11*
%TO.P,S20,1*%
%TO.N,C4*%
X161700000Y-97350000D03*
D12*
X161700000Y-94900000D03*
%TO.P,S20,2*%
%TO.N,c4_r5*%
X162750000Y-87900000D03*
D13*
X162750000Y-84950000D03*
%TD*%
D10*
%TO.P,S10,*%
%TO.N,*%
X119000000Y-5000000D03*
D14*
%TO.P,S10,1*%
%TO.N,C2*%
X111650000Y-9700000D03*
D12*
X114600000Y-9700000D03*
%TO.P,S10,2*%
%TO.N,c2_r1*%
X121600000Y-10750000D03*
D14*
X124550000Y-10750000D03*
%TD*%
D15*
%TO.P,MCU1,1*%
%TO.N,P1*%
X129060000Y950000D03*
%TO.P,MCU1,2*%
%TO.N,P0*%
X129060000Y-1590000D03*
%TO.P,MCU1,3*%
%TO.N,GND*%
X129060000Y-4130000D03*
%TO.P,MCU1,7*%
%TO.N,R2*%
X129060000Y-14290000D03*
%TO.P,MCU1,8*%
%TO.N,R3*%
X129060000Y-16830000D03*
%TO.P,MCU1,9*%
%TO.N,R4*%
X129060000Y-19370000D03*
%TO.P,MCU1,10*%
%TO.N,R5*%
X129060000Y-21910000D03*
%TO.P,MCU1,11*%
%TO.N,R6*%
X129060000Y-24450000D03*
%TO.P,MCU1,14*%
%TO.N,R1*%
X113820000Y-24450000D03*
%TO.P,MCU1,15*%
%TO.N,C4*%
X113820000Y-21910000D03*
%TO.P,MCU1,16*%
%TO.N,C3*%
X113820000Y-19370000D03*
%TO.P,MCU1,17*%
%TO.N,C2*%
X113820000Y-16830000D03*
%TO.P,MCU1,18*%
%TO.N,C1*%
X113820000Y-14290000D03*
%TO.P,MCU1,22*%
%TO.N,RST*%
X113820000Y-4130000D03*
%TO.P,MCU1,23*%
%TO.N,GND*%
X113820000Y-1590000D03*
%TO.P,MCU1,24*%
%TO.N,RAW*%
X113820000Y950000D03*
%TD*%
D16*
%TO.P,D6,1*%
%TO.N,R1*%
X107100000Y-5400000D03*
%TO.P,D6,2*%
%TO.N,c1_r1*%
X107100000Y-2100000D03*
%TD*%
D10*
%TO.P,S9,*%
%TO.N,*%
X119000000Y-24000000D03*
D14*
%TO.P,S9,1*%
%TO.N,C2*%
X111650000Y-28700000D03*
D12*
X114600000Y-28700000D03*
%TO.P,S9,2*%
%TO.N,c2_r2*%
X121600000Y-29750000D03*
D14*
X124550000Y-29750000D03*
%TD*%
D16*
%TO.P,D8,1*%
%TO.N,R4*%
X126100000Y-62400000D03*
%TO.P,D8,2*%
%TO.N,c2_r4*%
X126100000Y-59100000D03*
%TD*%
%TO.P,D5,1*%
%TO.N,R2*%
X107100000Y-24400000D03*
%TO.P,D5,2*%
%TO.N,c1_r2*%
X107100000Y-21100000D03*
%TD*%
D10*
%TO.P,S7,*%
%TO.N,*%
X119000000Y-62000000D03*
D14*
%TO.P,S7,1*%
%TO.N,C2*%
X111650000Y-66700000D03*
D12*
X114600000Y-66700000D03*
%TO.P,S7,2*%
%TO.N,c2_r4*%
X121600000Y-67750000D03*
D14*
X124550000Y-67750000D03*
%TD*%
D10*
%TO.P,S5,*%
%TO.N,*%
X100000000Y-5000000D03*
D14*
%TO.P,S5,1*%
%TO.N,C1*%
X92650000Y-9700000D03*
D12*
X95600000Y-9700000D03*
%TO.P,S5,2*%
%TO.N,c1_r1*%
X102600000Y-10750000D03*
D14*
X105550000Y-10750000D03*
%TD*%
D16*
%TO.P,D1,1*%
%TO.N,R6*%
X116600000Y-100400000D03*
%TO.P,D1,2*%
%TO.N,c1_r6*%
X116600000Y-97100000D03*
%TD*%
D10*
%TO.P,S18,*%
%TO.N,*%
X157000000Y-5000000D03*
D14*
%TO.P,S18,1*%
%TO.N,C4*%
X149650000Y-9700000D03*
D12*
X152600000Y-9700000D03*
%TO.P,S18,2*%
%TO.N,c4_r1*%
X159600000Y-10750000D03*
D14*
X162550000Y-10750000D03*
%TD*%
D16*
%TO.P,D18,1*%
%TO.N,R5*%
X164100000Y-90900000D03*
%TO.P,D18,2*%
%TO.N,c4_r5*%
X164100000Y-87600000D03*
%TD*%
D10*
%TO.P,S2,*%
%TO.N,*%
X100000000Y-62000000D03*
D14*
%TO.P,S2,1*%
%TO.N,C1*%
X92650000Y-66700000D03*
D12*
X95600000Y-66700000D03*
%TO.P,S2,2*%
%TO.N,c1_r4*%
X102600000Y-67750000D03*
D14*
X105550000Y-67750000D03*
%TD*%
D16*
%TO.P,D13,1*%
%TO.N,R5*%
X145100000Y-81400000D03*
%TO.P,D13,2*%
%TO.N,c3_r5*%
X145100000Y-78100000D03*
%TD*%
%TO.P,D12,1*%
%TO.N,R6*%
X145100000Y-100400000D03*
%TO.P,D12,2*%
%TO.N,c3_r6*%
X145100000Y-97100000D03*
%TD*%
%TO.P,D10,1*%
%TO.N,R2*%
X126100000Y-24400000D03*
%TO.P,D10,2*%
%TO.N,c2_r2*%
X126100000Y-21100000D03*
%TD*%
%TO.P,D4,1*%
%TO.N,R3*%
X107100000Y-43400000D03*
%TO.P,D4,2*%
%TO.N,c1_r3*%
X107100000Y-40100000D03*
%TD*%
%TO.P,D11,1*%
%TO.N,R1*%
X126100000Y-5400000D03*
%TO.P,D11,2*%
%TO.N,c2_r1*%
X126100000Y-2100000D03*
%TD*%
D10*
%TO.P,S13,*%
%TO.N,*%
X138000000Y-62000000D03*
D14*
%TO.P,S13,1*%
%TO.N,C3*%
X130650000Y-66700000D03*
D12*
X133600000Y-66700000D03*
%TO.P,S13,2*%
%TO.N,c3_r4*%
X140600000Y-67750000D03*
D14*
X143550000Y-67750000D03*
%TD*%
D10*
%TO.P,S16,*%
%TO.N,*%
X138000000Y-5000000D03*
D14*
%TO.P,S16,1*%
%TO.N,C3*%
X130650000Y-9700000D03*
D12*
X133600000Y-9700000D03*
%TO.P,S16,2*%
%TO.N,c3_r1*%
X140600000Y-10750000D03*
D14*
X143550000Y-10750000D03*
%TD*%
D10*
%TO.P,S11,*%
%TO.N,*%
X138000000Y-100000000D03*
D14*
%TO.P,S11,1*%
%TO.N,C3*%
X130650000Y-104700000D03*
D12*
X133600000Y-104700000D03*
%TO.P,S11,2*%
%TO.N,c3_r6*%
X140600000Y-105750000D03*
D14*
X143550000Y-105750000D03*
%TD*%
D16*
%TO.P,D2,1*%
%TO.N,R5*%
X107100000Y-81400000D03*
%TO.P,D2,2*%
%TO.N,c1_r5*%
X107100000Y-78100000D03*
%TD*%
%TO.P,D9,1*%
%TO.N,R3*%
X126100000Y-43400000D03*
%TO.P,D9,2*%
%TO.N,c2_r3*%
X126100000Y-40100000D03*
%TD*%
D10*
%TO.P,S17,*%
%TO.N,*%
X157000000Y-24000000D03*
D14*
%TO.P,S17,1*%
%TO.N,C4*%
X149650000Y-28700000D03*
D12*
X152600000Y-28700000D03*
%TO.P,S17,2*%
%TO.N,c4_r2*%
X159600000Y-29750000D03*
D14*
X162550000Y-29750000D03*
%TD*%
D10*
%TO.P,S6,*%
%TO.N,*%
X119000000Y-81000000D03*
D14*
%TO.P,S6,1*%
%TO.N,C2*%
X111650000Y-85700000D03*
D12*
X114600000Y-85700000D03*
%TO.P,S6,2*%
%TO.N,c2_r5*%
X121600000Y-86750000D03*
D14*
X124550000Y-86750000D03*
%TD*%
D17*
%TO.P,JST1,1*%
%TO.N,GND*%
X128500000Y-31500000D03*
D18*
%TO.P,JST1,2*%
%TO.N,BAT_P*%
X128500000Y-33500000D03*
%TD*%
D10*
%TO.P,S19,*%
%TO.N,*%
X109500000Y-100000000D03*
D19*
%TO.P,S19,1*%
%TO.N,C1*%
X102650000Y-104700000D03*
D12*
X105100000Y-104700000D03*
%TO.P,S19,2*%
%TO.N,c1_r6*%
X112100000Y-105750000D03*
D14*
X115050000Y-105750000D03*
%TD*%
D20*
%TO.P,R1,1*%
%TO.N,P0*%
X129375000Y-71500000D03*
%TO.P,R1,2*%
%TO.N,LED_A*%
X127625000Y-71500000D03*
%TD*%
D10*
%TO.P,S8,*%
%TO.N,*%
X119000000Y-43000000D03*
D14*
%TO.P,S8,1*%
%TO.N,C2*%
X111650000Y-47700000D03*
D12*
X114600000Y-47700000D03*
%TO.P,S8,2*%
%TO.N,c2_r3*%
X121600000Y-48750000D03*
D14*
X124550000Y-48750000D03*
%TD*%
D10*
%TO.P,S3,*%
%TO.N,*%
X100000000Y-43000000D03*
D14*
%TO.P,S3,1*%
%TO.N,C1*%
X92650000Y-47700000D03*
D12*
X95600000Y-47700000D03*
%TO.P,S3,2*%
%TO.N,c1_r3*%
X102600000Y-48750000D03*
D14*
X105550000Y-48750000D03*
%TD*%
D16*
%TO.P,D19,1*%
%TO.N,R3*%
X164100000Y-52900000D03*
%TO.P,D19,2*%
%TO.N,c4_r3*%
X164100000Y-49600000D03*
%TD*%
%TO.P,D16,1*%
%TO.N,R2*%
X145100000Y-24400000D03*
%TO.P,D16,2*%
%TO.N,c3_r2*%
X145100000Y-21100000D03*
%TD*%
D10*
%TO.P,S1,*%
%TO.N,*%
X100000000Y-81000000D03*
D14*
%TO.P,S1,1*%
%TO.N,C1*%
X92650000Y-85700000D03*
D12*
X95600000Y-85700000D03*
%TO.P,S1,2*%
%TO.N,c1_r5*%
X102600000Y-86750000D03*
D14*
X105550000Y-86750000D03*
%TD*%
D16*
%TO.P,D17,1*%
%TO.N,R1*%
X145100000Y-5400000D03*
%TO.P,D17,2*%
%TO.N,c3_r1*%
X145100000Y-2100000D03*
%TD*%
%TO.P,D14,1*%
%TO.N,R4*%
X145100000Y-62400000D03*
%TO.P,D14,2*%
%TO.N,c3_r4*%
X145100000Y-59100000D03*
%TD*%
%TO.P,D7,1*%
%TO.N,R5*%
X126100000Y-81400000D03*
%TO.P,D7,2*%
%TO.N,c2_r5*%
X126100000Y-78100000D03*
%TD*%
%TO.P,D15,1*%
%TO.N,R3*%
X145100000Y-43400000D03*
%TO.P,D15,2*%
%TO.N,c3_r3*%
X145100000Y-40100000D03*
%TD*%
D10*
%TO.P,S14,*%
%TO.N,*%
X138000000Y-43000000D03*
D14*
%TO.P,S14,1*%
%TO.N,C3*%
X130650000Y-47700000D03*
D12*
X133600000Y-47700000D03*
%TO.P,S14,2*%
%TO.N,c3_r3*%
X140600000Y-48750000D03*
D14*
X143550000Y-48750000D03*
%TD*%
D10*
%TO.P,S21,*%
%TO.N,*%
X157000000Y-52500000D03*
D11*
%TO.P,S21,1*%
%TO.N,C4*%
X161700000Y-59350000D03*
D12*
X161700000Y-56900000D03*
%TO.P,S21,2*%
%TO.N,c4_r3*%
X162750000Y-49900000D03*
D13*
X162750000Y-46950000D03*
%TD*%
D16*
%TO.P,D21,1*%
%TO.N,R1*%
X164100000Y-5400000D03*
%TO.P,D21,2*%
%TO.N,c4_r1*%
X164100000Y-2100000D03*
%TD*%
D21*
%TO.P,PWR1,*%
%TO.N,*%
X144850000Y1870000D03*
X152150000Y1870000D03*
X144850000Y4080000D03*
X152150000Y4080000D03*
D22*
%TO.P,PWR1,1*%
%TO.N,BAT_P*%
X146250000Y1220000D03*
%TO.P,PWR1,2*%
%TO.N,RAW*%
X149250000Y1220000D03*
%TO.P,PWR1,3*%
%TO.N,N/C*%
X150750000Y1220000D03*
%TD*%
D16*
%TO.P,D20,1*%
%TO.N,R2*%
X164100000Y-24400000D03*
%TO.P,D20,2*%
%TO.N,c4_r2*%
X164100000Y-21100000D03*
%TD*%
%TO.P,D3,1*%
%TO.N,R4*%
X107100000Y-62400000D03*
%TO.P,D3,2*%
%TO.N,c1_r4*%
X107100000Y-59100000D03*
%TD*%
D10*
%TO.P,S4,*%
%TO.N,*%
X100000000Y-24000000D03*
D14*
%TO.P,S4,1*%
%TO.N,C1*%
X92650000Y-28700000D03*
D12*
X95600000Y-28700000D03*
%TO.P,S4,2*%
%TO.N,c1_r2*%
X102600000Y-29750000D03*
D14*
X105550000Y-29750000D03*
%TD*%
D10*
%TO.P,S12,*%
%TO.N,*%
X138000000Y-81000000D03*
D14*
%TO.P,S12,1*%
%TO.N,C3*%
X130650000Y-85700000D03*
D12*
X133600000Y-85700000D03*
%TO.P,S12,2*%
%TO.N,c3_r5*%
X140600000Y-86750000D03*
D14*
X143550000Y-86750000D03*
%TD*%
D23*
%TO.P,RST1,1*%
%TO.N,GND*%
X134575000Y3350000D03*
%TO.P,RST1,2*%
%TO.N,RST*%
X134575000Y1650000D03*
%TO.P,RST1,3*%
%TO.N,GND*%
X139825000Y3350000D03*
%TO.P,RST1,4*%
%TO.N,RST*%
X139825000Y1650000D03*
%TD*%
D10*
%TO.P,S15,*%
%TO.N,*%
X138000000Y-24000000D03*
D14*
%TO.P,S15,1*%
%TO.N,C3*%
X130650000Y-28700000D03*
D12*
X133600000Y-28700000D03*
%TO.P,S15,2*%
%TO.N,c3_r2*%
X140600000Y-29750000D03*
D14*
X143550000Y-29750000D03*
%TD*%
D24*
%TO.N,R6*%
X130499900Y-90582700D03*
%TO.N,P0*%
X130999600Y-69749800D03*
%TO.N,BAT_P*%
X127434200Y-7257100D03*
%TO.N,LED_A*%
X127625000Y-70502400D03*
%TD*%
D25*
%TO.N,C1*%
X93947600Y-85700000D02*
X95600000Y-85700000D01*
X105100000Y-104700000D02*
X102650000Y-104700000D01*
X93947600Y-85700000D02*
X93947600Y-105596100D01*
X92650000Y-66700000D02*
X95600000Y-66700000D01*
X92650000Y-28700000D02*
X95600000Y-28700000D01*
X101571400Y-105778600D02*
X102650000Y-104700000D01*
X92650000Y-47700000D02*
X95600000Y-47700000D01*
X92650000Y-9700000D02*
X95600000Y-9700000D01*
X94130100Y-105778600D02*
X101571400Y-105778600D01*
X92650000Y-85700000D02*
X93947600Y-85700000D01*
X93947600Y-105596100D02*
X94130100Y-105778600D01*
%TO.N,c1_r5*%
X105550000Y-86750000D02*
X102600000Y-86750000D01*
X107100000Y-78100000D02*
X107100000Y-78850100D01*
X107100000Y-78850100D02*
X105550000Y-80400100D01*
X105550000Y-80400100D02*
X105550000Y-86750000D01*
%TO.N,GND*%
X136500100Y2500000D02*
X137899900Y2500000D01*
X134575000Y3350000D02*
X135650100Y3350000D01*
X133499900Y309900D02*
X133499900Y3350000D01*
X129060000Y-4130000D02*
X133499900Y309900D01*
X135650100Y3350000D02*
X136500100Y2500000D01*
X134575000Y3350000D02*
X133499900Y3350000D01*
X139825000Y3350000D02*
X138749900Y3350000D01*
X137899900Y2500000D02*
X138749900Y3350000D01*
%TO.N,c1_r4*%
X107100000Y-59850100D02*
X105550000Y-61400100D01*
X107100000Y-59100000D02*
X107100000Y-59850100D01*
X105550000Y-61400100D02*
X105550000Y-67750000D01*
X105550000Y-67750000D02*
X102600000Y-67750000D01*
%TO.N,c1_r3*%
X105550000Y-48750000D02*
X102600000Y-48750000D01*
X107100000Y-40850100D02*
X105550000Y-42400100D01*
X107100000Y-40100000D02*
X107100000Y-40850100D01*
X105550000Y-42400100D02*
X105550000Y-48750000D01*
%TO.N,c1_r2*%
X107100000Y-21100000D02*
X107100000Y-21850100D01*
X105550000Y-29750000D02*
X102600000Y-29750000D01*
X105550000Y-23400100D02*
X105550000Y-29750000D01*
X107100000Y-21850100D02*
X105550000Y-23400100D01*
%TO.N,c1_r1*%
X105550000Y-4400100D02*
X105550000Y-10750000D01*
X107100000Y-2850100D02*
X105550000Y-4400100D01*
X107100000Y-2100000D02*
X107100000Y-2850100D01*
X105550000Y-10750000D02*
X102600000Y-10750000D01*
%TO.N,C2*%
X111650000Y-66700000D02*
X114600000Y-66700000D01*
X111650000Y-47700000D02*
X114600000Y-47700000D01*
X111650000Y-85700000D02*
X114600000Y-85700000D01*
X111650000Y-9700000D02*
X114600000Y-9700000D01*
X111650000Y-28700000D02*
X114600000Y-28700000D01*
%TO.N,c2_r5*%
X124550000Y-86750000D02*
X121600000Y-86750000D01*
X126100000Y-78100000D02*
X126100000Y-78850100D01*
X124550000Y-80400100D02*
X124550000Y-86750000D01*
X126100000Y-78850100D02*
X124550000Y-80400100D01*
%TO.N,c2_r4*%
X124550000Y-61400100D02*
X126100000Y-59850100D01*
X124550000Y-67750000D02*
X124550000Y-61400100D01*
X126100000Y-59100000D02*
X126100000Y-59850100D01*
X124550000Y-67750000D02*
X121600000Y-67750000D01*
%TO.N,c2_r3*%
X124550000Y-48750000D02*
X121600000Y-48750000D01*
X124550000Y-42400100D02*
X124550000Y-48750000D01*
X126100000Y-40100000D02*
X126100000Y-40850100D01*
X126100000Y-40850100D02*
X124550000Y-42400100D01*
%TO.N,c2_r2*%
X126100000Y-21100000D02*
X126100000Y-21850100D01*
X126100000Y-21850100D02*
X127000200Y-22750300D01*
X127000200Y-27299800D02*
X124550000Y-29750000D01*
X124550000Y-29750000D02*
X121600000Y-29750000D01*
X127000200Y-22750300D02*
X127000200Y-27299800D01*
%TO.N,c2_r1*%
X126100000Y-2100000D02*
X126100000Y-2850100D01*
X124550000Y-10750000D02*
X121600000Y-10750000D01*
X124550000Y-4400100D02*
X124550000Y-10750000D01*
X126100000Y-2850100D02*
X124550000Y-4400100D01*
%TO.N,C3*%
X130650000Y-85700000D02*
X133600000Y-85700000D01*
X130650000Y-47700000D02*
X133600000Y-47700000D01*
X120980000Y-19370000D02*
X130650000Y-9700000D01*
X130650000Y-28700000D02*
X133600000Y-28700000D01*
X130650000Y-9700000D02*
X133600000Y-9700000D01*
X113820000Y-19370000D02*
X120980000Y-19370000D01*
X130650000Y-66700000D02*
X133600000Y-66700000D01*
X130650000Y-104700000D02*
X133600000Y-104700000D01*
%TO.N,c3_r6*%
X143550000Y-105750000D02*
X140600000Y-105750000D01*
X145100000Y-97850100D02*
X146000200Y-98750300D01*
X145100000Y-97100000D02*
X145100000Y-97850100D01*
X146000200Y-103299800D02*
X143550000Y-105750000D01*
X146000200Y-98750300D02*
X146000200Y-103299800D01*
%TO.N,c3_r5*%
X143550000Y-86750000D02*
X140600000Y-86750000D01*
X145100000Y-78850100D02*
X143550000Y-80400100D01*
X143550000Y-80400100D02*
X143550000Y-86750000D01*
X145100000Y-78100000D02*
X145100000Y-78850100D01*
%TO.N,c3_r4*%
X145100000Y-59100000D02*
X145100000Y-59850100D01*
X146400300Y-64899700D02*
X146400300Y-61150400D01*
X143550000Y-67750000D02*
X140600000Y-67750000D01*
X143550000Y-67750000D02*
X146400300Y-64899700D01*
X146400300Y-61150400D02*
X145100000Y-59850100D01*
%TO.N,c3_r3*%
X145100000Y-40100000D02*
X145100000Y-40850100D01*
X143550000Y-48750000D02*
X140600000Y-48750000D01*
X145100000Y-40850100D02*
X143550000Y-42400100D01*
X143550000Y-42400100D02*
X143550000Y-48750000D01*
%TO.N,c3_r2*%
X143550000Y-29750000D02*
X140600000Y-29750000D01*
X145100000Y-21100000D02*
X145100000Y-21850100D01*
X143550000Y-23400100D02*
X143550000Y-29750000D01*
X145100000Y-21850100D02*
X143550000Y-23400100D01*
%TO.N,c3_r1*%
X145100000Y-2100000D02*
X145100000Y-2850100D01*
X143550000Y-10750000D02*
X140600000Y-10750000D01*
X145100000Y-2850100D02*
X146000200Y-3750300D01*
X146000200Y-8299800D02*
X143550000Y-10750000D01*
X146000200Y-3750300D02*
X146000200Y-8299800D01*
%TO.N,C4*%
X146505400Y-12844600D02*
X128361400Y-12844600D01*
X128361400Y-12844600D02*
X121231200Y-19974800D01*
X121231200Y-19974800D02*
X115755200Y-19974800D01*
X149650000Y-9700000D02*
X146505400Y-12844600D01*
X115755200Y-19974800D02*
X113820000Y-21910000D01*
X152600000Y-9700000D02*
X149650000Y-9700000D01*
X149650000Y-28700000D02*
X152600000Y-28700000D01*
X161700000Y-59350000D02*
X161700000Y-56900000D01*
X161700000Y-97350000D02*
X161700000Y-94900000D01*
%TO.N,c4_r2*%
X165000200Y-27299800D02*
X162550000Y-29750000D01*
X162550000Y-29750000D02*
X159600000Y-29750000D01*
X165000200Y-22750300D02*
X165000200Y-27299800D01*
X164100000Y-21100000D02*
X164100000Y-21850100D01*
X164100000Y-21850100D02*
X165000200Y-22750300D01*
%TO.N,c4_r1*%
X162550000Y-10750000D02*
X159600000Y-10750000D01*
X164100000Y-2850100D02*
X165000200Y-3750300D01*
X165000200Y-8299800D02*
X162550000Y-10750000D01*
X164100000Y-2100000D02*
X164100000Y-2850100D01*
X165000200Y-3750300D02*
X165000200Y-8299800D01*
%TO.N,c1_r6*%
X117500200Y-103299800D02*
X115050000Y-105750000D01*
X117500200Y-98750300D02*
X117500200Y-103299800D01*
X116600000Y-97850100D02*
X117500200Y-98750300D01*
X115050000Y-105750000D02*
X112100000Y-105750000D01*
X116600000Y-97100000D02*
X116600000Y-97850100D01*
%TO.N,c4_r5*%
X164100000Y-87600000D02*
X163050000Y-87600000D01*
X163050000Y-85250000D02*
X163050000Y-87600000D01*
X163050000Y-87600000D02*
X162750000Y-87900000D01*
X162750000Y-84950000D02*
X163050000Y-85250000D01*
%TO.N,c4_r3*%
X164100000Y-49600000D02*
X163050000Y-49600000D01*
X163050000Y-49600000D02*
X162750000Y-49900000D01*
X163050000Y-47250000D02*
X163050000Y-49600000D01*
X162750000Y-46950000D02*
X163050000Y-47250000D01*
%TO.N,R6*%
X111327800Y-107879400D02*
X110017800Y-106569400D01*
X134038200Y-96588200D02*
X141663300Y-96588200D01*
X114517600Y-100400000D02*
X116600000Y-100400000D01*
X110017800Y-106569400D02*
X110017800Y-104899800D01*
X134038200Y-96588200D02*
X122747000Y-107879400D01*
X122747000Y-107879400D02*
X111327800Y-107879400D01*
X134038200Y-94121000D02*
X130499900Y-90582700D01*
X110017800Y-104899800D02*
X114517600Y-100400000D01*
X141663300Y-96588200D02*
X145100000Y-100024900D01*
X145100000Y-100400000D02*
X145100000Y-100024900D01*
X134038200Y-96588200D02*
X134038200Y-94121000D01*
%TO.N,R5*%
X140301900Y-65100200D02*
X138462300Y-66939800D01*
X143874200Y-65100200D02*
X140301900Y-65100200D01*
X138462300Y-69800000D02*
X144457300Y-75795000D01*
X138462300Y-69800000D02*
X130922700Y-77339600D01*
X144199900Y-59749700D02*
X146000100Y-61549900D01*
X146000200Y-75795000D02*
X146000200Y-79749700D01*
X146889300Y-74905900D02*
X146000200Y-75795000D01*
X129747500Y-21910000D02*
X135667700Y-27830200D01*
X165048800Y-77415300D02*
X162539400Y-74905900D01*
X129060000Y-21910000D02*
X129747500Y-21910000D01*
X165048800Y-89201100D02*
X165048800Y-77415300D01*
X146000100Y-62974300D02*
X143874200Y-65100200D01*
X130922700Y-77339600D02*
X127026800Y-77339600D01*
X127026800Y-79723100D02*
X126100000Y-80649900D01*
X127026800Y-77339600D02*
X110410300Y-77339600D01*
X164100000Y-90149900D02*
X165048800Y-89201100D01*
X134879300Y-45928600D02*
X144199900Y-55249200D01*
X135667700Y-27830200D02*
X135667700Y-40905600D01*
X144457300Y-75795000D02*
X146000200Y-75795000D01*
X134879300Y-41694000D02*
X134879300Y-45928600D01*
X145100000Y-81400000D02*
X145100000Y-80649900D01*
X164100000Y-90900000D02*
X164100000Y-90149900D01*
X146000200Y-79749700D02*
X145100000Y-80649900D01*
X126100000Y-81400000D02*
X126100000Y-80649900D01*
X144199900Y-55249200D02*
X144199900Y-59749700D01*
X146000100Y-61549900D02*
X146000100Y-62974300D01*
X107100000Y-81400000D02*
X107100000Y-80649900D01*
X127026800Y-77339600D02*
X127026800Y-79723100D01*
X135667700Y-40905600D02*
X134879300Y-41694000D01*
X110410300Y-77339600D02*
X107100000Y-80649900D01*
X162539400Y-74905900D02*
X146889300Y-74905900D01*
X138462300Y-66939800D02*
X138462300Y-69800000D01*
%TO.N,R4*%
X145100000Y-62400000D02*
X145100000Y-61649900D01*
X126840100Y-53990100D02*
X127006300Y-54156300D01*
X114759800Y-53990100D02*
X107100000Y-61649900D01*
X126840100Y-53990100D02*
X114759800Y-53990100D01*
X127006300Y-54156300D02*
X127006300Y-58874800D01*
X128704100Y-30283400D02*
X129127000Y-30283400D01*
X127909900Y-29489200D02*
X128704100Y-30283400D01*
X127741700Y-50761300D02*
X126840100Y-51662900D01*
X142324900Y-58874800D02*
X127006300Y-58874800D01*
X126100000Y-62400000D02*
X126100000Y-61649900D01*
X145100000Y-61649900D02*
X142324900Y-58874800D01*
X129727600Y-42771500D02*
X127741700Y-44757400D01*
X129127000Y-30283400D02*
X129727600Y-30884000D01*
X129727600Y-30884000D02*
X129727600Y-42771500D01*
X126840100Y-51662900D02*
X126840100Y-53990100D01*
X127741700Y-44757400D02*
X127741700Y-50761300D01*
X127909900Y-20520100D02*
X127909900Y-29489200D01*
X129060000Y-19370000D02*
X127909900Y-20520100D01*
X107100000Y-62400000D02*
X107100000Y-61649900D01*
X127006300Y-58874800D02*
X127006300Y-60743600D01*
X127006300Y-60743600D02*
X126100000Y-61649900D01*
%TO.N,R3*%
X129060000Y-16830000D02*
X129047200Y-16842800D01*
X146037400Y-36933100D02*
X144841300Y-36933100D01*
X133719300Y-25245400D02*
X133719300Y-22393400D01*
X146037400Y-36933100D02*
X146037400Y-41712500D01*
X146037400Y-36933100D02*
X162570600Y-36933100D01*
X110443100Y-39306800D02*
X107100000Y-42649900D01*
X127000200Y-41749700D02*
X127000200Y-39422600D01*
X129047200Y-17721300D02*
X127509800Y-19258700D01*
X146037400Y-41712500D02*
X145100000Y-42649900D01*
X127509800Y-19258700D02*
X127509800Y-29753900D01*
X165048800Y-51201100D02*
X164100000Y-52149900D01*
X136260500Y-27786600D02*
X133719300Y-25245400D01*
X145100000Y-43400000D02*
X145100000Y-42649900D01*
X126100000Y-43400000D02*
X126100000Y-42649900D01*
X133719300Y-22393400D02*
X129047200Y-17721300D01*
X144841300Y-36933100D02*
X136260500Y-28352300D01*
X127000200Y-39422600D02*
X126884400Y-39306800D01*
X126884400Y-39306800D02*
X110443100Y-39306800D01*
X126100000Y-42649900D02*
X127000200Y-41749700D01*
X126884400Y-30379300D02*
X126884400Y-39306800D01*
X162570600Y-36933100D02*
X165048800Y-39411300D01*
X164100000Y-52900000D02*
X164100000Y-52149900D01*
X127509800Y-29753900D02*
X126884400Y-30379300D01*
X129047200Y-16842800D02*
X129047200Y-17721300D01*
X136260500Y-28352300D02*
X136260500Y-27786600D01*
X107100000Y-43400000D02*
X107100000Y-42649900D01*
X165048800Y-39411300D02*
X165048800Y-51201100D01*
%TO.N,R2*%
X115852800Y-25945000D02*
X107894900Y-25945000D01*
X107894900Y-25945000D02*
X107100000Y-25150100D01*
X129060000Y-14959200D02*
X129060000Y-14290000D01*
X146001300Y-20897200D02*
X146001300Y-22748600D01*
X145100000Y-24400000D02*
X145100000Y-23649900D01*
X125197900Y-22747800D02*
X125197900Y-18821300D01*
X107100000Y-24400000D02*
X107100000Y-25150100D01*
X146001300Y-20483600D02*
X146001300Y-20897200D01*
X125197900Y-18821300D02*
X129060000Y-14959200D01*
X129060000Y-14959200D02*
X140476900Y-14959200D01*
X117008000Y-27100200D02*
X115852800Y-25945000D01*
X126100000Y-23649900D02*
X125197900Y-22747800D01*
X123024700Y-27100200D02*
X117008000Y-27100200D01*
X126100000Y-24024900D02*
X123024700Y-27100200D01*
X164100000Y-24400000D02*
X164100000Y-23649900D01*
X146001300Y-22748600D02*
X145100000Y-23649900D01*
X164100000Y-23649900D02*
X161347300Y-20897200D01*
X126100000Y-24024900D02*
X126100000Y-23649900D01*
X140476900Y-14959200D02*
X146001300Y-20483600D01*
X161347300Y-20897200D02*
X146001300Y-20897200D01*
X126100000Y-24400000D02*
X126100000Y-24024900D01*
%TO.N,R1*%
X112624100Y-12833100D02*
X111247700Y-12833100D01*
X145100000Y-4649900D02*
X144199800Y-3749700D01*
X135122900Y-1865700D02*
X129131400Y-7857200D01*
X144199800Y-1865700D02*
X144199800Y-1516800D01*
X144386500Y-1330100D02*
X160780200Y-1330100D01*
X126100000Y-6965500D02*
X126100000Y-6150100D01*
X126991700Y-7857200D02*
X126991700Y-11842800D01*
X164100000Y-5400000D02*
X164100000Y-4649900D01*
X144199800Y-1516800D02*
X144386500Y-1330100D01*
X160780200Y-1330100D02*
X164100000Y-4649900D01*
X126991700Y-7857200D02*
X126100000Y-6965500D01*
X113820000Y-24450000D02*
X112624100Y-23254100D01*
X129131400Y-7857200D02*
X126991700Y-7857200D01*
X111247700Y-12833100D02*
X107100000Y-8685400D01*
X112624100Y-23254100D02*
X112624100Y-12833100D01*
X126100000Y-5400000D02*
X126100000Y-6150100D01*
X145100000Y-5400000D02*
X145100000Y-4649900D01*
X126001400Y-12833100D02*
X112624100Y-12833100D01*
X144199800Y-1865700D02*
X135122900Y-1865700D01*
X107100000Y-5400000D02*
X107100000Y-6150100D01*
X107100000Y-8685400D02*
X107100000Y-6150100D01*
X126991700Y-11842800D02*
X126001400Y-12833100D01*
X144199800Y-3749700D02*
X144199800Y-1865700D01*
%TO.N,RAW*%
X117020200Y4150200D02*
X113820000Y950000D01*
X143245400Y3379800D02*
X142437900Y4187300D01*
X138921200Y4187300D02*
X137634100Y2900200D01*
X145858600Y3379800D02*
X143245400Y3379800D01*
X135613900Y4150200D02*
X117020200Y4150200D01*
X147514400Y4005700D02*
X146484500Y4005700D01*
X146484500Y4005700D02*
X145858600Y3379800D01*
X137634100Y2900200D02*
X136863900Y2900200D01*
X149250000Y1220000D02*
X149250000Y2270100D01*
X136863900Y2900200D02*
X135613900Y4150200D01*
X142437900Y4187300D02*
X138921200Y4187300D01*
X149250000Y2270100D02*
X147514400Y4005700D01*
%TO.N,RST*%
X135386600Y1650000D02*
X135386600Y564000D01*
X135386500Y1650000D02*
X135386600Y1650000D01*
X127909800Y-4671700D02*
X127909800Y-2383000D01*
X129497300Y-5325300D02*
X128563400Y-5325300D01*
X138749900Y1650000D02*
X138349800Y2050100D01*
X127909800Y-2383000D02*
X126835000Y-1308200D01*
X138349800Y2050100D02*
X136050200Y2050100D01*
X139825000Y1650000D02*
X138749900Y1650000D01*
X128563400Y-5325300D02*
X127909800Y-4671700D01*
X135386600Y564000D02*
X129497300Y-5325300D01*
X136050200Y2050100D02*
X135650100Y1650000D01*
X126835000Y-1308200D02*
X116641800Y-1308200D01*
X134575000Y1650000D02*
X135386500Y1650000D01*
X116641800Y-1308200D02*
X113820000Y-4130000D01*
X135386600Y1650000D02*
X135650100Y1650000D01*
%TO.N,P0*%
X130999600Y-69875400D02*
X130999600Y-69749800D01*
X129375000Y-71500000D02*
X130999600Y-69875400D01*
%TO.N,BAT_P*%
X128131400Y-7257100D02*
X135558400Y169900D01*
X127434200Y-7257100D02*
X128131400Y-7257100D01*
X135558400Y169900D02*
X146250000Y169900D01*
X146250000Y1220000D02*
X146250000Y169900D01*
%TO.N,LED_A*%
X127625000Y-71500000D02*
X127625000Y-70502400D01*
%TD*%
M02*
